<?xml version="1.0" encoding="UTF-8" standalone="no"?>
<!-- Created with Inkscape (http://www.inkscape.org/) -->

<svg
   xmlns:dc="http://purl.org/dc/elements/1.1/"
   xmlns:cc="http://creativecommons.org/ns#"
   xmlns:rdf="http://www.w3.org/1999/02/22-rdf-syntax-ns#"
   xmlns:svg="http://www.w3.org/2000/svg"
   xmlns="http://www.w3.org/2000/svg"
   xmlns:sodipodi="http://sodipodi.sourceforge.net/DTD/sodipodi-0.dtd"
   xmlns:inkscape="http://www.inkscape.org/namespaces/inkscape"
   width="213.34081mm"
   height="141.54749mm"
   viewBox="0 0 213.34081 141.54748"
   version="1.1"
   id="svg8"
   inkscape:version="0.92.1 r15371"
   sodipodi:docname="hp bar.svg">
  <defs
     id="defs2">
    <inkscape:path-effect
       effect="skeletal"
       id="path-effect4575"
       is_visible="true"
       pattern="M 0,5 C 0,2.24 2.24,0 5,0 7.76,0 10,2.24 10,5 10,7.76 7.76,10 5,10 2.24,10 0,7.76 0,5 Z"
       copytype="single_stretched"
       prop_scale="0.26458333"
       scale_y_rel="false"
       spacing="0"
       normal_offset="0"
       tang_offset="0"
       prop_units="false"
       vertical_pattern="false"
       fuse_tolerance="0" />
  </defs>
  <sodipodi:namedview
     id="base"
     pagecolor="#ffffff"
     bordercolor="#666666"
     borderopacity="1.0"
     inkscape:pageopacity="0.0"
     inkscape:pageshadow="2"
     inkscape:zoom="0.3951172"
     inkscape:cx="125.29001"
     inkscape:cy="68.065579"
     inkscape:document-units="mm"
     inkscape:current-layer="layer1"
     showgrid="false"
     inkscape:measure-start="0,0"
     inkscape:measure-end="0,0"
     inkscape:window-width="1024"
     inkscape:window-height="719"
     inkscape:window-x="-4"
     inkscape:window-y="-4"
     inkscape:window-maximized="1"
     fit-margin-top="0"
     fit-margin-left="0"
     fit-margin-right="0"
     fit-margin-bottom="0"
     objecttolerance="1"
     guidetolerance="1" />
  <metadata
     id="metadata5">
    <rdf:RDF>
      <cc:Work
         rdf:about="">
        <dc:format>image/svg+xml</dc:format>
        <dc:type
           rdf:resource="http://purl.org/dc/dcmitype/StillImage" />
        <dc:title></dc:title>
      </cc:Work>
    </rdf:RDF>
  </metadata>
  <g
     inkscape:label="Camada 1"
     inkscape:groupmode="layer"
     id="layer1"
     transform="translate(-16.200105,7.2844357)">
    <g
       id="g4502"
       inkscape:export-xdpi="25"
       inkscape:export-ydpi="25"
       transform="matrix(2.0742225,0,0,2.1656521,-216.16338,-174.71988)">
      <path
         style="opacity:1;fill:#ff2a2a;fill-opacity:1;fill-rule:nonzero;stroke:none;stroke-width:11.86420059;stroke-linecap:round;stroke-linejoin:miter;stroke-miterlimit:4;stroke-dasharray:none;stroke-opacity:1;paint-order:normal"
         d="M 76.619167,79.288757 H 206.5832 l -3e-5,14.055522 H 76.619147 Z"
         id="rect4760-6"
         inkscape:connector-curvature="0"
         sodipodi:nodetypes="ccccc" />
      <path
         style="opacity:1;fill:#ff5555;fill-opacity:1;fill-rule:nonzero;stroke:none;stroke-width:5.97940493;stroke-linecap:round;stroke-linejoin:miter;stroke-miterlimit:4;stroke-dasharray:none;stroke-opacity:1;paint-order:normal"
         d="M 76.619167,81.338013 H 206.5832 v 3.738995 H 76.619167 Z"
         id="rect4760-3-4"
         inkscape:connector-curvature="0"
         sodipodi:nodetypes="ccccc" />
    </g>
    <g
       id="g4550"
       transform="matrix(0.31050234,0,0,0.31050234,161.89572,71.428911)" />
    <rect
       style="opacity:1;fill:#ffffff;fill-opacity:1;fill-rule:nonzero;stroke:#000000;stroke-width:5.264781;stroke-linecap:round;stroke-linejoin:miter;stroke-miterlimit:4;stroke-dasharray:none;stroke-opacity:1;paint-order:normal"
       id="rect4544"
       width="274.00674"
       height="34.211136"
       x="-103.67944"
       y="-105.23136"
       ry="12.500222" />
    <rect
       style="opacity:1;fill:#ff2a2a;fill-opacity:1;fill-rule:nonzero;stroke:none;stroke-width:22.29644585;stroke-linecap:round;stroke-linejoin:miter;stroke-miterlimit:4;stroke-dasharray:none;stroke-opacity:1;paint-order:normal"
       id="rect4760"
       width="266.0275"
       height="26.414604"
       x="-99.74659"
       y="-101.36617"
       ry="10.892771" />
    <rect
       style="opacity:1;fill:#ffffff;fill-opacity:1;fill-rule:nonzero;stroke:#000000;stroke-width:3.76300311;stroke-linecap:round;stroke-linejoin:miter;stroke-miterlimit:4;stroke-dasharray:none;stroke-opacity:1;paint-order:normal"
       id="rect4577"
       width="240.43175"
       height="15.137717"
       x="-87.317879"
       y="-71.752205"
       ry="3.5369654" />
    <rect
       style="opacity:1;fill:#ff5555;fill-opacity:1;fill-rule:nonzero;stroke:none;stroke-width:11.23712254;stroke-linecap:round;stroke-linejoin:miter;stroke-miterlimit:4;stroke-dasharray:none;stroke-opacity:1;paint-order:normal"
       id="rect4760-3"
       width="254.01393"
       height="7.0267105"
       x="-91.944641"
       y="-97.514969"
       ry="2.8976529" />
    <rect
       style="opacity:1;fill:#ffcc00;fill-opacity:1;fill-rule:nonzero;stroke:none;stroke-width:13.27733898;stroke-linecap:round;stroke-linejoin:miter;stroke-miterlimit:4;stroke-dasharray:none;stroke-opacity:1;paint-order:normal"
       id="rect4760-7"
       width="235.18539"
       height="10.595245"
       x="-84.717018"
       y="-69.460579"
       ry="4.3692336" />
    <rect
       style="opacity:1;fill:#ffe680;fill-opacity:1;fill-rule:nonzero;stroke:none;stroke-width:7.728477;stroke-linecap:round;stroke-linejoin:miter;stroke-miterlimit:4;stroke-dasharray:none;stroke-opacity:1;paint-order:normal"
       id="rect4760-3-5"
       width="229.17705"
       height="3.6839702"
       x="-81.879715"
       y="-67.225197"
       ry="1.519184" />
    <g
       id="g4503"
       inkscape:export-xdpi="25"
       inkscape:export-ydpi="25">
      <path
         inkscape:export-ydpi="25"
         inkscape:export-xdpi="25"
         inkscape:connector-curvature="0"
         id="path4878"
         d="m -105.10222,68.037789 a 20.800335,23.400377 0 0 0 -6.53977,-1.206175 20.800335,23.400377 0 0 0 -20.80025,23.400039 20.800335,23.400377 0 0 0 20.80025,23.401007 20.800335,23.400377 0 0 0 6.9865,-1.38488 12.763842,32.382338 0 0 1 -0.0699,-0.16406 12.763842,32.382338 0 0 1 -0.842,-2.43179 12.763842,32.382338 0 0 1 -0.74196,-2.63281 12.763842,32.382338 0 0 1 -0.63514,-2.8076 12.763842,32.382338 0 0 1 -0.52151,-2.95427 12.763842,32.382338 0 0 1 -0.40206,-3.071779 12.763842,32.382338 0 0 1 -0.2797,-3.15819 12.763842,32.382338 0 0 1 -0.15344,-3.213573 12.763842,32.382338 0 0 1 -0.0321,-2.290948 12.763842,32.382338 0 0 1 0.0641,-3.232986 12.763842,32.382338 0 0 1 0.19035,-3.199967 12.763842,32.382338 0 0 1 0.31563,-3.136841 12.763842,32.382338 0 0 1 0.43799,-3.040688 12.763842,32.382338 0 0 1 0.55453,-2.914444 12.763842,32.382338 0 0 1 0.66719,-2.759064 12.763842,32.382338 0 0 1 0.77207,-2.577447 12.763842,32.382338 0 0 1 0.22919,-0.623478 z"
         style="opacity:1;fill:#ffcc00;fill-opacity:1;fill-rule:nonzero;stroke:#ffcc00;stroke-width:4.71141577;stroke-linecap:round;stroke-linejoin:miter;stroke-miterlimit:4;stroke-dasharray:none;stroke-opacity:1;paint-order:normal" />
      <path
         inkscape:export-ydpi="25"
         inkscape:export-xdpi="25"
         inkscape:connector-curvature="0"
         id="path4873"
         d="m -105.10222,68.037789 a 12.763842,32.382338 0 0 0 -0.22919,0.623478 12.763842,32.382338 0 0 0 -0.77207,2.577447 12.763842,32.382338 0 0 0 -0.66718,2.759063 12.763842,32.382338 0 0 0 -0.55454,2.914444 12.763842,32.382338 0 0 0 -0.43799,3.040689 12.763842,32.382338 0 0 0 -0.31562,3.136841 12.763842,32.382338 0 0 0 -0.19035,3.199967 12.763842,32.382338 0 0 0 -0.0641,3.232986 12.763842,32.382338 0 0 0 0.0321,2.290947 12.763842,32.382338 0 0 0 0.15345,3.213573 12.763842,32.382338 0 0 0 0.27969,3.15819 12.763842,32.382338 0 0 0 0.40206,3.071776 12.763842,32.382338 0 0 0 0.52152,2.95427 12.763842,32.382338 0 0 0 0.63513,2.80761 12.763842,32.382338 0 0 0 0.74197,2.63281 12.763842,32.382338 0 0 0 0.84199,2.43178 12.763842,32.382338 0 0 0 0.0699,0.16406 20.800335,23.400377 0 0 0 13.813743,-22.016124 20.800335,23.400377 0 0 0 -14.260473,-22.193864 z"
         style="opacity:1;fill:#ffdd55;fill-opacity:1;fill-rule:nonzero;stroke:#ffcc00;stroke-width:4.71141577;stroke-linecap:round;stroke-linejoin:miter;stroke-miterlimit:4;stroke-dasharray:none;stroke-opacity:1;paint-order:normal" />
    </g>
    <rect
       style="opacity:1;fill:none;fill-opacity:1;fill-rule:nonzero;stroke:#000000;stroke-width:3.76300311;stroke-linecap:round;stroke-linejoin:miter;stroke-miterlimit:4;stroke-dasharray:none;stroke-opacity:1;paint-order:normal"
       id="rect4577-1"
       width="240.43175"
       height="15.137717"
       x="-42.579147"
       y="88.466103"
       ry="3.5369656"
       inkscape:export-xdpi="25"
       inkscape:export-ydpi="25" />
    <g
       id="g4506"
       inkscape:export-xdpi="25"
       inkscape:export-ydpi="25"
       transform="matrix(1.8793045,0,0,1.8793045,-191.04864,-109.31477)">
      <path
         style="opacity:1;fill:#ffcc00;fill-opacity:1;fill-rule:nonzero;stroke:none;stroke-width:7.06502819;stroke-linecap:round;stroke-linejoin:miter;stroke-miterlimit:4;stroke-dasharray:none;stroke-opacity:1;paint-order:normal"
         d="M 82.878397,118.68174 H 203.37372 l -2.1e-4,5.63785 H 82.878647 Z"
         id="rect4760-7-4"
         inkscape:connector-curvature="0"
         sodipodi:nodetypes="ccccc" />
      <path
         style="opacity:1;fill:#ffe680;fill-opacity:1;fill-rule:nonzero;stroke:none;stroke-width:4.11241341;stroke-linecap:round;stroke-linejoin:miter;stroke-miterlimit:4;stroke-dasharray:none;stroke-opacity:1;paint-order:normal"
         d="M 82.878397,119.87122 H 203.37351 v 1.96029 H 82.878397 Z"
         id="rect4760-3-5-8"
         inkscape:connector-curvature="0"
         sodipodi:nodetypes="ccccc" />
    </g>
    <rect
       style="opacity:1;fill:none;fill-opacity:1;fill-rule:nonzero;stroke:#000000;stroke-width:5.26478148;stroke-linecap:round;stroke-linejoin:miter;stroke-miterlimit:4;stroke-dasharray:none;stroke-opacity:1;paint-order:normal"
       id="rect4544-3"
       width="274.00674"
       height="34.211136"
       x="-59.366684"
       y="-4.7570567"
       ry="12.500222"
       inkscape:export-xdpi="25"
       inkscape:export-ydpi="25" />
    <g
       transform="matrix(1.8793045,0,0,1.8793045,-191.04864,-81.535586)"
       inkscape:export-ydpi="25"
       inkscape:export-xdpi="25"
       id="g4505">
      <path
         sodipodi:nodetypes="ccccc"
         inkscape:connector-curvature="0"
         id="path4501"
         d="M 82.878397,118.68174 H 203.37372 l -2.1e-4,5.63785 H 82.878647 Z"
         style="opacity:1;fill:#2d9de8;fill-opacity:1;fill-rule:nonzero;stroke:none;stroke-width:7.06502819;stroke-linecap:round;stroke-linejoin:miter;stroke-miterlimit:4;stroke-dasharray:none;stroke-opacity:1;paint-order:normal" />
      <path
         sodipodi:nodetypes="ccccc"
         inkscape:connector-curvature="0"
         id="path4503"
         d="M 82.878397,119.87122 H 203.37351 v 1.96029 H 82.878397 Z"
         style="opacity:1;fill:#7bc1f0;fill-opacity:1;fill-rule:nonzero;stroke:none;stroke-width:4.11241341;stroke-linecap:round;stroke-linejoin:miter;stroke-miterlimit:4;stroke-dasharray:none;stroke-opacity:1;paint-order:normal" />
    </g>
  </g>
</svg>
