<?xml version="1.0" encoding="UTF-8" standalone="no"?>
<!-- Created with Inkscape (http://www.inkscape.org/) -->

<svg
   xmlns:dc="http://purl.org/dc/elements/1.1/"
   xmlns:cc="http://creativecommons.org/ns#"
   xmlns:rdf="http://www.w3.org/1999/02/22-rdf-syntax-ns#"
   xmlns:svg="http://www.w3.org/2000/svg"
   xmlns="http://www.w3.org/2000/svg"
   xmlns:sodipodi="http://sodipodi.sourceforge.net/DTD/sodipodi-0.dtd"
   xmlns:inkscape="http://www.inkscape.org/namespaces/inkscape"
   width="210mm"
   height="297mm"
   viewBox="0 0 210 297"
   version="1.1"
   id="svg8"
   inkscape:version="0.92.1 r15371"
   sodipodi:docname="Loja.svg">
  <defs
     id="defs2" />
  <sodipodi:namedview
     id="base"
     pagecolor="#ffffff"
     bordercolor="#666666"
     borderopacity="1.0"
     inkscape:pageopacity="0.0"
     inkscape:pageshadow="2"
     inkscape:zoom="0.70710678"
     inkscape:cx="234.35315"
     inkscape:cy="512.88873"
     inkscape:document-units="mm"
     inkscape:current-layer="layer1"
     showgrid="false"
     inkscape:window-width="1280"
     inkscape:window-height="657"
     inkscape:window-x="-4"
     inkscape:window-y="-4"
     inkscape:window-maximized="1"
     objecttolerance="1"
     guidetolerance="1" />
  <metadata
     id="metadata5">
    <rdf:RDF>
      <cc:Work
         rdf:about="">
        <dc:format>image/svg+xml</dc:format>
        <dc:type
           rdf:resource="http://purl.org/dc/dcmitype/StillImage" />
        <dc:title></dc:title>
      </cc:Work>
    </rdf:RDF>
  </metadata>
  <g
     inkscape:label="Camada 1"
     inkscape:groupmode="layer"
     id="layer1">
    <g
       id="g4285"
       transform="translate(-25.344813,97.366664)"
       inkscape:export-xdpi="90"
       inkscape:export-ydpi="90"
       inkscape:export-filename="C:\Users\homework\Desktop\Folthers\FATEC\Smaug\the toekoms of orixás\0.1 Digital\Assest\NPCs\Talking\Vendedor\Inkscape\Loja\g4285.png">
      <g
         id="g4280">
        <path
           transform="scale(-1)"
           style="fill:#b2d871;fill-opacity:1;stroke:none;stroke-width:2.23844123;stroke-miterlimit:4;stroke-dasharray:none;stroke-opacity:0.98728811"
           d="m -178.11821,-45.739918 h 48.42365 c 0.27914,0 0.50387,0.224729 0.50387,0.503876 v 2.921111 c 0,0.279147 -0.22473,0.503875 -0.50387,0.503875 h -48.42365 c -0.27915,0 -0.50388,-0.224728 -0.50388,-0.503875 v -2.921111 c 0,-0.279147 0.22473,-0.503876 0.50388,-0.503876 z"
           id="rect4871-4-9"
           inkscape:connector-curvature="0"
           sodipodi:nodetypes="sssssssss" />
        <rect
           style="fill:#b8e39a;fill-opacity:1;stroke:none;stroke-width:1.53809988;stroke-miterlimit:4;stroke-dasharray:none;stroke-opacity:0.98728811"
           id="rect4871-4-5"
           width="53.320271"
           height="3.9288621"
           x="35.637135"
           y="-179.74455"
           ry="0.50387561"
           transform="rotate(90)" />
        <rect
           style="fill:#b8e39a;fill-opacity:1;stroke:none;stroke-width:1.53809988;stroke-miterlimit:4;stroke-dasharray:none;stroke-opacity:0.98728811"
           id="rect4871-4"
           width="53.320271"
           height="3.9288619"
           x="35.637135"
           y="-130.43015"
           ry="0.50387561"
           transform="rotate(90)" />
      </g>
      <path
         inkscape:connector-curvature="0"
         id="path5110"
         d="m 181.21209,87.670487 c 0,-0.21229 -0.0344,-0.41394 -0.0961,-0.59743 -0.0618,-0.1835 -0.15089,-0.34888 -0.26148,-0.4874 -0.11059,-0.13852 -0.24262,-0.25016 -0.38912,-0.32751 -0.1465,-0.0774 -0.3075,-0.1204 -0.47698,-0.1204 h -53.60243 c -0.16948,0 -0.33047,0.043 -0.47697,0.1204 -0.1465,0.0773 -0.27854,0.18899 -0.38913,0.32751 -0.11059,0.13852 -0.19972,0.3039 -0.26148,0.4874 -0.0618,0.18349 -0.0961,0.38514 -0.0961,0.59743 v 3.49589 c 0,0.84913 0.54577,1.53273 1.2237,1.53273 h 53.60241 c 0.67793,0 1.2237,-0.6836 1.2237,-1.53273 z"
         style="fill:#78b733;fill-opacity:1;stroke:none;stroke-width:4.01683331;stroke-miterlimit:4;stroke-dasharray:none;stroke-opacity:0.98728811"
         sodipodi:nodetypes="ccscsscscsssscc" />
      <path
         inkscape:connector-curvature="0"
         id="rect4871"
         d="m 126.38598,83.15757 c -0.67793,0 -1.2237,0.545769 -1.2237,1.223698 v 4.303098 c 0,-0.169484 0.0344,-0.330475 0.0961,-0.476975 0.0618,-0.1465 0.15089,-0.278532 0.26148,-0.389122 0.11059,-0.110594 0.24263,-0.199726 0.38913,-0.261483 0.1465,-0.06176 0.30749,-0.09612 0.47697,-0.09612 h 53.60241 c 0.16948,0 0.33048,0.03436 0.47698,0.09612 0.1465,0.06176 0.27853,0.150889 0.38912,0.261483 0.11059,0.11059 0.19972,0.242622 0.26148,0.389122 0.0618,0.1465 0.0961,0.307491 0.0961,0.476975 v -4.303098 c 0,-0.677929 -0.54577,-1.223698 -1.2237,-1.223698 z"
         style="fill:#a0d25b;fill-opacity:1;stroke:none;stroke-width:3.58911991;stroke-miterlimit:4;stroke-dasharray:none;stroke-opacity:0.98728811"
         sodipodi:nodetypes="ssccccssscccsss" />
    </g>
    <g
       id="g4546"
       transform="matrix(0.68571428,0,0,0.68571428,104.96756,59.837764)"
       inkscape:export-filename="C:\Users\homework\Desktop\Folthers\FATEC\Smaug\the toekoms of orixás\0.1 Digital\Assest\NPCs\Talking\Vendedor\Inkscape\Loja\g4546.png"
       inkscape:export-xdpi="90"
       inkscape:export-ydpi="90">
      <circle
         r="13.096207"
         cy="165.66376"
         cx="34.050137"
         id="path4520"
         style="fill:#9ec7c8;fill-opacity:1;stroke:none;stroke-width:0.26458332" />
      <path
         sodipodi:nodetypes="cccccsscccc"
         inkscape:connector-curvature="0"
         id="rect4528"
         d="m 32.179249,147.49916 h 4.677216 v 1.3798 l -0.418158,0.81012 0.418158,4.15 c 0,0 -0.390742,0.2708 -0.668507,0.36381 -1.020092,0.34157 -2.202058,0.32585 -3.227279,0 -0.291162,-0.0925 -0.78143,-0.36381 -0.78143,-0.36381 l 0.352021,-4.32179 -0.352021,-0.6851 z"
         style="fill:#8fbebf;fill-opacity:1;stroke:none;stroke-width:0.27933452;stroke-linecap:round;stroke-linejoin:round;stroke-miterlimit:4;stroke-dasharray:none;stroke-opacity:1" />
      <path
         sodipodi:nodetypes="sssccs"
         inkscape:connector-curvature="0"
         id="circle4536"
         d="m 46.023811,165.66376 c -3e-6,6.61288 -5.360798,11.97367 -11.973674,11.97367 -6.612876,0 -11.973672,-5.36079 -11.973675,-11.97367 -2e-6,-3.76169 1.734658,-7.11823 4.447697,-9.31334 5.65509,-2.51134 10.462317,0.72575 16.039809,0.8941 2.139076,2.16295 3.459844,5.13686 3.459843,8.41924 z"
         style="fill:#ed0000;fill-opacity:1;stroke:none;stroke-width:0.24190475" />
      <ellipse
         ry="0.74835461"
         rx="2.2099848"
         cy="153.94734"
         cx="34.576324"
         id="path4533"
         style="fill:#5ca0a2;fill-opacity:1;stroke:none;stroke-width:0.19651462;stroke-linecap:round;stroke-linejoin:round;stroke-miterlimit:4;stroke-dasharray:none;stroke-opacity:1" />
      <path
         style="fill:#b40000;fill-opacity:1;stroke:none;stroke-width:0.22953965"
         d="m 44.436311,165.29739 c -3e-6,6.37684 -5.005424,11.54629 -11.179924,11.54629 -6.1745,0 -11.179922,-5.16945 -11.179925,-11.54629 -2e-6,-3.62742 1.619665,-6.86416 4.152854,-8.98092 5.280206,-2.4217 9.768756,0.69985 14.976509,0.86219 1.997274,2.08575 3.230487,4.95351 3.230486,8.11873 z"
         id="path4539"
         inkscape:connector-curvature="0"
         sodipodi:nodetypes="sssccs" />
    </g>
  </g>
</svg>
