<?xml version="1.0" encoding="UTF-8" standalone="no"?>
<!-- Created with Inkscape (http://www.inkscape.org/) -->

<svg
   xmlns:dc="http://purl.org/dc/elements/1.1/"
   xmlns:cc="http://creativecommons.org/ns#"
   xmlns:rdf="http://www.w3.org/1999/02/22-rdf-syntax-ns#"
   xmlns:svg="http://www.w3.org/2000/svg"
   xmlns="http://www.w3.org/2000/svg"
   xmlns:sodipodi="http://sodipodi.sourceforge.net/DTD/sodipodi-0.dtd"
   xmlns:inkscape="http://www.inkscape.org/namespaces/inkscape"
   width="210mm"
   height="297mm"
   viewBox="0 0 210 297"
   version="1.1"
   id="svg8"
   inkscape:version="0.92.1 r15371"
   sodipodi:docname="fixeman.svg">
  <defs
     id="defs2" />
  <sodipodi:namedview
     id="base"
     pagecolor="#ffffff"
     bordercolor="#666666"
     borderopacity="1.0"
     inkscape:pageopacity="0.0"
     inkscape:pageshadow="2"
     inkscape:zoom="1.4142136"
     inkscape:cx="337.38479"
     inkscape:cy="570.52201"
     inkscape:document-units="mm"
     inkscape:current-layer="layer1"
     showgrid="false"
     inkscape:window-width="1280"
     inkscape:window-height="698"
     inkscape:window-x="-8"
     inkscape:window-y="-8"
     inkscape:window-maximized="1"
     objecttolerance="1"
     guidetolerance="1" />
  <metadata
     id="metadata5">
    <rdf:RDF>
      <cc:Work
         rdf:about="">
        <dc:format>image/svg+xml</dc:format>
        <dc:type
           rdf:resource="http://purl.org/dc/dcmitype/StillImage" />
        <dc:title />
      </cc:Work>
    </rdf:RDF>
  </metadata>
  <g
     inkscape:label="Camada 1"
     inkscape:groupmode="layer"
     id="layer1">
    <g
       id="g4703"
       transform="matrix(-1.3112537,0,0,1.3112537,-241.12739,-210.16632)">
      <path
         style="fill:#240000;fill-opacity:1;stroke:none;stroke-width:2.39907479;stroke-miterlimit:4;stroke-dasharray:none;stroke-opacity:0.98728811"
         d="m -268.8556,214.74038 c 7.72306,-1.89924 15.48885,2.8678 17.41209,10.68843 l 15.20377,61.82438 c 2.92221,20.62503 -23.79447,21.56815 -27.88105,6.85648 l -15.20378,-61.82439 c -1.92324,-7.82063 2.74593,-15.64566 10.46897,-17.5449 z"
         id="path4695"
         inkscape:connector-curvature="0"
         sodipodi:nodetypes="ssccss"
         inkscape:export-filename="C:\#FOLTHERS\FATEC\Smaug\the toekoms of orixás\0.1 Digital\Assest\Enemy\Enemy3\DragonBones\library\back upper leg.png"
         inkscape:export-xdpi="25"
         inkscape:export-ydpi="25" />
      <path
         sodipodi:nodetypes="ssccss"
         inkscape:connector-curvature="0"
         id="path4697"
         d="m -243.12146,284.51581 c 6.91056,3.93661 9.26471,12.73946 5.27836,19.73733 l -31.51322,55.32021 c -12.0729,16.97576 -32.10664,-0.72508 -24.94786,-14.21158 l 31.51323,-55.32021 c 3.98634,-6.99787 12.75894,-9.46236 19.66949,-5.52575 z"
         style="fill:#240000;fill-opacity:1;stroke:none;stroke-width:2.39907479;stroke-miterlimit:4;stroke-dasharray:none;stroke-opacity:0.98728811"
         inkscape:export-filename="C:\#FOLTHERS\FATEC\Smaug\the toekoms of orixás\0.1 Digital\Assest\Enemy\Enemy3\DragonBones\library\back lower leg.png"
         inkscape:export-xdpi="25"
         inkscape:export-ydpi="25" />
      <path
         style="fill:#501c1c;fill-opacity:1;stroke:none;stroke-width:0.28973827px;stroke-linecap:butt;stroke-linejoin:miter;stroke-opacity:1"
         d="m -292.42245,371.43414 c 10.57364,4.25593 34.18913,0.57948 34.18913,0.57948 0,0 -12.16902,-22.02012 -16.22536,-22.02012 -7.14688,0 -15.64278,-4.17884 -21.44063,0 -3.9642,2.85724 -5.84635,9.17318 -4.63582,13.90744 0.91419,3.57527 4.6893,6.15527 8.11268,7.5332 z"
         id="path4701"
         inkscape:connector-curvature="0"
         sodipodi:nodetypes="scssss"
         inkscape:export-filename="C:\#FOLTHERS\FATEC\Smaug\the toekoms of orixás\0.1 Digital\Assest\Enemy\Enemy3\DragonBones\library\back foot.png"
         inkscape:export-xdpi="25"
         inkscape:export-ydpi="25" />
    </g>
    <g
       id="g4693"
       transform="matrix(-1.3112537,0,0,1.3112537,-171.74021,-210.16632)">
      <path
         sodipodi:nodetypes="ssccss"
         inkscape:connector-curvature="0"
         id="rect4625"
         d="m -268.8556,214.74038 c 7.72306,-1.89924 15.48885,2.8678 17.41209,10.68843 l 15.20377,61.82438 c 2.92221,20.62503 -23.79447,21.56815 -27.88105,6.85648 l -15.20378,-61.82439 c -1.92324,-7.82063 2.74593,-15.64566 10.46897,-17.5449 z"
         style="fill:#de0000;fill-opacity:1;stroke:none;stroke-width:2.39907479;stroke-miterlimit:4;stroke-dasharray:none;stroke-opacity:0.98728811"
         inkscape:export-filename="C:\#FOLTHERS\FATEC\Smaug\the toekoms of orixás\0.1 Digital\Assest\Enemy\Enemy3\DragonBones\library\front upper leg.png"
         inkscape:export-xdpi="25"
         inkscape:export-ydpi="25" />
      <path
         style="fill:#de0000;fill-opacity:1;stroke:none;stroke-width:2.39907479;stroke-miterlimit:4;stroke-dasharray:none;stroke-opacity:0.98728811"
         d="m -243.12146,284.51581 c 6.91056,3.93661 9.26471,12.73946 5.27836,19.73733 l -31.51322,55.32021 c -12.0729,16.97576 -32.10664,-0.72508 -24.94786,-14.21158 l 31.51323,-55.32021 c 3.98634,-6.99787 12.75894,-9.46236 19.66949,-5.52575 z"
         id="path4686"
         inkscape:connector-curvature="0"
         sodipodi:nodetypes="ssccss"
         inkscape:export-filename="C:\#FOLTHERS\FATEC\Smaug\the toekoms of orixás\0.1 Digital\Assest\Enemy\Enemy3\DragonBones\library\front lower leg.png"
         inkscape:export-xdpi="25"
         inkscape:export-ydpi="25" />
      <path
         sodipodi:nodetypes="scssss"
         inkscape:connector-curvature="0"
         id="path4688"
         d="m -292.42245,371.43414 c 10.57364,4.25593 34.18913,0.57948 34.18913,0.57948 0,0 -12.16902,-22.02012 -16.22536,-22.02012 -7.14688,0 -15.64278,-4.17884 -21.44063,0 -3.9642,2.85724 -5.84635,9.17318 -4.63582,13.90744 0.91419,3.57527 4.6893,6.15527 8.11268,7.5332 z"
         style="fill:#a43a3a;fill-opacity:1;stroke:none;stroke-width:0.28973827px;stroke-linecap:butt;stroke-linejoin:miter;stroke-opacity:1"
         inkscape:export-filename="C:\#FOLTHERS\FATEC\Smaug\the toekoms of orixás\0.1 Digital\Assest\Enemy\Enemy3\DragonBones\library\front foot.png"
         inkscape:export-xdpi="25"
         inkscape:export-ydpi="25" />
    </g>
    <path
       style="fill:#340000;fill-opacity:1;stroke:none;stroke-width:4.09217215;stroke-miterlimit:4;stroke-dasharray:none;stroke-opacity:0.98728811"
       d="m 77.434145,80.531364 -18.40084,-6.5696 c -12.25901,-4.37682 -24.02572,4.35206 -27.58279,13.81956 L 3.3307803,162.62451 c -3.55707303,9.46746 3.448479,20.61288 15.7075077,24.98969 l 18.400827,6.5696 c 12.25901,4.37681 24.99185,0.27855 28.54891,-9.18893 l 28.11972,-74.84318 c 3.55705,-9.46747 -4.4146,-25.243526 -16.6736,-29.620326 z"
       id="path4677"
       inkscape:connector-curvature="0"
       sodipodi:nodetypes="sssssssss"
       inkscape:export-filename="C:\#FOLTHERS\FATEC\Smaug\the toekoms of orixás\0.1 Digital\Assest\Enemy\Enemy3\DragonBones\library\back lower arm.png"
       inkscape:export-xdpi="25"
       inkscape:export-ydpi="25" />
    <path
       sodipodi:nodetypes="sssssssss"
       inkscape:connector-curvature="0"
       id="path4679"
       d="m 90.769125,-36.093283 -21.34694,-4.756297 c -14.22178,-3.168737 -24.93467,8.396626 -26.62166,19.607215 l -13.33611,88.622959 c -1.686989,11.21059 8.40418,22.78672 22.62598,25.95547 l 21.34693,4.75629 c 14.22177,3.168736 27.029215,-3.30538 28.716195,-14.51597 L 115.48965,-5.0465587 C 117.17663,-16.257162 104.99091,-32.924534 90.769125,-36.093283 Z"
       style="fill:#340000;fill-opacity:1;stroke:none;stroke-width:4.57854748;stroke-miterlimit:4;stroke-dasharray:none;stroke-opacity:0.98728811"
       inkscape:export-filename="C:\#FOLTHERS\FATEC\Smaug\the toekoms of orixás\0.1 Digital\Assest\Enemy\Enemy3\DragonBones\library\back upper arm.png"
       inkscape:export-xdpi="25"
       inkscape:export-ydpi="25" />
    <g
       id="g4662"
       transform="matrix(-1.3112537,0,0,1.3112537,134.42002,-135.58881)"
       inkscape:export-filename="C:\#FOLTHERS\FATEC\Smaug\the toekoms of orixás\0.1 Digital\Assest\Enemy\Enemy3\DragonBones\library\body.png"
       inkscape:export-xdpi="25"
       inkscape:export-ydpi="25">
      <rect
         rx="55.51017"
         ry="22.758099"
         y="59.515167"
         x="-51.868786"
         height="145.18597"
         width="111.02034"
         id="rect4625-8-7"
         style="fill:#770000;fill-opacity:1;stroke:none;stroke-width:5.90257835;stroke-miterlimit:4;stroke-dasharray:none;stroke-opacity:0.98728811" />
      <path
         sodipodi:nodetypes="cssc"
         inkscape:connector-curvature="0"
         id="path4647"
         d="m -29.560007,110.65969 c 0,0 14.73213,5.34609 22.4506397,5.98684 5.24415,0.43534 10.72439,0.17059 15.71545,-1.49671 4.3012903,-1.43688 11.5995003,-7.10937 11.5995003,-7.10937"
         style="fill:none;stroke:#000000;stroke-width:2;stroke-linecap:butt;stroke-linejoin:miter;stroke-miterlimit:4;stroke-dasharray:none;stroke-opacity:1" />
      <path
         style="fill:none;stroke:#000000;stroke-width:2;stroke-linecap:butt;stroke-linejoin:miter;stroke-miterlimit:4;stroke-dasharray:none;stroke-opacity:1"
         d="m 58.281093,111.71802 c 0,0 -6.26546,4.28776 -13.98397,4.92851 -5.24415,0.43534 -9.13689,0.17059 -14.12795,-1.49671 -4.30129,-1.43688 -10.54117,-7.10937 -10.54117,-7.10937"
         id="path4649"
         inkscape:connector-curvature="0"
         sodipodi:nodetypes="cssc" />
      <path
         sodipodi:nodetypes="csssc"
         inkscape:connector-curvature="0"
         id="path4651"
         d="m 21.328113,125.62679 c 0,0 2.2073,7.94805 1.87088,11.97367 -0.22993,2.75133 -0.88069,5.71293 -2.61924,7.85772 -2.64015,3.25707 -6.8049,5.26247 -10.8511403,6.36102 -4.9351,1.33987 -15.34127,0 -15.34127,0"
         style="fill:none;stroke:#000000;stroke-width:2;stroke-linecap:butt;stroke-linejoin:miter;stroke-miterlimit:4;stroke-dasharray:none;stroke-opacity:1" />
      <path
         style="fill:none;stroke:#000000;stroke-width:2;stroke-linecap:butt;stroke-linejoin:miter;stroke-miterlimit:4;stroke-dasharray:none;stroke-opacity:1"
         d="m 19.928253,145.45818 c 2.64015,3.25707 6.8049,5.26247 10.85114,6.36102 4.9351,1.33987 15.34127,0 15.34127,0"
         id="path4653"
         inkscape:connector-curvature="0"
         sodipodi:nodetypes="csc" />
      <path
         sodipodi:nodetypes="csssc"
         inkscape:connector-curvature="0"
         id="path4651-1"
         d="m 20.719363,159.97093 c 0,0 2.2073,7.94805 1.87088,11.97367 -0.22993,2.75133 -0.88069,5.71293 -2.61924,7.85772 -2.64015,3.25707 -6.8049,5.26247 -10.8511403,6.36102 -4.9351,1.33987 -15.34127,0 -15.34127,0"
         style="fill:none;stroke:#000000;stroke-width:2;stroke-linecap:butt;stroke-linejoin:miter;stroke-miterlimit:4;stroke-dasharray:none;stroke-opacity:1" />
      <path
         style="fill:none;stroke:#000000;stroke-width:2;stroke-linecap:butt;stroke-linejoin:miter;stroke-miterlimit:4;stroke-dasharray:none;stroke-opacity:1"
         d="m 19.319503,179.80232 c 2.64015,3.25707 6.8049,5.26247 10.85114,6.36102 4.9351,1.33987 15.34127,0 15.34127,0"
         id="path4653-3"
         inkscape:connector-curvature="0"
         sodipodi:nodetypes="csc" />
    </g>
    <g
       id="g4722"
       transform="matrix(-0.32839848,8.5813495,8.5813495,0.32839848,-389.40715,-760.77025)"
       inkscape:export-filename="C:\#FOLTHERS\FATEC\Smaug\the toekoms of orixás\0.1 Digital\Assest\Enemy\Enemy3\DragonBones\library\sword.png"
       inkscape:export-xdpi="25"
       inkscape:export-ydpi="25">
      <path
         sodipodi:type="star"
         style="fill:#916f6f;stroke:none;stroke-width:3.06500006;stroke-miterlimit:4;stroke-dasharray:none;stroke-opacity:0.98728811"
         id="path4726"
         sodipodi:sides="3"
         sodipodi:cx="-146.57916"
         sodipodi:cy="55.50156"
         sodipodi:r1="3.8756039"
         sodipodi:r2="1.937802"
         sodipodi:arg1="0.52359878"
         sodipodi:arg2="1.5707963"
         inkscape:flatsided="true"
         inkscape:rounded="0"
         inkscape:randomized="0"
         d="m -143.22279,57.439362 -6.71274,0 3.35637,-5.813406 z"
         inkscape:transform-center-x="-0.96890002"
         inkscape:transform-center-y="1.6861826e-006"
         transform="matrix(0,-1,-1,0,165.17625,-104.04656)" />
      <path
         sodipodi:type="star"
         style="fill:#916f6f;stroke:none;stroke-width:3.06500006;stroke-miterlimit:4;stroke-dasharray:none;stroke-opacity:0.98728811"
         id="path4724"
         sodipodi:sides="3"
         sodipodi:cx="-146.57916"
         sodipodi:cy="55.50156"
         sodipodi:r1="3.8756039"
         sodipodi:r2="1.937802"
         sodipodi:arg1="0.52359878"
         sodipodi:arg2="1.5707963"
         inkscape:flatsided="true"
         inkscape:rounded="0"
         inkscape:randomized="0"
         d="m -143.22279,57.439362 -6.71274,0 3.35637,-5.813406 z"
         inkscape:transform-center-x="0.96889974"
         inkscape:transform-center-y="1.4861826e-006"
         transform="rotate(-90,-30.727414,-73.178836)" />
      <path
         transform="scale(-1,1)"
         inkscape:transform-center-y="-0.96890219"
         inkscape:transform-center-x="-9.7420712e-006"
         d="m -100.6859,32.240243 -6.71274,0 3.35637,-5.813406 z"
         inkscape:randomized="0"
         inkscape:rounded="0"
         inkscape:flatsided="true"
         sodipodi:arg2="1.5707963"
         sodipodi:arg1="0.52359878"
         sodipodi:r2="1.937802"
         sodipodi:r1="3.8756039"
         sodipodi:cy="30.302441"
         sodipodi:cx="-104.04227"
         sodipodi:sides="3"
         id="path4610-8"
         style="fill:#916f6f;stroke:none;stroke-width:3.06500006;stroke-miterlimit:4;stroke-dasharray:none;stroke-opacity:0.98728811"
         sodipodi:type="star" />
      <path
         transform="matrix(0,-1,-1,0,165.17625,-98.915326)"
         inkscape:transform-center-y="1.6861826e-006"
         inkscape:transform-center-x="-0.96890002"
         d="m -143.22279,57.439362 -6.71274,0 3.35637,-5.813406 z"
         inkscape:randomized="0"
         inkscape:rounded="0"
         inkscape:flatsided="true"
         sodipodi:arg2="1.5707963"
         sodipodi:arg1="0.52359878"
         sodipodi:r2="1.937802"
         sodipodi:r1="3.8756039"
         sodipodi:cy="55.50156"
         sodipodi:cx="-146.57916"
         sodipodi:sides="3"
         id="path4610-5"
         style="fill:#916f6f;stroke:none;stroke-width:3.06500006;stroke-miterlimit:4;stroke-dasharray:none;stroke-opacity:0.98728811"
         sodipodi:type="star" />
      <path
         transform="rotate(-90,-28.161798,-70.61322)"
         inkscape:transform-center-y="1.4861826e-006"
         inkscape:transform-center-x="0.96889974"
         d="m -143.22279,57.439362 -6.71274,0 3.35637,-5.813406 z"
         inkscape:randomized="0"
         inkscape:rounded="0"
         inkscape:flatsided="true"
         sodipodi:arg2="1.5707963"
         sodipodi:arg1="0.52359878"
         sodipodi:r2="1.937802"
         sodipodi:r1="3.8756039"
         sodipodi:cy="55.50156"
         sodipodi:cx="-146.57916"
         sodipodi:sides="3"
         id="path4610-6-7"
         style="fill:#916f6f;stroke:none;stroke-width:3.06500006;stroke-miterlimit:4;stroke-dasharray:none;stroke-opacity:0.98728811"
         sodipodi:type="star" />
      <path
         transform="rotate(-90,-33.119647,-76.366196)"
         inkscape:transform-center-y="1.4861826e-006"
         inkscape:transform-center-x="0.96889974"
         d="m -143.22279,57.439362 -6.71274,0 3.35637,-5.813406 z"
         inkscape:randomized="0"
         inkscape:rounded="0"
         inkscape:flatsided="true"
         sodipodi:arg2="1.5707963"
         sodipodi:arg1="0.52359878"
         sodipodi:r2="1.937802"
         sodipodi:r1="3.8756039"
         sodipodi:cy="55.50156"
         sodipodi:cx="-146.57916"
         sodipodi:sides="3"
         id="path4610-6"
         style="fill:#916f6f;stroke:none;stroke-width:3.06500006;stroke-miterlimit:4;stroke-dasharray:none;stroke-opacity:0.98728811"
         sodipodi:type="star" />
      <path
         transform="matrix(0,-1,-1,0,164.80207,-109.48583)"
         inkscape:transform-center-y="1.6861826e-006"
         inkscape:transform-center-x="-0.96890002"
         d="m -143.22279,57.439362 -6.71274,0 3.35637,-5.813406 z"
         inkscape:randomized="0"
         inkscape:rounded="0"
         inkscape:flatsided="true"
         sodipodi:arg2="1.5707963"
         sodipodi:arg1="0.52359878"
         sodipodi:r2="1.937802"
         sodipodi:r1="3.8756039"
         sodipodi:cy="55.50156"
         sodipodi:cx="-146.57916"
         sodipodi:sides="3"
         id="path4610"
         style="fill:#916f6f;stroke:none;stroke-width:3.06500006;stroke-miterlimit:4;stroke-dasharray:none;stroke-opacity:0.98728811"
         sodipodi:type="star" />
      <path
         inkscape:connector-curvature="0"
         id="path4702"
         d="m 106.19992,55.953992 h -4.39301 v 24.3935 l 1.04128,2.639631 1.11931,1.108462 1.28623,-1.326018 0.94619,-2.422075 z"
         style="fill:#23565d;fill-opacity:1;stroke:none;stroke-width:8.82574368;stroke-miterlimit:4;stroke-dasharray:none;stroke-opacity:0.98728811"
         sodipodi:nodetypes="cccccccc" />
      <rect
         ry="7.7405729"
         y="31.172604"
         x="98.535744"
         height="25.071234"
         width="10.748347"
         id="rect4814"
         style="fill:#008074;fill-opacity:1;stroke:#008074;stroke-width:1.870152;stroke-miterlimit:4;stroke-dasharray:none;stroke-opacity:0.98728811" />
      <path
         inkscape:transform-center-y="0.012157472"
         inkscape:transform-center-x="-0.17929765"
         d="m 106.43445,39.483865 -3.25541,0.791666 -2.64867,-2.051589 -0.0474,-3.349957 2.58953,-2.125738 3.27652,0.699204 1.49622,2.997632 z"
         inkscape:randomized="0"
         inkscape:rounded="0"
         inkscape:flatsided="true"
         sodipodi:arg2="1.3322424"
         sodipodi:arg1="0.88344344"
         sodipodi:r2="3.4784768"
         sodipodi:r1="3.8608179"
         sodipodi:cy="36.499729"
         sodipodi:cx="103.98479"
         sodipodi:sides="7"
         id="path4838"
         style="fill:#ac9393;stroke:none;stroke-width:2.06381965;stroke-miterlimit:4;stroke-dasharray:none;stroke-opacity:0.98728811"
         sodipodi:type="star" />
      <path
         inkscape:transform-center-y="0.0087606991"
         inkscape:transform-center-x="-0.12926161"
         d="m 105.69706,38.66494 -2.34652,0.570638 -1.90918,-1.478798 -0.0342,-2.414668 1.86655,-1.532244 2.36174,0.503991 1.07848,2.16071 z"
         inkscape:randomized="0"
         inkscape:rounded="0"
         inkscape:flatsided="true"
         sodipodi:arg2="1.3322424"
         sodipodi:arg1="0.88344344"
         sodipodi:r2="2.5073056"
         sodipodi:r1="2.7828996"
         sodipodi:cy="36.513958"
         sodipodi:cx="103.93133"
         sodipodi:sides="7"
         id="path4838-8"
         style="fill:#6c5353;stroke:none;stroke-width:1.48761284;stroke-miterlimit:4;stroke-dasharray:none;stroke-opacity:0.98728811"
         sodipodi:type="star" />
      <path
         inkscape:transform-center-y="0.0019038409"
         inkscape:transform-center-x="-0.028090247"
         d="m 104.25558,36.832252 -0.51007,0.124041 -0.415,-0.321451 -0.007,-0.524885 0.40573,-0.333069 0.51338,0.109554 0.23444,0.469681 z"
         inkscape:randomized="0"
         inkscape:rounded="0"
         inkscape:flatsided="true"
         sodipodi:arg2="1.3322424"
         sodipodi:arg1="0.88344344"
         sodipodi:r2="0.54502183"
         sodipodi:r1="0.60492861"
         sodipodi:cy="36.364685"
         sodipodi:cx="103.87176"
         sodipodi:sides="7"
         id="path4838-8-6"
         style="fill:#c8b7b7;stroke:none;stroke-width:0.32336763;stroke-miterlimit:4;stroke-dasharray:none;stroke-opacity:0.98728811"
         sodipodi:type="star" />
      <path
         inkscape:transform-center-y="0.012157472"
         inkscape:transform-center-x="-0.17929765"
         d="m 106.29766,50.353913 -3.25541,0.791667 -2.64867,-2.05159 -0.0474,-3.349956 2.58954,-2.125739 3.27652,0.699205 1.49621,2.997632 z"
         inkscape:randomized="0"
         inkscape:rounded="0"
         inkscape:flatsided="true"
         sodipodi:arg2="1.3322424"
         sodipodi:arg1="0.88344344"
         sodipodi:r2="3.478477"
         sodipodi:r1="3.8608179"
         sodipodi:cy="47.369778"
         sodipodi:cx="103.848"
         sodipodi:sides="7"
         id="path4838-4"
         style="fill:#ac9393;stroke:none;stroke-width:2.06381965;stroke-miterlimit:4;stroke-dasharray:none;stroke-opacity:0.98728811"
         sodipodi:type="star" />
      <path
         inkscape:transform-center-y="0.0087606991"
         inkscape:transform-center-x="-0.12926161"
         d="m 105.56026,49.534989 -2.34652,0.570637 -1.90917,-1.478797 -0.0342,-2.414668 1.86655,-1.532245 2.36173,0.503991 1.07848,2.16071 z"
         inkscape:randomized="0"
         inkscape:rounded="0"
         inkscape:flatsided="true"
         sodipodi:arg2="1.3322424"
         sodipodi:arg1="0.88344344"
         sodipodi:r2="2.5073056"
         sodipodi:r1="2.7828999"
         sodipodi:cy="47.384007"
         sodipodi:cx="103.79453"
         sodipodi:sides="7"
         id="path4838-8-3"
         style="fill:#6c5353;stroke:none;stroke-width:1.48761284;stroke-miterlimit:4;stroke-dasharray:none;stroke-opacity:0.98728811"
         sodipodi:type="star" />
      <path
         inkscape:transform-center-y="0.0019038409"
         inkscape:transform-center-x="-0.028090247"
         d="m 104.11879,47.7023 -0.51008,0.124042 -0.415,-0.321452 -0.007,-0.524885 0.40574,-0.333069 0.51338,0.109554 0.23443,0.469681 z"
         inkscape:randomized="0"
         inkscape:rounded="0"
         inkscape:flatsided="true"
         sodipodi:arg2="1.3322424"
         sodipodi:arg1="0.88344344"
         sodipodi:r2="0.54502183"
         sodipodi:r1="0.60492861"
         sodipodi:cy="47.234734"
         sodipodi:cx="103.73496"
         sodipodi:sides="7"
         id="path4838-8-6-1"
         style="fill:#c8b7b7;stroke:none;stroke-width:0.32336766;stroke-miterlimit:4;stroke-dasharray:none;stroke-opacity:0.98728811"
         sodipodi:type="star" />
    </g>
    <path
       sodipodi:nodetypes="sssssssss"
       inkscape:connector-curvature="0"
       id="path4674"
       d="m 234.41417,73.998754 -19.53455,-0.38969 c -13.01432,-0.25963 -21.40217,11.75256 -21.77044,21.85952 l -2.91136,79.898336 c -0.3683,10.10693 9.81247,18.45259 22.82681,18.71221 l 19.53452,0.3897 c 13.01434,0.25962 23.78807,-7.66801 24.15634,-17.77496 l 2.91135,-79.898326 c 0.36826,-10.10694 -12.19836,-22.53717 -25.21267,-22.79679 z"
       style="fill:#de0000;fill-opacity:1;stroke:none;stroke-width:4.09217215;stroke-miterlimit:4;stroke-dasharray:none;stroke-opacity:0.98728811"
       inkscape:export-filename="C:\#FOLTHERS\FATEC\Smaug\the toekoms of orixás\0.1 Digital\Assest\Enemy\Enemy3\DragonBones\library\front lower arm.png"
       inkscape:export-xdpi="25"
       inkscape:export-ydpi="25" />
    <g
       id="g4653"
       transform="matrix(-1.3112537,0,0,1.3112537,134.42002,-135.58881)"
       inkscape:export-filename="C:\#FOLTHERS\FATEC\Smaug\the toekoms of orixás\0.1 Digital\Assest\Enemy\Enemy3\DragonBones\library\head.png"
       inkscape:export-xdpi="25"
       inkscape:export-ydpi="25">
      <path
         sodipodi:nodetypes="ssssscssssss"
         inkscape:connector-curvature="0"
         id="path4637"
         d="m 27.640833,7.8208861 c 5.51979,-8.38034796 20.1464,4.1992749 30.01172,2.3625119 6.20763,-1.1557589 10.77451,-7.9394719 17.0841,-8.1833459 4.1059,-0.158699 9.15389,1.074537 11.49517,4.451222 1.86431,2.688782 1.99836,7.1433469 0.10963,9.8150309 -5.37195,7.598833 -26.42146,9.017078 -26.42146,9.017078 0,0 13.80847,0.115441 18.84826,2.892692 5.16144,2.84429 9.31804,6.283645 7.61007,11.923975 -1.46544,4.839416 -8.7703,5.538786 -13.75272,6.400776 -7.89583,1.36603 -17.09181,1.93615 -23.93553,-2.23201 C 43.165963,40.904363 41.477663,33.519393 38.224163,27.92922 34.414113,21.382775 23.474413,14.146499 27.640833,7.8208861 Z"
         style="fill:#770000;fill-opacity:1;stroke:none;stroke-width:0.26458332px;stroke-linecap:butt;stroke-linejoin:miter;stroke-opacity:1" />
      <ellipse
         ry="14.483157"
         rx="14.134166"
         cy="-25.586527"
         cx="37.381596"
         id="path4927"
         style="fill:#cccccc;stroke:none;stroke-width:8.08561707;stroke-miterlimit:4;stroke-dasharray:none;stroke-opacity:0.98728811" />
      <ellipse
         ry="8.2250023"
         rx="8.0268097"
         cy="-31.17045"
         cx="41.220478"
         id="path4927-0-1-8"
         style="fill:#000000;stroke:none;stroke-width:4.59183168;stroke-miterlimit:4;stroke-dasharray:none;stroke-opacity:0.98728811" />
      <path
         sodipodi:nodetypes="ccccccc"
         inkscape:connector-curvature="0"
         id="path4920"
         d="m 18.288483,-33.439018 c -26.7912503,2e-6 -69.67652,25.3123291 -69.67652,56.536664 0.005,1.164305 0.0401,2.328167 0.10631,3.48992 h 117.93011 c 0.0808,-1.161229 0.13076,-2.325092 0.14984,-3.48992 0,-31.2243349 -21.7186,-56.536662 -48.50985,-56.536664 z"
         style="fill:#aa0000;stroke:none;stroke-width:7.6817503;stroke-miterlimit:4;stroke-dasharray:none;stroke-opacity:0.98728811" />
      <ellipse
         ry="14.483157"
         rx="14.134166"
         cy="-28.902002"
         cx="14.871632"
         id="path4927-0"
         style="fill:#cccccc;stroke:none;stroke-width:8.08561707;stroke-miterlimit:4;stroke-dasharray:none;stroke-opacity:0.98728811" />
      <ellipse
         ry="8.2250023"
         rx="8.0268097"
         cy="-35.032997"
         cx="12.952152"
         id="path4927-0-1"
         style="fill:#000000;stroke:none;stroke-width:4.59183168;stroke-miterlimit:4;stroke-dasharray:none;stroke-opacity:0.98728811" />
      <path
         sodipodi:nodetypes="ccccccc"
         style="fill:#aa0000;stroke:none;stroke-width:7.6817503;stroke-miterlimit:4;stroke-dasharray:none;stroke-opacity:0.98728811"
         d="m 18.288483,84.795926 c -26.7912603,0 -69.67653,-25.31234 -69.67652,-56.536687 0.005,-1.164305 0.0401,-2.328167 0.10631,-3.48992 h 117.93011 c 0.0808,1.161229 0.13076,2.325092 0.14984,3.48992 1e-5,31.224347 -21.71859,56.536687 -48.50985,56.536687 z"
         id="path4639"
         inkscape:connector-curvature="0" />
    </g>
    <path
       style="fill:#de0000;fill-opacity:1;stroke:none;stroke-width:4.57854748;stroke-miterlimit:4;stroke-dasharray:none;stroke-opacity:0.98728811"
       d="m 210.04423,-40.828233 -21.75279,2.264915 c -14.49218,1.508952 -20.98043,15.876489 -19.02207,27.042876 l 15.48142,88.273476 c 1.95836,11.16637 15.20191,18.94113 29.6941,17.4322 l 21.75278,-2.26493 c 14.49217,-1.50894 24.58257,-11.71326 22.6242,-22.87964 l -15.48141,-88.273467 c -1.95837,-11.166387 -18.80406,-23.104368 -33.29623,-21.59543 z"
       id="rect4625-8"
       inkscape:connector-curvature="0"
       sodipodi:nodetypes="sssssssss"
       inkscape:export-filename="C:\#FOLTHERS\FATEC\Smaug\the toekoms of orixás\0.1 Digital\Assest\Enemy\Enemy3\DragonBones\library\front upper arm.png"
       inkscape:export-xdpi="25"
       inkscape:export-ydpi="25" />
  </g>
</svg>
