<?xml version="1.0" encoding="UTF-8" standalone="no"?>
<!-- Created with Inkscape (http://www.inkscape.org/) -->

<svg
   xmlns:dc="http://purl.org/dc/elements/1.1/"
   xmlns:cc="http://creativecommons.org/ns#"
   xmlns:rdf="http://www.w3.org/1999/02/22-rdf-syntax-ns#"
   xmlns:svg="http://www.w3.org/2000/svg"
   xmlns="http://www.w3.org/2000/svg"
   xmlns:sodipodi="http://sodipodi.sourceforge.net/DTD/sodipodi-0.dtd"
   xmlns:inkscape="http://www.inkscape.org/namespaces/inkscape"
   width="210mm"
   height="297mm"
   viewBox="0 0 210 297"
   version="1.1"
   id="svg8"
   inkscape:version="0.92.1 r15371"
   sodipodi:docname="Arvore.svg">
  <defs
     id="defs2" />
  <sodipodi:namedview
     id="base"
     pagecolor="#ffffff"
     bordercolor="#666666"
     borderopacity="1.0"
     inkscape:pageopacity="0.0"
     inkscape:pageshadow="2"
     inkscape:zoom="0.49497474"
     inkscape:cx="508.66204"
     inkscape:cy="732.80891"
     inkscape:document-units="mm"
     inkscape:current-layer="layer1"
     showgrid="false"
     inkscape:window-width="1280"
     inkscape:window-height="657"
     inkscape:window-x="-4"
     inkscape:window-y="-4"
     inkscape:window-maximized="1"
     objecttolerance="1"
     guidetolerance="1" />
  <metadata
     id="metadata5">
    <rdf:RDF>
      <cc:Work
         rdf:about="">
        <dc:format>image/svg+xml</dc:format>
        <dc:type
           rdf:resource="http://purl.org/dc/dcmitype/StillImage" />
        <dc:title />
      </cc:Work>
    </rdf:RDF>
  </metadata>
  <g
     inkscape:label="Camada 1"
     inkscape:groupmode="layer"
     id="layer1">
    <g
       id="g4547"
       inkscape:export-filename="C:\Users\homework\Desktop\Folthers\FATEC\Smaug\the toekoms of orixás\0.1 Digital\Assest\Cenario\Arvore\Sprite\1.png"
       inkscape:export-xdpi="90"
       inkscape:export-ydpi="90"
       transform="matrix(0.54471544,0,0,0.54471544,-11.099594,8.2195107)">
      <path
         sodipodi:nodetypes="cccsccccccccccscccccccccccccccccccccccccccccccccccccccccccccsccccsccccc"
         inkscape:connector-curvature="0"
         id="path4499"
         d="m 47.247024,172.45684 -1.511904,32.88393 -4.724704,69.16965 v 14.1741 c 0,1.13392 1.322917,7.7485 1.322917,7.7485 l 9.260418,0.94496 19.84375,0.37797 1.511905,-3.77976 0.755952,-8.50446 -0.377976,-34.01786 -1.889881,-76.16221 4.157738,-1.5119 6.614584,-0.18899 1.700893,-1.5119 c 0,0 0.188988,-2.26786 -0.755953,-2.07887 -0.94494,0.18899 -4.91369,-1.51191 -4.91369,-1.51191 l -6.614584,1.13393 3.590774,-5.48065 6.614583,-6.23661 5.858632,-2.45685 0.566964,-2.07886 -2.456845,0.75595 -7.937501,4.91369 -6.047619,5.10268 0.188988,-3.40179 5.858631,-10.39434 6.236608,-5.85864 13.229167,-5.48065 1.322916,-2.26786 -1.511905,-0.37797 -15.497024,6.61458 -6.236607,5.10268 0.377976,-6.99256 1.889881,-8.69345 1.700893,-3.77977 -2.267857,-1.70089 -2.267857,0.94494 -2.267857,9.82738 0.377976,10.58334 -3.264121,6.01851 -3.475477,1.40765 -4.788676,-5.72527 -16.063988,-2.07887 -13.229167,-2.07887 -3.212798,-6.80357 -1.511905,-1.5119 -1.133928,3.59077 5.480654,6.99256 21.733632,5.10268 6.992559,5.10268 -0.188988,2.45684 -8.504464,3.02381 c 0,0 -7.559524,-3.2128 -9.260417,-3.77976 -1.700893,-0.56697 -7.9375,0.75595 -7.9375,0.75595 l -23.245536,-7.55952 -7.7485121,-4.53572 -10.7723216,-1.5119 -16.8199403,0.75595 -0.377977,3.2128 1.700893,0.75595 c 0,0 17.3869053,-2.64583 18.1428576,-2.83482 0.7559524,-0.18899 10.3943454,4.7247 10.3943454,4.7247 l 1.7008929,3.2128 -11.528274,-0.94494 -3.5907738,1.13393 v 3.02381 c 0,0.75595 2.4568453,0.75595 2.4568453,0.75595 l 17.5758926,-0.75595 13.418155,2.64583 19.087798,6.04762 z"
         style="fill:#804f0a;fill-opacity:1;stroke:none;stroke-width:0.26458332px;stroke-linecap:butt;stroke-linejoin:miter;stroke-opacity:1" />
      <path
         inkscape:connector-curvature="0"
         d="m 45.875508,251.3653 c 0.03366,1.1154 0.253807,2.20296 0.514983,3.28378 0.371713,1.55057 0.810683,3.08884 1.537313,4.51238 0.605089,1.24935 1.606524,2.14495 2.653628,3.0109 0.711822,0.50957 1.456423,0.96329 2.262437,1.30525 0,0 -3.226168,2.1373 -3.226168,2.1373 v 0 c -0.801296,-0.3992 -1.560883,-0.87302 -2.270937,-1.41962 -1.07944,-0.90502 -2.058988,-1.88761 -2.69748,-3.16648 -0.719156,-1.45708 -1.161013,-3.01339 -1.586238,-4.57803 -0.287534,-1.06652 -0.533903,-2.13879 -0.675669,-3.23501 0,0 3.488131,-1.85047 3.488131,-1.85047 z"
         id="path4501"
         style="fill:#000000;fill-opacity:0.47906979;stroke:none;stroke-width:1;stroke-linecap:round;stroke-linejoin:round;stroke-miterlimit:4;stroke-dasharray:none;stroke-opacity:1" />
      <path
         inkscape:connector-curvature="0"
         d="m 66.09939,255.44457 c -1.018243,-1.36685 -1.791007,-2.8864 -2.516582,-4.42197 -1.27685,-2.71088 -2.019053,-5.61706 -2.774283,-8.50355 -0.665974,-2.55818 -0.996939,-5.17895 -1.178713,-7.81049 -0.05042,-1.48164 -0.06797,-2.96443 0.237574,-4.41991 0.126384,-0.53783 0.05649,-0.27154 0.209442,-0.79893 0,0 3.511243,-1.65791 3.511243,-1.65791 v 0 c -0.170709,0.51476 -0.0893,0.2519 -0.243274,0.78888 -0.411715,1.47106 -0.47394,2.87811 -0.457112,4.4047 0.115318,2.62921 0.367665,5.25627 1.018934,7.81417 0.743601,2.85814 1.496041,5.73865 2.82481,8.3925 0.755693,1.46787 1.529035,2.99659 2.750281,4.13983 0,0 -3.38232,2.07268 -3.38232,2.07268 z"
         id="path4503"
         style="fill:#000000;fill-opacity:0.47906979;stroke:none;stroke-width:1;stroke-linecap:round;stroke-linejoin:round;stroke-miterlimit:4;stroke-dasharray:none;stroke-opacity:1" />
      <path
         inkscape:connector-curvature="0"
         d="m 61.064973,187.28368 c -0.699627,1.80329 -1.061591,3.72318 -1.520312,5.59804 -0.962978,4.15029 -1.851988,8.31687 -2.714982,12.48892 -0.724162,3.74791 -1.393923,7.50531 -2.146636,11.24766 -0.155782,0.98591 -0.390988,1.95226 -0.670888,2.90895 0,0 -3.470402,1.6362 -3.470402,1.6362 v 0 c 0.334134,-0.98157 0.681172,-1.95848 0.887669,-2.97818 0.958839,-3.77393 1.791573,-7.57636 2.496206,-11.40665 0.800846,-4.1214 1.590096,-8.24502 2.427213,-12.35926 0.380429,-1.82407 0.709409,-3.6585 1.121977,-5.47528 0,0 3.590155,-1.6604 3.590155,-1.6604 z"
         id="path4505"
         style="fill:#000000;fill-opacity:0.47906979;stroke:none;stroke-width:1;stroke-linecap:round;stroke-linejoin:round;stroke-miterlimit:4;stroke-dasharray:none;stroke-opacity:1" />
      <path
         inkscape:connector-curvature="0"
         d="m 62.96207,260.4566 c -0.384908,1.42928 -0.537094,2.90986 -0.681435,4.37888 -0.235804,2.88668 -0.295976,5.78641 -0.253735,8.68151 0.05685,1.74061 0.257069,3.4848 0.704649,5.1712 0.23831,0.89794 0.390165,1.24944 0.706368,2.10489 0.495745,1.2432 1.14979,2.43181 2.187501,3.29798 0.672267,0.50631 1.434299,0.88707 2.20099,1.22917 0.116646,0.0426 0.233293,0.0852 0.34994,0.12785 0,0 -3.231861,2.16694 -3.231861,2.16694 v 0 c -0.118579,-0.0505 -0.237157,-0.10089 -0.355733,-0.15134 -0.783563,-0.37891 -1.57516,-0.7688 -2.240317,-1.33914 -1.025369,-0.9747 -1.670661,-2.22107 -2.12612,-3.55227 -0.27872,-0.81674 -0.467722,-1.32056 -0.683712,-2.16736 -0.43851,-1.71921 -0.630905,-3.49755 -0.680673,-5.2678 -0.0369,-2.89256 0.0514,-5.78562 0.167042,-8.67577 0.09085,-1.43245 0.189871,-2.8647 0.358458,-4.29042 0,0 3.578638,-1.71432 3.578638,-1.71432 z"
         id="path4507"
         style="fill:#000000;fill-opacity:0.47906979;stroke:none;stroke-width:1;stroke-linecap:round;stroke-linejoin:round;stroke-miterlimit:4;stroke-dasharray:none;stroke-opacity:1" />
      <path
         inkscape:connector-curvature="0"
         d="m 64.484477,182.95654 c -0.545997,-0.95587 -0.871937,-2.00411 -1.226278,-3.04041 -0.595005,-1.71861 -0.639217,-3.56094 -0.702125,-5.36075 -0.04527,-2.23707 0.413639,-4.08241 1.341586,-6.09629 0.597606,-1.21774 1.525667,-2.17682 2.651035,-2.91232 0,0 3.60303,-1.38805 3.60303,-1.38805 v 0 c -1.194263,0.64313 -2.201003,1.57037 -2.865245,2.76342 -0.454072,0.87814 -0.871357,1.77459 -1.115597,2.73899 -0.265083,1.0467 -0.321455,2.1369 -0.344514,3.21066 0.08598,1.75543 0.162584,3.538 0.745056,5.21399 0.350851,0.99185 0.676609,1.99958 1.317964,2.85012 0,0 -3.404912,2.02064 -3.404912,2.02064 z"
         id="path4509"
         style="fill:#000000;fill-opacity:0.47906979;stroke:none;stroke-width:1;stroke-linecap:round;stroke-linejoin:round;stroke-miterlimit:4;stroke-dasharray:none;stroke-opacity:1" />
      <path
         inkscape:connector-curvature="0"
         d="m 54.065527,171.22718 c -0.641364,-0.45734 -1.288738,-0.90797 -1.986627,-1.2748 -0.767869,-0.4427 -1.597782,-0.75225 -2.406629,-1.10806 -1.210223,-0.52679 -2.410013,-1.07638 -3.631845,-1.57611 -0.572172,-0.25942 -1.167784,-0.45859 -1.753227,-0.68406 0,0 2.262857,-1.5144 2.262857,-1.5144 v 0 c 0.56275,0.24044 1.126468,0.47832 1.682027,0.73525 1.220005,0.52276 2.423729,1.08195 3.664246,1.55625 0.828715,0.34031 1.674387,0.64644 2.442724,1.11472 0.7049,0.39345 1.362985,0.86194 2.071169,1.24992 0,0 -2.344695,1.50129 -2.344695,1.50129 z"
         id="path4511"
         style="fill:#000000;fill-opacity:0.47906979;stroke:none;stroke-width:1;stroke-linecap:round;stroke-linejoin:round;stroke-miterlimit:4;stroke-dasharray:none;stroke-opacity:1" />
      <path
         inkscape:connector-curvature="0"
         d="m 16.026937,155.70183 c 1.108275,0.85648 2.365036,1.50119 3.624779,2.10172 1.035905,0.48149 2.078829,0.94789 3.134322,1.38476 0,0 -2.18203,1.45028 -2.18203,1.45028 v 0 c -1.018486,-0.48257 -2.03323,-0.9731 -3.057717,-1.44293 -1.31138,-0.61314 -2.597817,-1.27604 -3.865023,-1.97614 0,0 2.345669,-1.51769 2.345669,-1.51769 z"
         id="path4513"
         style="fill:#000000;fill-opacity:0.47906979;stroke:none;stroke-width:1;stroke-linecap:round;stroke-linejoin:round;stroke-miterlimit:4;stroke-dasharray:none;stroke-opacity:1" />
      <path
         inkscape:connector-curvature="0"
         d="m -3.8412904,157.36851 c 0.4130276,0.26789 0.8925957,0.41245 1.338751,0.62048 0.6160177,0.20821 1.2168123,0.45362 1.82033131,0.69522 0.57509651,0.22663 1.13385041,0.49205 1.72344519,0.67986 0.4912074,0.15161 1.0044106,0.1722 1.5139134,0.19013 0.3782894,-0.0107 0.7302148,-0.0615 1.0696848,-0.22933 0,0 -2.174759,1.70284 -2.174759,1.70284 v 0 c -0.367905,0.0981 -0.74377139,0.13783 -1.12514646,0.13432 -0.52751502,-0.0203 -1.05417701,-0.0767 -1.55346434,-0.26001 -0.5842815,-0.21142 -1.1529159,-0.46155 -1.7276138,-0.69729 -0.6017723,-0.2529 -1.2178284,-0.46479 -1.8257414,-0.70184 -0.4669337,-0.19984 -0.9515279,-0.3557 -1.4013272,-0.59348 0,0 2.3419265,-1.5409 2.3419265,-1.5409 z"
         id="path4515"
         style="fill:#000000;fill-opacity:0.47906979;stroke:none;stroke-width:1;stroke-linecap:round;stroke-linejoin:round;stroke-miterlimit:4;stroke-dasharray:none;stroke-opacity:1" />
      <path
         inkscape:connector-curvature="0"
         d="m -17.686467,149.24658 c 0.06572,-0.0151 0.133506,-0.0229 0.197163,-0.0452 0.07333,-0.0256 0.506345,-0.23157 0.552176,-0.25108 0.333483,-0.14198 0.670794,-0.27834 1.006657,-0.41495 0.526098,-0.24271 1.077214,-0.40658 1.650164,-0.48515 0.285632,-0.0256 0.144351,-0.0156 0.423817,-0.0305 0,0 -2.23055,1.64523 -2.23055,1.64523 v 0 c -0.267056,0.0244 -0.13247,0.009 -0.403721,0.0458 -0.548441,0.10192 -1.072493,0.28523 -1.581835,0.51237 -0.604406,0.25067 -1.199632,0.52312 -1.812493,0.75242 0,0 2.198622,-1.72891 2.198622,-1.72891 z"
         id="path4517"
         style="fill:#000000;fill-opacity:0.47906979;stroke:none;stroke-width:1;stroke-linecap:round;stroke-linejoin:round;stroke-miterlimit:4;stroke-dasharray:none;stroke-opacity:1" />
      <path
         inkscape:connector-curvature="0"
         d="m 63.983157,159.12428 c 0.423236,-0.48899 0.903134,-0.92289 1.446951,-1.27251 1.211424,-0.67436 2.411346,-1.6863 3.845563,-1.87515 0.390895,-0.0375 0.784182,-0.0307 1.176348,-0.0282 0.404452,-0.0365 0.776192,0.0843 1.153514,0.20894 0.308909,0.13392 0.614461,0.274 0.916694,0.42253 0,0 -2.327936,1.52792 -2.327936,1.52792 v 0 c -0.282893,-0.15283 -0.578842,-0.28185 -0.881542,-0.39026 -0.362555,-0.11091 -0.726921,-0.16129 -1.107191,-0.13798 -0.381481,2.3e-4 -0.765246,-10e-4 -1.142775,0.0612 -1.062826,0.21623 -3.037824,1.48879 0.91249,-0.76906 -0.557266,0.30227 -0.994839,0.67711 -1.421009,1.14458 0,0 -2.571107,1.10799 -2.571107,1.10799 z"
         id="path4519"
         style="fill:#000000;fill-opacity:0.47906979;stroke:none;stroke-width:1;stroke-linecap:round;stroke-linejoin:round;stroke-miterlimit:4;stroke-dasharray:none;stroke-opacity:1" />
      <path
         inkscape:connector-curvature="0"
         d="m 57.6908,153.86051 c -0.303062,-0.32695 -0.678175,-0.57599 -1.051044,-0.8158 -0.40445,-0.27977 -0.840219,-0.50863 -1.264719,-0.7558 -0.490522,-0.22454 -1.007883,-0.38393 -1.537042,-0.48606 -0.414498,-0.0709 -0.83558,-0.0768 -1.254879,-0.0797 -0.391615,-0.0151 -0.7699,-0.003 -1.15303,0.0753 -0.307536,0.0549 -0.606851,0.0577 -0.880808,0.21817 0,0 2.183619,-1.72094 2.183619,-1.72094 v 0 c 0.30036,-0.0798 0.609611,-0.1088 0.914871,-0.16573 0.392216,-0.0525 0.787905,-0.0382 1.182809,-0.0336 0.426651,0.0122 0.854369,0.0376 1.271484,0.13526 0.543333,0.13393 1.081498,0.30474 1.583521,0.55466 0.43321,0.24072 0.861671,0.49028 1.271704,0.76922 0.38322,0.24673 0.748615,0.51774 1.099637,0.80844 0,0 -2.366123,1.49655 -2.366123,1.49655 z"
         id="path4521"
         style="fill:#000000;fill-opacity:0.47906979;stroke:none;stroke-width:1;stroke-linecap:round;stroke-linejoin:round;stroke-miterlimit:4;stroke-dasharray:none;stroke-opacity:1" />
      <path
         inkscape:connector-curvature="0"
         d="m 74.377504,152.32071 c 0.305342,-0.38041 0.579334,-0.78345 0.885539,-1.16343 0.32284,-0.406 0.715844,-0.72046 1.137944,-1.01356 0.299879,-0.20232 0.601268,-0.40128 0.855184,-0.66045 0.227864,-0.26097 0.339741,-0.58052 0.421653,-0.91071 0,0 2.494335,-1.20454 2.494335,-1.20454 v 0 c -0.06758,0.35853 -0.162306,0.71067 -0.357478,1.02378 -0.213924,0.3167 -0.515258,0.54408 -0.842579,0.73632 -0.191177,0.14041 -0.40223,0.25051 -0.593243,0.38736 -0.222118,0.15913 -0.370899,0.39533 -0.583917,0.56464 -0.305396,0.3612 -0.583174,0.74032 -0.846331,1.1326 0,0 -2.571107,1.10799 -2.571107,1.10799 z"
         id="path4523"
         style="fill:#000000;fill-opacity:0.47906979;stroke:none;stroke-width:1;stroke-linecap:round;stroke-linejoin:round;stroke-miterlimit:4;stroke-dasharray:none;stroke-opacity:1" />
      <path
         inkscape:connector-curvature="0"
         d="m 75.155734,170.78666 c 0.4026,0.20884 0.813824,0.38536 1.250796,0.50854 0.505545,0.18912 1.007295,0.37342 1.539187,0.47274 0.417489,0.14086 0.849464,0.20128 1.286751,0.23346 0.277775,0.0169 0.556109,0.019 0.834295,0.0208 0,0 -2.245223,1.62607 -2.245223,1.62607 v 0 c -0.280619,-0.007 -0.561414,-0.0147 -0.840965,-0.042 -0.443187,-0.0483 -0.87603,-0.13496 -1.303387,-0.2633 -0.525222,-0.13016 -1.025364,-0.33165 -1.539365,-0.49842 -0.453204,-0.14377 -0.88774,-0.32908 -1.324017,-0.51702 0,0 2.341928,-1.54091 2.341928,-1.54091 z"
         id="path4525"
         style="fill:#000000;fill-opacity:0.47906979;stroke:none;stroke-width:1;stroke-linecap:round;stroke-linejoin:round;stroke-miterlimit:4;stroke-dasharray:none;stroke-opacity:1" />
      <path
         inkscape:connector-curvature="0"
         d="m 71.684879,204.3388 c -0.59522,0.67868 -0.990721,1.49087 -1.383781,2.29502 -0.594077,1.22652 -0.902065,2.55753 -1.10554,3.89723 -0.148813,0.95125 -0.159391,1.90041 -0.006,2.84888 0,0 -2.369622,1.25388 -2.369622,1.25388 v 0 c -0.147306,-0.98076 -0.129214,-1.96092 0.01349,-2.94359 0.204367,-1.35224 0.508582,-2.6991 1.054592,-3.95823 0.361344,-0.79151 0.722313,-1.58657 1.231366,-2.29712 0,0 2.565487,-1.09607 2.565487,-1.09607 z"
         id="path4527"
         style="fill:#000000;fill-opacity:0.47906979;stroke:none;stroke-width:1;stroke-linecap:round;stroke-linejoin:round;stroke-miterlimit:4;stroke-dasharray:none;stroke-opacity:1" />
      <path
         inkscape:connector-curvature="0"
         d="m 45.3133,283.2168 c 0.346845,0.98594 0.754764,1.94675 1.168144,2.90618 0.33021,0.81793 0.530653,1.67576 0.632097,2.54966 0.06303,0.56102 0.04321,1.12583 0.04145,1.68902 -0.03773,0.68154 -0.138239,1.3572 -0.269004,2.02652 -0.10813,0.60595 -0.259271,1.20298 -0.376034,1.8071 -0.04853,0.36606 -0.224517,0.67723 -0.407143,0.98915 0,0 -2.535458,1.13347 -2.535458,1.13347 v 0 c 0.16247,-0.30585 0.403427,-0.56554 0.462606,-0.91889 0.121557,-0.61156 0.299405,-1.20989 0.408128,-1.82428 0.135016,-0.6499 0.219723,-1.3067 0.271126,-1.96847 0.004,-0.55674 0.0019,-1.1139 -0.01897,-1.67026 -0.06077,-0.85879 -0.211105,-1.70897 -0.526375,-2.51437 -0.385993,-0.95668 -0.786685,-1.91592 -1.273069,-2.82548 0,0 2.422512,-1.37935 2.422512,-1.37935 z"
         id="path4529"
         style="fill:#000000;fill-opacity:0.47906979;stroke:none;stroke-width:1;stroke-linecap:round;stroke-linejoin:round;stroke-miterlimit:4;stroke-dasharray:none;stroke-opacity:1" />
    </g>
    <g
       id="g4607"
       inkscape:export-filename="C:\Users\homework\Desktop\Folthers\FATEC\Smaug\the toekoms of orixás\0.1 Digital\Assest\Cenario\Arvore\Sprite\2.png"
       inkscape:export-xdpi="90"
       inkscape:export-ydpi="90"
       transform="matrix(0.54471544,0,0,0.54471544,-11.099594,8.2195107)">
      <path
         inkscape:connector-curvature="0"
         id="path4549"
         d="m 142.28339,296.31277 c 0,0 -1.41331,-21.0891 -0.70665,-26.3614 0.70665,-5.27227 3.53326,-64.43897 3.53326,-64.43897 l 4.2399,-94.90103 -7.06651,-25.775592 -28.9727,-12.301987 -37.452512,1.171618 -7.066512,-4.100662 9.186466,-2.929044 45.932328,1.171617 28.97269,16.402648 1.41331,-23.432354 -21.90619,-25.775588 -26.85274,-9.95875 v -7.029708 c 0,0 12.01306,4.68647 14.83967,5.27228 2.8266,0.585809 31.09265,16.988456 31.09265,16.988456 l 35.33256,40.420811 6.35986,-11.130368 -2.8266,-20.50331 12.01307,-19.9175 3.53325,5.272278 c 0,0 -5.65321,9.958751 -5.65321,12.887795 0,2.929045 4.94656,22.260737 4.94656,22.260737 l 24.73279,12.887795 1.4133,8.787132 c 0,0 -3.53325,-0.585809 -7.77316,-2.929044 -4.2399,-2.343235 -20.49289,-14.059412 -20.49289,-14.059412 l -13.42636,18.745883 -9.18647,47.450519 6.35986,65.61059 c 0,0 9.89312,50.96537 9.18647,53.89441 -0.70665,2.92905 -2.11996,29.29045 -2.11996,29.29045 l -7.77316,8.20132 c 0,0 -23.31949,5.27228 -26.14609,4.10067 -2.82661,-1.17163 -17.66628,-5.27229 -17.66628,-5.27229 z"
         style="fill:#9a5f0c;fill-opacity:1;stroke:none;stroke-width:0.2251897px;stroke-linecap:butt;stroke-linejoin:miter;stroke-opacity:1" />
      <path
         inkscape:connector-curvature="0"
         d="m 156.973,198.68638 c 0.45405,2.3613 0.80854,4.73889 1.25708,7.10148 1.05292,4.08079 1.65575,8.25323 2.54809,12.36906 0.87466,3.88473 1.95496,7.70225 3.77094,11.25834 0.4555,0.96271 1.00396,1.8495 1.65737,2.68544 0,0 -9.50855,5.62452 -9.50855,5.62452 v 0 c -0.63599,-0.9311 -1.20487,-1.89005 -1.61529,-2.94717 -1.63519,-3.72904 -2.76351,-7.62944 -3.64699,-11.60031 -0.93333,-4.09133 -1.61403,-8.23762 -2.72408,-12.28673 -0.53657,-2.29029 -0.9215,-4.61465 -1.61086,-6.8659 0,0 9.87229,-5.33873 9.87229,-5.33873 z"
         id="path4551"
         style="fill:#9a5f0c;fill-opacity:1;stroke:none;stroke-width:1;stroke-linecap:round;stroke-linejoin:round;stroke-miterlimit:4;stroke-dasharray:none;stroke-opacity:1" />
      <path
         inkscape:connector-curvature="0"
         d="m 167.68055,287.08233 c 0.081,-1.11215 0.0731,-2.22858 0.0817,-3.34301 -0.0333,-1.90637 0.35908,-3.77214 0.86633,-5.59803 0.48181,-1.662 1.20741,-3.23426 2.11773,-4.70185 0.34455,-0.53883 0.70027,-1.06974 1.06712,-1.59354 0,0 3.51842,-1.51902 3.51842,-1.51902 v 0 c -0.40389,0.5184 -0.77285,1.05825 -1.14376,1.60083 -0.95998,1.42582 -1.68061,2.98977 -2.21176,4.62463 -0.53124,1.77437 -0.93209,3.60333 -0.8408,5.4682 0.008,1.08664 -10e-4,2.17558 0.0817,3.25979 0,0 -3.53666,1.802 -3.53666,1.802 z"
         id="path4563"
         style="fill:#000000;fill-opacity:0.45581396;stroke:none;stroke-width:1;stroke-linecap:round;stroke-linejoin:round;stroke-miterlimit:4;stroke-dasharray:none;stroke-opacity:1" />
      <path
         inkscape:connector-curvature="0"
         d="m 157.58204,227.30555 c -0.18161,2.2171 -0.46942,4.42371 -0.80442,6.62223 -0.58418,3.74061 -1.52396,7.40392 -2.58581,11.03305 -0.9503,3.03654 -2.11976,6.00144 -3.42332,8.9025 -0.46893,1.05825 -1.01207,2.07939 -1.55921,3.09831 0,0 -3.473,1.55048 -3.473,1.55048 v 0 c 0.6094,-1.03273 1.23089,-2.05949 1.737,-3.14893 1.42792,-2.88832 2.63593,-5.88804 3.64724,-8.94685 1.06763,-3.59091 1.98364,-7.22366 2.50663,-10.93899 0.27789,-2.10618 0.57038,-4.24643 0.42708,-6.37429 0,0 3.52781,-1.79751 3.52781,-1.79751 z"
         id="path4565"
         style="fill:#000000;fill-opacity:0.45581396;stroke:none;stroke-width:1;stroke-linecap:round;stroke-linejoin:round;stroke-miterlimit:4;stroke-dasharray:none;stroke-opacity:1" />
      <path
         inkscape:connector-curvature="0"
         d="m 182.95493,230.11515 c -0.19033,2.32835 0.22422,4.6555 0.56105,6.95192 0.51453,3.00475 1.0154,6.01297 1.62619,8.9999 0.50714,2.37841 1.05945,4.74209 1.85244,7.04255 0.51314,1.18207 1.0131,2.37642 1.73348,3.45005 0.31037,0.45461 0.15671,0.23514 0.46016,0.65898 0,0 -3.35244,1.97171 -3.35244,1.97171 v 0 c -0.2951,-0.44322 -0.14835,-0.21412 -0.43915,-0.68801 -0.68716,-1.13586 -1.18592,-2.36384 -1.65903,-3.60165 -0.72531,-2.35154 -1.19921,-4.76041 -1.71344,-7.16503 -0.60963,-2.99259 -1.11609,-6.00547 -1.63314,-9.01519 -0.37086,-2.26532 -0.78075,-4.53239 -0.9285,-6.82577 0,0 3.49238,-1.77946 3.49238,-1.77946 z"
         id="path4567"
         style="fill:#000000;fill-opacity:0.45581396;stroke:none;stroke-width:1;stroke-linecap:round;stroke-linejoin:round;stroke-miterlimit:4;stroke-dasharray:none;stroke-opacity:1" />
      <path
         inkscape:connector-curvature="0"
         d="m 162.90007,259.45368 c -0.95978,0.79545 -1.86669,1.64596 -2.71391,2.56023 -1.20335,1.40215 -2.04838,3.03702 -2.72792,4.74281 -0.70387,1.73292 -0.88774,3.58595 -1.0044,5.43383 -0.1243,1.98901 -0.0749,3.97454 0.0693,5.95979 0.0588,1.01545 0.25357,2.03065 0.12909,3.04687 -0.12947,0.62274 -0.51926,1.04222 -1.0583,1.35477 -1.23566,0.71646 -2.47929,1.41909 -3.71894,2.12862 -0.77301,0.37066 -1.62251,0.5062 -2.44947,0.70353 -0.87171,0.17537 -1.1113,0.0997 -1.64032,-0.62159 0,0 3.33929,-1.99143 3.33929,-1.99143 v 0 c 0.0714,0.0832 0.12841,0.18129 0.21418,0.24955 0.32785,0.26099 0.82792,0.0596 1.18319,0.003 0.81051,-0.19032 1.63533,-0.34658 2.36787,-0.76624 -0.97368,0.56793 -1.94737,1.13586 -2.92106,1.70379 0.27562,-0.16502 0.6415,-0.31525 0.8696,-0.54825 0.13412,-0.137 0.22134,-0.34403 0.305,-0.51106 0.27164,-0.98113 0.0153,-2.02759 0.0491,-3.03007 -0.0778,-2.00702 -0.1344,-4.01539 -0.0362,-6.02313 0.0909,-1.8732 0.21327,-3.75777 0.9124,-5.52217 0.68321,-1.7281 1.49932,-3.40323 2.67062,-4.86014 0.76324,-0.89474 1.59354,-1.73743 2.49592,-2.49361 0,0 3.66491,-1.51806 3.66491,-1.51806 z"
         id="path4569"
         style="fill:#000000;fill-opacity:0.45581396;stroke:none;stroke-width:1;stroke-linecap:round;stroke-linejoin:round;stroke-miterlimit:4;stroke-dasharray:none;stroke-opacity:1" />
      <path
         inkscape:connector-curvature="0"
         d="m 153.3029,188.4631 c 0.87578,0.33469 1.73231,0.7151 2.55636,1.16238 0.74663,0.41195 1.47619,0.88469 1.99932,1.57349 0.41311,0.54392 0.54566,0.89373 0.85551,1.51854 1.13947,2.66138 1.91365,5.45833 2.70983,8.23589 0.8032,2.79834 1.76982,5.54297 3.17046,8.09932 0.74704,1.14429 1.59731,2.35667 2.81137,3.05495 0.17245,0.0992 0.3591,0.17134 0.53864,0.25701 0.7906,0.3302 1.63422,0.38982 2.47889,0.40015 0.48397,5.3e-4 0.24871,0.02 0.70615,-0.0535 0,0 -3.13346,2.32475 -3.13346,2.32475 v 0 c -0.47922,0.0205 -0.23448,0.0162 -0.73424,0.0113 -0.86963,-0.0407 -1.7228,-0.19689 -2.50962,-0.58947 -0.18511,-0.10377 -0.37822,-0.19441 -0.55533,-0.31132 -1.20781,-0.79731 -2.03106,-2.07199 -2.75246,-3.29078 -0.50917,-0.99677 -0.67333,-1.26896 -1.10707,-2.32875 -0.78635,-1.92137 -1.3623,-3.922 -1.97375,-5.90285 -0.8182,-2.73177 -1.61279,-5.4925 -2.87802,-8.05888 -0.79859,-1.41784 -1.35483,-2.10478 -2.82961,-2.84219 -0.83354,-0.42647 -1.6975,-0.81668 -2.61937,-1.00711 0,0 3.2664,-2.25303 3.2664,-2.25303 z"
         id="path4571"
         style="fill:#000000;fill-opacity:0.45581396;stroke:none;stroke-width:1;stroke-linecap:round;stroke-linejoin:round;stroke-miterlimit:4;stroke-dasharray:none;stroke-opacity:1" />
      <path
         inkscape:connector-curvature="0"
         d="m 178.03386,181.45805 c -1.84223,-1.25565 -3.76336,-2.38915 -5.62432,-3.61773 -2.52799,-1.62345 -5.15233,-3.09243 -7.50803,-4.96561 -0.9272,-0.83026 -1.77196,-1.78646 -2.1702,-2.9894 -0.2337,-0.70594 -0.2709,-1.22756 -0.37434,-1.96525 -0.3223,-3.08502 0.0284,-6.16293 0.5187,-9.20753 0.52076,-2.6546 1.21995,-5.28435 2.11101,-7.83971 0.22488,-0.41819 0.41723,-1.06922 0.87211,-1.33095 2.53319,-1.45758 2.67223,-2.43502 4.54455,-1.84289 0.573,0.20507 1.12902,0.46227 1.58874,0.86452 0,0 -3.32594,2.07412 -3.32594,2.07412 v 0 c -0.42365,-0.35153 -0.93338,-0.5773 -1.46086,-0.72872 -1.50105,-0.23259 -2.50696,1.07231 2.25858,-1.80855 0.11832,-0.0715 -0.24711,0.12866 -0.35363,0.21683 -0.39832,0.32969 -0.45509,0.52339 -0.73506,0.98426 -1.08063,2.53153 -1.84024,5.20382 -2.40238,7.89453 -0.47537,2.98125 -0.75983,5.98914 -0.35207,9.00033 0.11519,0.73929 0.14636,1.15333 0.37881,1.85601 0.37771,1.14178 1.13465,2.06982 1.99933,2.88332 2.26124,1.9365 4.81804,3.45842 7.3466,5.01662 1.94369,1.19954 3.91953,2.35293 5.98182,3.33885 0,0 -3.29342,2.16695 -3.29342,2.16695 z"
         id="path4573"
         style="fill:#000000;fill-opacity:0.45581396;stroke:none;stroke-width:1;stroke-linecap:round;stroke-linejoin:round;stroke-miterlimit:4;stroke-dasharray:none;stroke-opacity:1" />
      <path
         inkscape:connector-curvature="0"
         d="m 166.35518,128.54766 c 0.63941,-2.22644 0.72835,-4.56948 0.86321,-6.86821 0.19326,-3.59776 -0.14009,-7.1781 -0.78008,-10.71451 -0.39119,-1.84438 -0.91497,-3.72998 -2.04511,-5.27442 -0.15384,-0.21022 -0.33259,-0.40104 -0.49888,-0.60156 -0.78834,-0.92429 -1.77241,-1.64962 -2.76433,-2.33927 -0.7433,-0.47475 -1.57737,-0.75724 -2.39535,-1.06965 -0.0929,-0.0293 -0.18587,-0.0585 -0.2788,-0.0878 0,0 3.24483,-2.193718 3.24483,-2.193718 v 0 c 0.0937,0.03639 0.18733,0.07279 0.28099,0.109183 0.81556,0.353634 1.6531,0.671125 2.38956,1.179965 1.00169,0.7253 1.98848,1.48848 2.75184,2.47391 0.16472,0.21784 0.34263,0.42633 0.49417,0.65354 1.09388,1.64008 1.57118,3.58927 1.93067,5.5002 0.54565,3.57843 0.88168,7.18223 0.75821,10.80756 -0.0609,2.23984 -0.11276,4.48286 -0.37229,6.71048 0,0 -3.57864,1.71431 -3.57864,1.71431 z"
         id="path4575"
         style="fill:#000000;fill-opacity:0.45581396;stroke:none;stroke-width:1;stroke-linecap:round;stroke-linejoin:round;stroke-miterlimit:4;stroke-dasharray:none;stroke-opacity:1" />
      <path
         inkscape:connector-curvature="0"
         d="m 166.39308,70.754064 c -0.11668,2.094196 -0.15235,4.191151 -0.2717,6.285765 -0.18404,2.260364 -0.40355,4.539797 -0.99043,6.736241 -0.40498,1.336598 -1.06581,2.565181 -1.94259,3.647223 -0.61702,0.730139 -1.3117,1.390685 -2.07846,1.96074 -1.8813,1.232614 -3.21891,2.352635 -5.30416,2.429647 0,0 3.13662,-2.31431 3.13662,-2.31431 v 0 c 0.32321,-0.03586 0.63696,-0.07442 0.94712,-0.177818 1.22683,-0.408996 3.08955,-1.99916 -2.39056,1.481486 0.8112,-0.515686 1.52243,-1.180422 2.1672,-1.890482 0.93985,-1.021704 1.61933,-2.219068 2.07753,-3.531153 0.7027,-2.176597 1.01052,-4.467561 1.19489,-6.741033 0.0998,-2.03196 0.10321,-4.068162 -0.0556,-6.097823 0,0 3.5101,-1.788483 3.5101,-1.788483 z"
         id="path4577"
         style="fill:#000000;fill-opacity:0.45581396;stroke:none;stroke-width:1;stroke-linecap:round;stroke-linejoin:round;stroke-miterlimit:4;stroke-dasharray:none;stroke-opacity:1" />
      <path
         inkscape:connector-curvature="0"
         d="m 186.35911,84.822156 c 1.03021,-0.432988 2.08612,-0.806326 3.11612,-1.24279 1.98893,-0.813856 3.97156,-1.642251 5.95664,-2.46588 0.82192,-0.359002 1.66772,-0.680503 2.46372,-1.09714 0.21069,-0.110281 0.82373,-0.475615 0.61587,-0.360087 -2.78577,1.548342 -3.51757,2.157415 -2.19404,1.12704 0.89806,-0.763497 1.16627,-1.798198 1.30764,-2.918298 0.0609,-0.796404 0.038,-0.396309 0.0682,-1.200301 0,0 3.40849,-1.723308 3.40849,-1.723308 v 0 c -0.0206,0.817393 -0.006,0.409803 -0.044,1.222777 -0.11774,1.184479 -0.31741,2.322671 -1.20542,3.195037 -2.10961,1.828228 -4.75099,2.965773 -7.30656,4.029469 -2.0063,0.828839 -4.01332,1.656771 -6.00906,2.51047 -1.09357,0.459793 -2.21452,0.862735 -3.27351,1.399495 0,0 3.09597,-2.476484 3.09597,-2.476484 z"
         id="path4579"
         style="fill:#000000;fill-opacity:0.45581396;stroke:none;stroke-width:1;stroke-linecap:round;stroke-linejoin:round;stroke-miterlimit:4;stroke-dasharray:none;stroke-opacity:1" />
      <path
         inkscape:connector-curvature="0"
         d="m 196.79055,63.943581 c -0.49005,-1.157184 -1.10654,-2.25633 -1.62647,-3.401732 -0.49126,-1.127053 -1.00505,-2.246437 -1.33928,-3.432072 -0.0933,-0.329631 -0.13572,-0.664559 -0.15593,-1.004898 0,0 3.49922,-1.7757 3.49922,-1.7757 v 0 c -0.0337,0.31856 -0.002,0.621993 0.0666,0.936521 0.25936,1.18963 0.71513,2.315586 1.20662,3.426952 0.51936,1.151732 1.14901,2.242122 1.80282,3.322386 0,0 -3.45353,1.928543 -3.45353,1.928543 z"
         id="path4581"
         style="fill:#000000;fill-opacity:0.45581396;stroke:none;stroke-width:1;stroke-linecap:round;stroke-linejoin:round;stroke-miterlimit:4;stroke-dasharray:none;stroke-opacity:1" />
      <path
         inkscape:connector-curvature="0"
         d="m 223.07633,79.695796 c 0.16059,0.660812 0.32365,1.32248 0.53581,1.968936 0.19062,0.631976 0.45678,1.228947 0.96862,1.659305 0.53698,0.365009 1.10641,0.685393 1.71545,0.912313 0.36912,0.102394 0.18457,0.05907 0.55346,0.130802 0,0 -3.22356,2.229173 -3.22356,2.229173 v 0 c -0.38799,-0.107919 -0.19429,-0.04629 -0.58084,-0.185754 -0.63008,-0.28008 -1.24067,-0.613955 -1.79401,-1.027133 -0.51653,-0.511903 -0.85413,-1.140458 -1.04699,-1.842257 -0.21823,-0.649115 -0.36498,-1.321281 -0.61832,-1.957858 0,0 3.49038,-1.887527 3.49038,-1.887527 z"
         id="path4583"
         style="fill:#000000;fill-opacity:0.45581396;stroke:none;stroke-width:1;stroke-linecap:round;stroke-linejoin:round;stroke-miterlimit:4;stroke-dasharray:none;stroke-opacity:1" />
      <path
         inkscape:connector-curvature="0"
         d="m 161.74251,61.804486 c -0.92743,-1.478495 -2.21739,-2.676668 -3.47231,-3.870796 -1.71742,-1.547805 -3.53386,-2.973147 -5.4518,-4.262742 -1.38371,-0.897969 -2.6372,-1.687121 -3.69285,-2.972493 -0.74451,-0.996061 -1.20293,-2.16481 -1.6767,-3.305133 0,0 3.34954,-1.870342 3.34954,-1.870342 v 0 c 0.42817,1.115695 0.88243,2.24795 1.58745,3.220355 0.99151,1.197983 2.2609,2.075778 3.54065,2.944704 1.89368,1.342596 3.70617,2.79413 5.4463,4.330835 1.30868,1.211635 2.615,2.429134 3.76684,3.795006 0,0 -3.39712,1.990606 -3.39712,1.990606 z"
         id="path4585"
         style="fill:#000000;fill-opacity:0.45581396;stroke:none;stroke-width:1;stroke-linecap:round;stroke-linejoin:round;stroke-miterlimit:4;stroke-dasharray:none;stroke-opacity:1" />
      <path
         inkscape:connector-curvature="0"
         d="m 133.72178,80.200975 c -1.11513,-0.723492 -2.26948,-1.38649 -3.41489,-2.062408 -1.47775,-0.958768 -3.01129,-1.822535 -4.53828,-2.698602 -1.11994,-0.571683 -2.27816,-1.061141 -3.44184,-1.534906 -0.86544,-0.398354 -1.77973,-0.678797 -2.68183,-0.981705 -0.83152,-0.261093 -1.70264,-0.318217 -2.56767,-0.350784 -0.90624,-0.03696 -1.82018,-0.126757 -2.69945,-0.356325 0,0 3.18061,-2.197743 3.18061,-2.197743 v 0 c 0.87465,0.192667 1.77113,0.253296 2.66462,0.292462 0.88936,0.05544 1.78057,0.142452 2.62646,0.443735 0.89708,0.320998 1.81496,0.589217 2.66983,1.017591 1.15888,0.490921 2.30933,1.008993 3.41303,1.615281 1.50522,0.89413 3.00435,1.798238 4.48637,2.730659 1.18354,0.672073 2.37982,1.331386 3.61502,1.903576 0,0 -3.31198,2.179169 -3.31198,2.179169 z"
         id="path4587"
         style="fill:#000000;fill-opacity:0.45581396;stroke:none;stroke-width:1;stroke-linecap:round;stroke-linejoin:round;stroke-miterlimit:4;stroke-dasharray:none;stroke-opacity:1" />
      <path
         inkscape:connector-curvature="0"
         d="m 96.426461,67.847029 c 0.639651,0.72602 1.551752,1.167575 2.385195,1.636988 0.524586,0.35837 1.093343,0.627692 1.688424,0.842872 0,0 -3.225717,2.160469 -3.225717,2.160469 v 0 c -0.582848,-0.257014 -1.142733,-0.55703 -1.671227,-0.914617 -0.88237,-0.495856 -1.79232,-0.977493 -2.547009,-1.660369 0,0 3.370334,-2.065343 3.370334,-2.065343 z"
         id="path4589"
         style="fill:#000000;fill-opacity:0.45581396;stroke:none;stroke-width:1;stroke-linecap:round;stroke-linejoin:round;stroke-miterlimit:4;stroke-dasharray:none;stroke-opacity:1" />
    </g>
    <g
       id="g4622"
       inkscape:export-xdpi="90"
       inkscape:export-ydpi="90">
      <g
         id="g4617">
        <path
           style="fill:#38cb4a;stroke:none;stroke-width:0.26458332px;stroke-linecap:butt;stroke-linejoin:miter;stroke-opacity:1;fill-opacity:1"
           d="m 125.88395,179.13414 1.87088,-10.42352 -2.67269,-26.19241 5.61266,28.0633 0.53454,-8.55263 c 0,0 0,-13.36347 0,-12.29439 0,1.06907 2.67269,17.10525 2.67269,17.10525 l 1.60362,6.68173 1.33635,-11.49259 3.20723,-14.43255 -1.87088,16.03617 2.40542,15.7689 -4.54358,1.87089 z"
           id="path4611"
           inkscape:connector-curvature="0" />
        <path
           inkscape:connector-curvature="0"
           id="path4613"
           d="m 125.88395,179.7166 1.87088,-7.58401 -2.67269,-19.05723 5.61266,20.41847 0.53454,-6.22278 c 0,0 0,-9.72308 0,-8.94523 0,0.77784 2.67269,12.44555 2.67269,12.44555 l 1.60362,4.86153 1.33635,-8.36185 3.20723,-10.50092 -1.87088,11.66769 2.40542,11.47324 -4.54358,1.36123 z"
           style="fill:#7ae71c;fill-opacity:1;stroke:none;stroke-width:0.22568603px;stroke-linecap:butt;stroke-linejoin:miter;stroke-opacity:1" />
      </g>
    </g>
    <g
       id="g4630"
       transform="translate(-9.8889727,-8.8198945)"
       inkscape:export-xdpi="90"
       inkscape:export-ydpi="90">
      <path
         inkscape:connector-curvature="0"
         id="path4624"
         d="m 172.54613,184.93006 c 0,0 -3.77976,-8.88245 -3.77976,-9.6384 0,-0.75595 -5.85863,-8.12649 -5.85863,-8.12649 l 8.88244,9.44941 c 0,0 3.02381,3.40178 3.02381,2.64583 0,-0.75595 0.75595,-18.89881 0.75595,-18.89881 0,0 1.32292,19.46578 2.07887,19.27679 0.75595,-0.18899 7.74851,-10.20536 7.74851,-10.20536 l -4.91369,10.39435 -0.75595,7.55952 -5.48066,1.32292 z"
         style="fill:#a8e71c;fill-opacity:1;stroke:none;stroke-width:0.26458332px;stroke-linecap:butt;stroke-linejoin:miter;stroke-opacity:1" />
      <path
         style="fill:#cae71c;fill-opacity:1;stroke:none;stroke-width:0.23694764px;stroke-linecap:butt;stroke-linejoin:miter;stroke-opacity:1"
         d="m 172.54613,185.67841 c 0,0 -3.77976,-7.12381 -3.77976,-7.73009 0,-0.60628 -5.85863,-6.51753 -5.85863,-6.51753 l 8.88244,7.57852 c 0,0 3.02381,2.72827 3.02381,2.12199 0,-0.60628 0.75595,-15.15704 0.75595,-15.15704 0,0 1.32292,15.61175 2.07887,15.46018 0.75595,-0.15157 7.74851,-8.1848 7.74851,-8.1848 l -4.91369,8.33637 -0.75595,6.06281 -5.48066,1.061 z"
         id="path4626"
         inkscape:connector-curvature="0" />
    </g>
    <g
       id="g4638"
       inkscape:export-xdpi="90"
       inkscape:export-ydpi="90">
      <path
         inkscape:connector-curvature="0"
         id="path4632"
         d="m 185.01934,182.28422 3.96876,-6.23661 V 162.0625 c 0,0 1.88988,15.11904 2.64583,14.74107 0.75595,-0.37798 1.32292,-7.74851 1.32292,-7.74851 l -0.75596,-6.80358 2.64584,12.47322 3.02381,4.53571 3.02381,-9.26041 5.10267,-5.85864 -4.34672,7.74852 1.32292,7.9375 -1.7009,5.10268 -5.85863,2.26785 -12.6622,-2.07887 -1.32292,-13.04018 z"
         style="fill:#53e71c;stroke:none;stroke-width:0.26458332px;stroke-linecap:butt;stroke-linejoin:miter;stroke-opacity:1;fill-opacity:1" />
      <path
         style="fill:#66bc47;fill-opacity:1;stroke:none;stroke-width:0.23283873px;stroke-linecap:butt;stroke-linejoin:miter;stroke-opacity:1"
         d="m 185.01934,183.39257 3.96876,-4.82985 v -10.83058 c 0,0 1.88988,11.70873 2.64583,11.41602 0.75595,-0.29272 1.32292,-6.00073 1.32292,-6.00073 l -0.75596,-5.26893 2.64584,9.65971 3.02381,3.51261 3.02381,-7.17159 5.10267,-4.53714 -4.34672,6.00073 1.32292,6.14709 -1.7009,3.9517 -5.85863,1.7563 -12.6622,-1.60995 -1.32292,-10.09879 z"
         id="path4634"
         inkscape:connector-curvature="0" />
    </g>
  </g>
</svg>
