<?xml version="1.0" encoding="UTF-8" standalone="no"?>
<!-- Created with Inkscape (http://www.inkscape.org/) -->

<svg
   xmlns:dc="http://purl.org/dc/elements/1.1/"
   xmlns:cc="http://creativecommons.org/ns#"
   xmlns:rdf="http://www.w3.org/1999/02/22-rdf-syntax-ns#"
   xmlns:svg="http://www.w3.org/2000/svg"
   xmlns="http://www.w3.org/2000/svg"
   xmlns:sodipodi="http://sodipodi.sourceforge.net/DTD/sodipodi-0.dtd"
   xmlns:inkscape="http://www.inkscape.org/namespaces/inkscape"
   width="732.48456mm"
   height="753.17792mm"
   viewBox="0 0 732.48456 753.17792"
   version="1.1"
   id="svg8"
   inkscape:version="0.92.1 r15371"
   sodipodi:docname="Ogum.svg"
   inkscape:export-filename="C:\Users\Ghuide\Desktop\learning\0.0 fatec\0.0 the toekoms of orixás\1.0 artwork and animations\2.0 NPC\0.0 elder\elder.png"
   inkscape:export-xdpi="25"
   inkscape:export-ydpi="25"
   style="enable-background:new">
  <defs
     id="defs2">
    <inkscape:path-effect
       effect="skeletal"
       id="path-effect4638-1"
       is_visible="true"
       pattern="m 942.00856,771.3434 c 0,-2.76 2.24,-5 5,-5 2.76,0 5,2.24 5,5 0,2.76 -2.24,5 -5,5 -2.76,0 -5,-2.24 -5,-5 z"
       copytype="single_stretched"
       prop_scale="0.26458333"
       scale_y_rel="false"
       spacing="0"
       normal_offset="0"
       tang_offset="0"
       prop_units="false"
       vertical_pattern="false"
       fuse_tolerance="0" />
    <inkscape:path-effect
       effect="skeletal"
       id="path-effect4629-7"
       is_visible="true"
       pattern="m 916.68064,690.04937 c 0,-2.76 2.24,-5 5,-5 2.76,0 5,2.24 5,5 0,2.76 -2.24,5 -5,5 -2.76,0 -5,-2.24 -5,-5 z"
       copytype="single_stretched"
       prop_scale="0.26458333"
       scale_y_rel="false"
       spacing="0"
       normal_offset="0"
       tang_offset="0"
       prop_units="false"
       vertical_pattern="false"
       fuse_tolerance="0" />
    <inkscape:path-effect
       effect="skeletal"
       id="path-effect4646"
       is_visible="true"
       pattern="m 559.60135,316.42716 c 0,-2.76 2.24,-5 5,-5 2.76,0 5,2.24 5,5 0,2.76 -2.24,5 -5,5 -2.76,0 -5,-2.24 -5,-5 z"
       copytype="single_stretched"
       prop_scale="0.26458333"
       scale_y_rel="false"
       spacing="0"
       normal_offset="0"
       tang_offset="0"
       prop_units="false"
       vertical_pattern="false"
       fuse_tolerance="0" />
    <inkscape:path-effect
       effect="skeletal"
       id="path-effect4642"
       is_visible="true"
       pattern="m 566.08879,314.03916 c 0,-2.76 2.24,-5 5,-5 2.76,0 5,2.24 5,5 0,2.76 -2.24,5 -5,5 -2.76,0 -5,-2.24 -5,-5 z"
       copytype="single_stretched"
       prop_scale="0.26458333"
       scale_y_rel="false"
       spacing="0"
       normal_offset="0"
       tang_offset="0"
       prop_units="false"
       vertical_pattern="false"
       fuse_tolerance="0" />
    <inkscape:path-effect
       effect="skeletal"
       id="path-effect4638"
       is_visible="true"
       pattern="m 552.80144,303.14608 c 0,-2.76 2.24,-5 5,-5 2.76,0 5,2.24 5,5 0,2.76 -2.24,5 -5,5 -2.76,0 -5,-2.24 -5,-5 z"
       copytype="single_stretched"
       prop_scale="0.26458333"
       scale_y_rel="false"
       spacing="0"
       normal_offset="0"
       tang_offset="0"
       prop_units="false"
       vertical_pattern="false"
       fuse_tolerance="0" />
    <inkscape:path-effect
       effect="skeletal"
       id="path-effect4634"
       is_visible="true"
       pattern="m 581.79325,312.09281 c 0,-2.76 2.24,-5 5,-5 2.76,0 5,2.24 5,5 0,2.76 -2.24,5 -5,5 -2.76,0 -5,-2.24 -5,-5 z"
       copytype="single_stretched"
       prop_scale="0.26458333"
       scale_y_rel="false"
       spacing="0"
       normal_offset="0"
       tang_offset="0"
       prop_units="false"
       vertical_pattern="false"
       fuse_tolerance="0" />
    <inkscape:path-effect
       effect="skeletal"
       id="path-effect4629"
       is_visible="true"
       pattern="m 581.79325,312.09281 c 0,-2.76 2.24,-5 5,-5 2.76,0 5,2.24 5,5 0,2.76 -2.24,5 -5,5 -2.76,0 -5,-2.24 -5,-5 z"
       copytype="single_stretched"
       prop_scale="0.26458333"
       scale_y_rel="false"
       spacing="0"
       normal_offset="0"
       tang_offset="0"
       prop_units="false"
       vertical_pattern="false"
       fuse_tolerance="0" />
  </defs>
  <sodipodi:namedview
     id="base"
     pagecolor="#ffffff"
     bordercolor="#666666"
     borderopacity="1.0"
     inkscape:pageopacity="0.0"
     inkscape:pageshadow="2"
     inkscape:zoom="0.22491384"
     inkscape:cx="1511.2244"
     inkscape:cy="1519.053"
     inkscape:document-units="px"
     inkscape:current-layer="layer1"
     showgrid="false"
     inkscape:measure-start="0,0"
     inkscape:measure-end="0,0"
     inkscape:window-width="1024"
     inkscape:window-height="719"
     inkscape:window-x="-4"
     inkscape:window-y="-4"
     inkscape:window-maximized="1"
     units="mm"
     inkscape:pagecheckerboard="false"
     fit-margin-top="0"
     fit-margin-left="0"
     fit-margin-right="0"
     fit-margin-bottom="0"
     objecttolerance="1"
     guidetolerance="1" />
  <metadata
     id="metadata5">
    <rdf:RDF>
      <cc:Work
         rdf:about="">
        <dc:format>image/svg+xml</dc:format>
        <dc:type
           rdf:resource="http://purl.org/dc/dcmitype/StillImage" />
        <dc:title></dc:title>
      </cc:Work>
    </rdf:RDF>
  </metadata>
  <g
     inkscape:label="Camada 1"
     inkscape:groupmode="layer"
     id="layer1"
     transform="translate(271.81332,268.36891)">
    <g
       id="g4549"
       transform="rotate(-40.529415,108.55578,38.775528)"
       inkscape:export-filename="J:\Autorun.inf\Games\the toekoms of orixás\Assest\Boss\2-Ogum\Inkscape\Parts\g4549.png"
       inkscape:export-xdpi="25"
       inkscape:export-ydpi="25">
      <rect
         inkscape:export-ydpi="25"
         inkscape:export-xdpi="25"
         transform="rotate(51.183996)"
         ry="42.332954"
         rx="48.347271"
         y="-84.29879"
         x="61.41256"
         height="149.02815"
         width="70.879234"
         id="rect4965-39-7"
         style="opacity:1;fill:#784421;fill-opacity:1;fill-rule:nonzero;stroke:none;stroke-width:8.5404253;stroke-linecap:round;stroke-linejoin:miter;stroke-miterlimit:4;stroke-dasharray:none;stroke-opacity:0.89803922;paint-order:normal;enable-background:new" />
      <path
         inkscape:export-ydpi="25"
         inkscape:export-xdpi="25"
         inkscape:connector-curvature="0"
         id="path5078-3-7-5-6"
         d="M 120.93716,0.20743707 A 48.031866,41.845793 25.452191 0 0 60.644842,15.415004 L 147.19035,56.606468 A 48.031866,41.845793 25.452191 0 0 120.93716,0.20743707 Z"
         style="opacity:1;fill:#483e37;fill-opacity:1;fill-rule:nonzero;stroke:none;stroke-width:6.72048187;stroke-linecap:round;stroke-linejoin:miter;stroke-miterlimit:4;stroke-dasharray:none;stroke-opacity:0.89803922;paint-order:normal;enable-background:new" />
    </g>
    <rect
       style="opacity:1;fill:#784421;fill-opacity:1;fill-rule:nonzero;stroke:none;stroke-width:7.28796816;stroke-linecap:round;stroke-linejoin:miter;stroke-miterlimit:4;stroke-dasharray:none;stroke-opacity:0.89803922;paint-order:normal;enable-background:new"
       id="rect4965-2-3-9"
       width="60.484764"
       height="127.17308"
       x="104.88535"
       y="74.12442"
       rx="41.257118"
       ry="36.124809"
       transform="rotate(24.479085)"
       inkscape:export-xdpi="25"
       inkscape:export-ydpi="25"
       inkscape:export-filename="J:\Autorun.inf\Games\the toekoms of orixás\Assest\Boss\2-Ogum\Inkscape\Parts\rect4965-2-3-9.png" />
    <g
       id="g4603"
       inkscape:export-filename="J:\Autorun.inf\Games\the toekoms of orixás\Assest\Boss\2-Ogum\Inkscape\Parts\g4603.png"
       inkscape:export-xdpi="25"
       inkscape:export-ydpi="25">
      <path
         inkscape:export-ydpi="25"
         inkscape:export-xdpi="25"
         inkscape:connector-curvature="0"
         id="path4815"
         d="m 217.74689,254.01232 h -49.81251 l 0.47649,17.95147 c 0.53183,20.04233 12.0563,35.74124 25.84002,35.19924 13.78375,-0.54195 24.45212,-17.11322 23.92029,-37.15555 z"
         style="opacity:1;fill:#c87137;fill-opacity:1;fill-rule:nonzero;stroke:none;stroke-width:6.61865807;stroke-linecap:round;stroke-linejoin:miter;stroke-miterlimit:4;stroke-dasharray:none;stroke-opacity:0.89803922;paint-order:normal;enable-background:new" />
      <path
         inkscape:export-ydpi="25"
         inkscape:export-xdpi="25"
         inkscape:connector-curvature="0"
         id="path4813"
         d="m 217.32586,237.18951 h -49.81252 l 0.42104,17.60951 h 49.81251 z"
         style="opacity:1;fill:#6c5d53;fill-opacity:1;fill-rule:nonzero;stroke:none;stroke-width:6.97386932;stroke-linecap:round;stroke-linejoin:miter;stroke-miterlimit:4;stroke-dasharray:none;stroke-opacity:0.89803922;paint-order:normal;enable-background:new" />
      <path
         inkscape:export-ydpi="25"
         inkscape:export-xdpi="25"
         inkscape:connector-curvature="0"
         id="rect4965-0-6-7-2"
         d="m 190.87158,179.80434 c -13.78372,0.54196 -24.45207,17.11389 -23.92028,37.15622 l 0.56204,21.19044 h 49.81252 l -0.61425,-23.14742 c -0.53183,-20.04231 -12.05629,-35.7412 -25.84003,-35.19924 z"
         style="opacity:1;fill:#c87137;fill-opacity:1;fill-rule:nonzero;stroke:none;stroke-width:6.61865807;stroke-linecap:round;stroke-linejoin:miter;stroke-miterlimit:4;stroke-dasharray:none;stroke-opacity:0.89803922;paint-order:normal;enable-background:new" />
    </g>
    <rect
       style="opacity:1;fill:#784421;fill-opacity:1;fill-rule:nonzero;stroke:none;stroke-width:6.61892796;stroke-linecap:round;stroke-linejoin:miter;stroke-miterlimit:4;stroke-dasharray:none;stroke-opacity:0.89803922;paint-order:normal;enable-background:new"
       id="rect4965-0-8-7"
       width="49.799225"
       height="127.40338"
       x="98.457077"
       y="170.99628"
       rx="33.968433"
       ry="36.19022"
       transform="matrix(0.99999636,-0.00269756,-0.01007231,0.99994927,0,0)"
       inkscape:export-xdpi="25"
       inkscape:export-ydpi="25"
       inkscape:export-filename="J:\Autorun.inf\Games\the toekoms of orixás\Assest\Boss\2-Ogum\Inkscape\Parts\rect4965-0-8-7.png" />
    <g
       id="g4570"
       inkscape:export-filename="J:\Autorun.inf\Games\the toekoms of orixás\Assest\Boss\2-Ogum\Inkscape\Parts\g4570.png"
       inkscape:export-xdpi="25"
       inkscape:export-ydpi="25">
      <path
         inkscape:export-ydpi="25"
         inkscape:export-xdpi="25"
         inkscape:connector-curvature="0"
         id="path4775"
         d="M 226.46052,178.68811 H 89.619225 v 12.49704 c 0,23.45238 21.562045,42.33322 48.346425,42.33322 h 40.1465 c 26.78438,0 48.34837,-18.88084 48.34837,-42.33322 z"
         style="opacity:1;fill:#4d4d4d;fill-opacity:1;fill-rule:nonzero;stroke:none;stroke-width:8.5404253;stroke-linecap:round;stroke-linejoin:miter;stroke-miterlimit:4;stroke-dasharray:none;stroke-opacity:0.89803922;paint-order:normal;enable-background:new" />
      <path
         inkscape:export-ydpi="25"
         inkscape:export-xdpi="25"
         inkscape:connector-curvature="0"
         id="path4958-2-0"
         d="m 114.26537,51.760211 c -3.34802,0 -6.61554,0.294241 -9.7685,0.856423 -3.15299,0.562069 -6.192965,1.390678 -9.087035,2.458959 -2.04009,0.753008 -3.90616,1.763929 -5.79061,2.744811 V 130.23073 H 226.46052 V 55.579518 c -0.37,-0.146552 -0.69018,-0.365331 -1.0653,-0.503925 -2.89404,-1.068281 -5.93405,-1.89689 -9.087,-2.458959 -3.15296,-0.562043 -6.42048,-0.856423 -9.76851,-0.856423 z"
         style="opacity:1;fill:#4d4d4d;fill-opacity:1;fill-rule:nonzero;stroke:none;stroke-width:8.5404253;stroke-linecap:round;stroke-linejoin:miter;stroke-miterlimit:4;stroke-dasharray:none;stroke-opacity:0.89803922;paint-order:normal;enable-background:new" />
      <path
         inkscape:export-ydpi="25"
         inkscape:export-xdpi="25"
         inkscape:connector-curvature="0"
         id="path4773"
         d="M 226.46052,129.87534 H 89.619225 v 49.11323 H 226.46052 Z"
         style="opacity:1;fill:#483e37;fill-opacity:1;fill-rule:nonzero;stroke:none;stroke-width:8.59802723;stroke-linecap:round;stroke-linejoin:miter;stroke-miterlimit:4;stroke-dasharray:none;stroke-opacity:0.89803922;paint-order:normal;enable-background:new" />
      <path
         inkscape:export-ydpi="25"
         inkscape:export-xdpi="25"
         inkscape:connector-curvature="0"
         id="path4963-4-9"
         d="m 197.96625,56.606468 h 8.57356 c 3.34803,0 6.61566,0.294456 9.76861,0.856613 3.15297,0.562057 6.193,1.390501 9.08707,2.458719 0.37505,0.138303 0.69476,0.357651 1.06493,0.504039 v -37.11974 c 0,-10.99582 -4.86432,-20.8908449 -12.6604,-28.4018929 0.11495,0.690937 0.31323,1.297734 0.39291,2.020945 0.23582,2.14275097 0.31686,4.423843 0.23902,6.808212 -0.0778,2.384356 -0.3146,4.871938 -0.71224,7.4352959 -0.39797,2.563409 -0.95752,5.20041 -1.68256,7.88022 -0.72503,2.679784 -1.61504,5.402187 -2.67405,8.135744 z"
         style="opacity:1;fill:#c87137;fill-opacity:1;fill-rule:nonzero;stroke:none;stroke-width:8.5404253;stroke-linecap:round;stroke-linejoin:miter;stroke-miterlimit:4;stroke-dasharray:none;stroke-opacity:0.89803922;paint-order:normal;enable-background:new" />
      <path
         inkscape:export-ydpi="25"
         inkscape:export-xdpi="25"
         inkscape:connector-curvature="0"
         id="path4961-4-9"
         d="m 189.69084,-17.680431 c -3.72552,-0.800377 -7.56371,-1.346517 -11.57892,-1.346517 h -40.14644 c -26.78442,0 -48.346125,18.88057407 -48.346125,42.333047 v 39.360784 c 1.88443,-0.980952 3.75055,-1.992012 5.79064,-2.745083 2.89403,-1.068218 5.934145,-1.896662 9.087095,-2.458719 3.15295,-0.562081 6.42056,-0.856613 9.76859,-0.856613 h 36.91391 c 0.6346,-2.164363 1.29598,-4.336332 2.14638,-6.53134 l 15.0244,-38.778662 c 1.05901,-2.7335699 2.23514,-5.3451179 3.50471,-7.8139669 1.2696,-2.468798 2.63262,-4.794859 4.06552,-6.957253 1.43289,-2.162456 2.93541,-4.160866 4.48438,-5.975233 1.54897,-1.8144181 3.14352,-3.4453861 4.76124,-4.8701571 1.49483,-1.316454 3.00991,-2.41068 4.52462,-3.360287 z"
         style="opacity:1;fill:#a05a2c;fill-opacity:1;fill-rule:nonzero;stroke:none;stroke-width:8.5404253;stroke-linecap:round;stroke-linejoin:miter;stroke-miterlimit:4;stroke-dasharray:none;stroke-opacity:0.89803922;paint-order:normal;enable-background:new" />
      <path
         inkscape:export-ydpi="25"
         inkscape:export-xdpi="25"
         inkscape:connector-curvature="0"
         id="rect4877-8-1"
         d="m 189.69084,-17.680431 c -1.67155,0.949607 -3.34365,2.043833 -4.99335,3.360287 -1.78525,1.424771 -3.54501,3.055739 -5.25444,4.8701571 -1.70932,1.814367 -3.36755,3.812777 -4.94887,5.975233 -1.58132,2.162394 -3.08554,4.488455 -4.48669,6.957253 -1.40105,2.468849 -2.69896,5.080397 -3.86766,7.8139669 l -16.5808,38.778662 c -0.93843,2.195008 -1.66835,4.366977 -2.36868,6.53134 h 51.63309 l 12.57728,-29.421845 c 1.16874,-2.733557 2.15085,-5.45596 2.95105,-8.135744 0.80014,-2.67981 1.41763,-5.316811 1.85678,-7.88022 0.43915,-2.5633579 0.70034,-5.0509399 0.78613,-7.4352959 0.0862,-2.384369 -0.004,-4.66546103 -0.26423,-6.808212 -0.0875,-0.723211 -0.30636,-1.330008 -0.43367,-2.020945 -6.99585,-6.1073851 -16.1506,-10.5491411 -26.60651,-12.5846371 z"
         style="opacity:1;fill:#4d4d4d;fill-opacity:1;fill-rule:nonzero;stroke:none;stroke-width:8.9718647;stroke-linecap:round;stroke-linejoin:miter;stroke-miterlimit:4;stroke-dasharray:none;stroke-opacity:0.89803922;paint-order:normal;enable-background:new" />
    </g>
    <g
       id="g4637"
       transform="rotate(-12.512695,124.60451,23.574235)">
      <g
         id="g4641">
        <g
           id="g4645"
           inkscape:export-filename="J:\Autorun.inf\Games\the toekoms of orixás\Assest\Boss\2-Ogum\Inkscape\Parts\back lower leg.png"
           inkscape:export-xdpi="25"
           inkscape:export-ydpi="25">
          <rect
             inkscape:export-ydpi="25"
             inkscape:export-xdpi="25"
             ry="24.899612"
             transform="matrix(0.97856469,0.20593966,-0.21841885,0.97585512,0,0)"
             y="214.39081"
             x="98.226212"
             height="127.40338"
             width="49.799225"
             id="rect4965-0-9-5-8"
             style="opacity:1;fill:#784421;fill-opacity:1;fill-rule:nonzero;stroke:none;stroke-width:6.61892796;stroke-linecap:round;stroke-linejoin:miter;stroke-miterlimit:4;stroke-dasharray:none;stroke-opacity:0.89803922;paint-order:normal;enable-background:new" />
          <ellipse
             inkscape:export-ydpi="25"
             inkscape:export-xdpi="25"
             transform="rotate(12.837827)"
             ry="23.929312"
             rx="21.808994"
             cy="240.56561"
             cx="113.63863"
             id="path5030-5-9"
             style="opacity:1;fill:#784421;fill-opacity:1;fill-rule:nonzero;stroke:none;stroke-width:8.5404253;stroke-linecap:round;stroke-linejoin:miter;stroke-miterlimit:4;stroke-dasharray:none;stroke-opacity:0.89803922;paint-order:normal;enable-background:new" />
        </g>
      </g>
    </g>
    <g
       id="g4545"
       transform="rotate(-92.832517,190.94966,42.237894)"
       inkscape:export-filename="J:\Autorun.inf\Games\the toekoms of orixás\Assest\Boss\2-Ogum\Inkscape\Parts\g4545.png"
       inkscape:export-xdpi="25"
       inkscape:export-ydpi="25">
      <rect
         inkscape:export-ydpi="25"
         inkscape:export-xdpi="25"
         transform="rotate(96.499534)"
         ry="36.124809"
         rx="41.257118"
         y="-125.5038"
         x="58.105331"
         height="127.17308"
         width="60.484764"
         id="rect4965-2-3-98"
         style="opacity:1;fill:#c87137;fill-opacity:1;fill-rule:nonzero;stroke:none;stroke-width:7.28796816;stroke-linecap:round;stroke-linejoin:miter;stroke-miterlimit:4;stroke-dasharray:none;stroke-opacity:0.89803922;paint-order:normal;enable-background:new" />
      <rect
         inkscape:export-ydpi="25"
         inkscape:export-xdpi="25"
         transform="rotate(-171.35679)"
         ry="4.4946642"
         rx="8.0609474"
         y="-108.50092"
         x="-94.853912"
         height="4.4946642"
         width="67.995506"
         id="rect4725-9-2-2-5-4-9"
         style="opacity:1;fill:#d38d5f;fill-opacity:1;fill-rule:nonzero;stroke:none;stroke-width:2.59225082;stroke-linecap:round;stroke-linejoin:miter;stroke-miterlimit:4;stroke-dasharray:none;stroke-opacity:0.89803922;paint-order:normal;enable-background:new" />
    </g>
    <path
       style="opacity:1;fill:#916f6f;fill-opacity:1;fill-rule:nonzero;stroke:none;stroke-width:5.60678959;stroke-linecap:round;stroke-linejoin:miter;stroke-miterlimit:4;stroke-dasharray:none;stroke-opacity:0.89803922;paint-order:normal;enable-background:new"
       d="m 108.66957,335.79331 a 34.911273,40.072213 89.030472 0 0 -39.401057,33.74476 l 79.952997,-1.35304 a 34.911273,40.072213 89.030472 0 0 -40.55194,-32.39172 z"
       id="path5078-5-1"
       inkscape:connector-curvature="0"
       inkscape:export-xdpi="25"
       inkscape:export-ydpi="25"
       inkscape:export-filename="J:\Autorun.inf\Games\the toekoms of orixás\Assest\Boss\2-Ogum\Inkscape\Parts\path5078-5-1.png" />
    <g
       id="g4619"
       transform="rotate(58.631694,184.0803,282.23749)"
       inkscape:export-filename="J:\Autorun.inf\Games\the toekoms of orixás\Assest\Boss\2-Ogum\Inkscape\Parts\g4619.png"
       inkscape:export-xdpi="25"
       inkscape:export-ydpi="25">
      <g
         id="g4633">
        <path
           inkscape:export-ydpi="25"
           inkscape:export-xdpi="25"
           inkscape:connector-curvature="0"
           id="rect4965-0-9-7-6-5"
           d="m 194.36504,258.59658 c -13.78998,0.34717 -24.75372,11.73054 -24.5827,25.52394 l 0.41436,33.41943 49.79371,-0.42476 -0.42466,-34.24778 c -0.17098,-13.79333 -11.41066,-24.61798 -25.20071,-24.27083 z"
           style="opacity:1;fill:#c87137;fill-opacity:1;fill-rule:nonzero;stroke:none;stroke-width:6.61865807;stroke-linecap:round;stroke-linejoin:miter;stroke-miterlimit:4;stroke-dasharray:none;stroke-opacity:0.89803922;paint-order:normal;enable-background:new"
           transform="rotate(-58.631694,184.08031,282.23749)" />
        <ellipse
           inkscape:export-ydpi="25"
           inkscape:export-xdpi="25"
           transform="rotate(-59.120455,181.49788,280.8891)"
           ry="23.929312"
           rx="21.808994"
           cy="291.89697"
           cx="182.81197"
           id="path5030-8-6-3"
           style="opacity:1;fill:#c87137;fill-opacity:1;fill-rule:nonzero;stroke:none;stroke-width:8.5404253;stroke-linecap:round;stroke-linejoin:miter;stroke-miterlimit:4;stroke-dasharray:none;stroke-opacity:0.89803922;paint-order:normal;enable-background:new" />
        <path
           style="opacity:1;fill:#c87137;fill-opacity:1;fill-rule:nonzero;stroke:none;stroke-width:6.61865807;stroke-linecap:round;stroke-linejoin:miter;stroke-miterlimit:4;stroke-dasharray:none;stroke-opacity:0.89803922;paint-order:normal;enable-background:new"
           d="m 255.66111,283.42907 -25.55682,42.73696 14.89811,8.83153 c 11.86634,7.03385 26.96004,3.07201 33.84183,-8.88313 6.88181,-11.95518 2.86903,-27.24278 -8.99729,-34.27669 z"
           id="path4795"
           inkscape:connector-curvature="0"
           inkscape:export-xdpi="25"
           inkscape:export-ydpi="25" />
        <rect
           style="opacity:1;fill:#d38d5f;fill-opacity:1;fill-rule:nonzero;stroke:none;stroke-width:1.94150174;stroke-linecap:round;stroke-linejoin:miter;stroke-miterlimit:4;stroke-dasharray:none;stroke-opacity:0.89803922;paint-order:normal;enable-background:new"
           id="rect4725-9-2-2-5-8-0-0"
           width="50.926167"
           height="3.3663397"
           x="324.24777"
           y="120.83336"
           rx="6.0373559"
           ry="3.3663397"
           transform="rotate(30.341025)"
           inkscape:export-xdpi="25"
           inkscape:export-ydpi="25" />
        <path
           style="opacity:1;fill:#483e37;fill-opacity:1;fill-rule:nonzero;stroke:none;stroke-width:6.84327412;stroke-linecap:round;stroke-linejoin:miter;stroke-miterlimit:4;stroke-dasharray:none;stroke-opacity:0.89803922;paint-order:normal;enable-background:new"
           d="m 231.91625,269.35052 -25.55681,42.73692 24.69966,14.64963 25.55682,-42.73696 z"
           id="path4793"
           inkscape:connector-curvature="0"
           inkscape:export-xdpi="25"
           inkscape:export-ydpi="25" />
      </g>
    </g>
    <path
       style="opacity:1;fill:#ac9393;fill-opacity:1;fill-rule:nonzero;stroke:none;stroke-width:5.60678959;stroke-linecap:round;stroke-linejoin:miter;stroke-miterlimit:4;stroke-dasharray:none;stroke-opacity:0.89803922;paint-order:normal;enable-background:new"
       d="m 186.55502,354.11696 a 40.072213,34.911273 0.315469 0 0 -40.14789,32.8527 l 79.96335,0.44029 a 40.072213,34.911273 0.315469 0 0 -39.81546,-33.29299 z"
       id="path5078-3-7-8"
       inkscape:connector-curvature="0"
       inkscape:export-xdpi="25"
       inkscape:export-ydpi="25"
       inkscape:export-filename="J:\Autorun.inf\Games\the toekoms of orixás\Assest\Boss\2-Ogum\Inkscape\Parts\path5078-3-7-8.png" />
    <g
       id="g4583"
       transform="rotate(-57.210259,16.325525,129.66815)"
       inkscape:export-filename="J:\Autorun.inf\Games\the toekoms of orixás\Assest\Boss\2-Ogum\Inkscape\Parts\g4583.png"
       inkscape:export-xdpi="25"
       inkscape:export-ydpi="25">
      <path
         inkscape:export-ydpi="25"
         inkscape:export-xdpi="25"
         inkscape:connector-curvature="0"
         id="path4631-0"
         d="m -175.85649,-59.226123 a 65.03485,32.10581 58.918909 0 0 -5.4778,2.019214 65.03485,32.10581 58.918909 0 0 6.07818,72.272573 65.03485,32.10581 58.918909 0 0 61.07036,39.123922 65.03485,32.10581 58.918909 0 0 5.15011,-5.033509 65.03485,32.10581 58.918909 0 1 -0.65444,0.163554 65.03485,32.10581 58.918909 0 1 -3.49307,0.227572 65.03485,32.10581 58.918909 0 1 -3.73269,-0.352043 65.03485,32.10581 58.918909 0 1 -3.93474,-0.929952 65.03485,32.10581 58.918909 0 1 -4.09732,-1.498097 65.03485,32.10581 58.918909 0 1 -4.21908,-2.050376 65.03485,32.10581 58.918909 0 1 -4.29835,-2.582635 65.03485,32.10581 58.918909 0 1 -4.33545,-3.089276 65.03485,32.10581 58.918909 0 1 -4.32878,-3.565058 65.03485,32.10581 58.918909 0 1 -4.27833,-4.004765 65.03485,32.10581 58.918909 0 1 -4.18609,-4.405591 65.03485,32.10581 58.918909 0 1 -4.05193,-4.76088 65.03485,32.10581 58.918909 0 1 -3.87602,-5.06966 65.03485,32.10581 58.918909 0 1 -3.66296,-5.326866 65.03485,32.10581 58.918909 0 1 -2.4439,-3.8987089 65.03485,32.10581 58.918909 0 1 -3.21414,-5.643136 65.03485,32.10581 58.918909 0 1 -2.90796,-5.752285 65.03485,32.10581 58.918909 0 1 -2.57156,-5.804896 65.03485,32.10581 58.918909 0 1 -2.20996,-5.7980241 65.03485,32.10581 58.918909 0 1 -1.82652,-5.733452 65.03485,32.10581 58.918909 0 1 -1.42459,-5.612908 65.03485,32.10581 58.918909 0 1 -1.00847,-5.434613 65.03485,32.10581 58.918909 0 1 -0.58226,-5.203037 65.03485,32.10581 58.918909 0 1 -0.14954,-4.918864 65.03485,32.10581 58.918909 0 1 0.28345,-4.58616 65.03485,32.10581 58.918909 0 1 0.71423,-4.207856 65.03485,32.10581 58.918909 0 1 1.13756,-3.786288 65.03485,32.10581 58.918909 0 1 1.55037,-3.327773 65.03485,32.10581 58.918909 0 1 0.98164,-1.430101 z"
         style="opacity:1;fill:#483737;fill-opacity:1;fill-rule:nonzero;stroke:none;stroke-width:2.64072824;stroke-linecap:round;stroke-linejoin:miter;stroke-miterlimit:4;stroke-dasharray:none;stroke-opacity:1;paint-order:normal;enable-background:new" />
      <path
         inkscape:export-ydpi="25"
         inkscape:export-xdpi="25"
         inkscape:connector-curvature="0"
         id="path4598-1"
         d="m -176.42894,-58.881053 a 65.03485,32.10581 58.918909 0 0 -0.98167,1.430113 65.03485,32.10581 58.918909 0 0 -1.55035,3.327774 65.03485,32.10581 58.918909 0 0 -1.13756,3.786288 65.03485,32.10581 58.918909 0 0 -0.71425,4.207843 65.03485,32.10581 58.918909 0 0 -0.28345,4.586172 65.03485,32.10581 58.918909 0 0 0.14955,4.918864 65.03485,32.10581 58.918909 0 0 0.58226,5.203025 65.03485,32.10581 58.918909 0 0 1.00846,5.434613 65.03485,32.10581 58.918909 0 0 1.42461,5.612908 65.03485,32.10581 58.918909 0 0 1.8265,5.733464 65.03485,32.10581 58.918909 0 0 2.20998,5.7980251 65.03485,32.10581 58.918909 0 0 2.57154,5.80487 65.03485,32.10581 58.918909 0 0 2.90798,5.752298 65.03485,32.10581 58.918909 0 0 3.21412,5.643149 65.03485,32.10581 58.918909 0 0 2.4439,3.8987089 65.03485,32.10581 58.918909 0 0 3.66296,5.326865 65.03485,32.10581 58.918909 0 0 3.87602,5.069648 65.03485,32.10581 58.918909 0 0 4.05195,4.760855 65.03485,32.10581 58.918909 0 0 4.18607,4.405617 65.03485,32.10581 58.918909 0 0 4.27833,4.004777 65.03485,32.10581 58.918909 0 0 4.32881,3.565045 65.03485,32.10581 58.918909 0 0 4.33543,3.089276 65.03485,32.10581 58.918909 0 0 4.29835,2.58266 65.03485,32.10581 58.918909 0 0 4.21909,2.050364 65.03485,32.10581 58.918909 0 0 4.09733,1.498109 65.03485,32.10581 58.918909 0 0 3.93471,0.929939 65.03485,32.10581 58.918909 0 0 3.73269,0.352043 65.03485,32.10581 58.918909 0 0 3.49307,-0.227583 65.03485,32.10581 58.918909 0 0 0.65445,-0.163542 65.03485,32.10581 58.918909 0 0 -11.22773,-67.239406 65.03485,32.10581 58.918909 0 0 -55.59311,-41.14282 z"
         style="opacity:1;fill:#6c5353;fill-opacity:1;fill-rule:nonzero;stroke:none;stroke-width:2.64072824;stroke-linecap:round;stroke-linejoin:miter;stroke-miterlimit:4;stroke-dasharray:none;stroke-opacity:1;paint-order:normal;enable-background:new" />
      <rect
         inkscape:export-ydpi="25"
         inkscape:export-xdpi="25"
         transform="rotate(-31.081091)"
         ry="4.1461792"
         y="-137.70636"
         x="-59.003788"
         height="16.700754"
         width="19.080341"
         id="rect4655-0"
         style="opacity:1;fill:#916f6f;fill-opacity:1;fill-rule:nonzero;stroke:none;stroke-width:1.30080962;stroke-linecap:round;stroke-linejoin:miter;stroke-miterlimit:4;stroke-dasharray:none;stroke-opacity:1;paint-order:normal;enable-background:new" />
      <rect
         inkscape:export-ydpi="25"
         inkscape:export-xdpi="25"
         transform="rotate(-31.081091)"
         ry="32.261715"
         y="-63.542976"
         x="-65.707474"
         height="165.44469"
         width="31.990515"
         id="rect4817-3"
         style="opacity:1;fill:#502d16;fill-opacity:1;fill-rule:nonzero;stroke:none;stroke-width:8.85272217;stroke-linecap:round;stroke-linejoin:miter;stroke-miterlimit:4;stroke-dasharray:none;stroke-opacity:0.89803922;paint-order:normal;enable-background:new" />
      <path
         inkscape:export-ydpi="25"
         inkscape:export-xdpi="25"
         inkscape:connector-curvature="0"
         id="path4868-3"
         d="m -4.5560244,104.50788 3.465319,1.91474 10.39146,-6.26387 -0.228897,-12.131187 -10.620396,-5.867321 -0.154118,0.09284 7.155064,3.952558 0.228266,12.131604 z"
         style="opacity:1;fill:#aa0000;fill-opacity:1;fill-rule:nonzero;stroke:none;stroke-width:2.41926146;stroke-linecap:round;stroke-linejoin:miter;stroke-miterlimit:4;stroke-dasharray:none;stroke-opacity:0.89803922;paint-order:normal;enable-background:new" />
      <path
         inkscape:export-ydpi="25"
         inkscape:export-xdpi="25"
         inkscape:connector-curvature="0"
         id="path4850-2"
         d="M -4.5560244,104.50788 5.6806866,98.337297 5.4524206,86.205693 -1.7026434,82.253147 -11.939997,88.424095 -11.7111,100.55528 Z"
         style="opacity:1;fill:#d40000;fill-opacity:1;fill-rule:nonzero;stroke:none;stroke-width:2.41926146;stroke-linecap:round;stroke-linejoin:miter;stroke-miterlimit:4;stroke-dasharray:none;stroke-opacity:0.89803922;paint-order:normal;enable-background:new" />
      <rect
         inkscape:export-ydpi="25"
         inkscape:export-xdpi="25"
         transform="rotate(-31.081091)"
         ry="4.9838414"
         y="-133.0748"
         x="-65.707474"
         height="25.558163"
         width="31.990515"
         id="rect4817-9-5"
         style="opacity:1;fill:#502d16;fill-opacity:1;fill-rule:nonzero;stroke:none;stroke-width:3.47948718;stroke-linecap:round;stroke-linejoin:miter;stroke-miterlimit:4;stroke-dasharray:none;stroke-opacity:0.89803922;paint-order:normal;enable-background:new" />
      <rect
         inkscape:export-ydpi="25"
         inkscape:export-xdpi="25"
         transform="rotate(-31.081091)"
         ry="21.403879"
         y="-120.1068"
         x="-131.65027"
         height="92.201309"
         width="120.19099"
         id="rect4596-9"
         style="opacity:1;fill:#6c5353;fill-opacity:1;fill-rule:nonzero;stroke:none;stroke-width:2.64072824;stroke-linecap:round;stroke-linejoin:miter;stroke-miterlimit:4;stroke-dasharray:none;stroke-opacity:1;paint-order:normal;enable-background:new" />
      <path
         inkscape:export-ydpi="25"
         inkscape:export-xdpi="25"
         inkscape:connector-curvature="0"
         id="path4649-2"
         d="m -34.974213,-7.0297069 a 53.917784,26.617641 58.918909 0 0 9.022851,-1.90006 53.917784,26.617641 58.918909 0 0 -5.038865,-59.9184381 53.917784,26.617641 58.918909 0 0 -50.631246,-32.435845 53.917784,26.617641 58.918909 0 0 -5.736988,6.760714 53.91779,26.617641 58.918909 0 1 2.05227,0.19429 53.91779,26.617641 58.918909 0 1 3.261799,0.77078 53.91779,26.617641 58.918909 0 1 3.397121,1.24181 53.91779,26.617641 58.918909 0 1 3.497681,1.69946 53.91779,26.617641 58.918909 0 1 3.563644,2.14144 53.91779,26.617641 58.918909 0 1 3.594717,2.56093 53.91779,26.617641 58.918909 0 1 3.588136,2.95586 53.91779,26.617641 58.918909 0 1 3.547791,3.32014 53.91779,26.617641 58.918909 0 1 3.470662,3.65245 53.91779,26.617641 58.918909 0 1 3.35867,3.94711 53.91779,26.617641 58.918909 0 1 3.213988,4.202691 53.91779,26.617641 58.918909 0 1 3.036438,4.416505 53.91779,26.617641 58.918909 0 1 2.026022,3.232127 53.91779,26.617641 58.918909 0 1 2.665081,4.679179 53.91779,26.617641 58.918909 0 1 2.410339,4.768699 53.91779,26.617641 58.918909 0 1 2.132393,4.812039 53.91779,26.617641 58.918909 0 1 1.832127,4.807099 53.91779,26.617641 58.918909 0 1 1.514278,4.753959 53.91779,26.617641 58.918909 0 1 1.181284,4.652905 53.91779,26.617641 58.918909 0 1 0.835846,4.505962 53.91779,26.617641 58.918909 0 1 0.482149,4.313658 53.91779,26.617641 58.918909 0 1 0.124421,4.078104 53.91779,26.617641 58.918909 0 1 -0.23467,3.802204 53.91779,26.617641 58.918909 0 1 -0.592461,3.488119 53.91779,26.617641 58.918909 0 1 -0.942987,3.1392591 53.91779,26.617641 58.918909 0 1 -0.632554,1.35685 z"
         style="opacity:1;fill:#916f6f;fill-opacity:1;fill-rule:nonzero;stroke:none;stroke-width:2.18932152;stroke-linecap:round;stroke-linejoin:miter;stroke-miterlimit:4;stroke-dasharray:none;stroke-opacity:1;paint-order:normal;enable-background:new" />
      <path
         inkscape:export-ydpi="25"
         inkscape:export-xdpi="25"
         inkscape:connector-curvature="0"
         id="path4598-5-2"
         d="m -34.40176,-7.3747519 a 53.91779,26.617641 58.918909 0 0 0.632565,-1.356875 53.91779,26.617641 58.918909 0 0 0.942976,-3.1392591 53.91779,26.617641 58.918909 0 0 0.59246,-3.488107 53.91779,26.617641 58.918909 0 0 0.234683,-3.802216 53.91779,26.617641 58.918909 0 0 -0.124421,-4.078104 53.91779,26.617641 58.918909 0 0 -0.482136,-4.313658 53.91779,26.617641 58.918909 0 0 -0.835847,-4.505962 53.91779,26.617641 58.918909 0 0 -1.181283,-4.652893 53.91779,26.617641 58.918909 0 0 -1.514291,-4.753984 53.91779,26.617641 58.918909 0 0 -1.832127,-4.807087 53.91779,26.617641 58.918909 0 0 -2.132393,-4.812038 53.91779,26.617641 58.918909 0 0 -2.410352,-4.768687 53.91779,26.617641 58.918909 0 0 -2.665068,-4.679179 53.91779,26.617641 58.918909 0 0 -2.026023,-3.232127 53.91779,26.617641 58.918909 0 0 -3.036437,-4.416504 53.91779,26.617641 58.918909 0 0 -3.213975,-4.202704 53.91779,26.617641 58.918909 0 0 -3.358671,-3.94711 53.91779,26.617641 58.918909 0 0 -3.470662,-3.65245 53.91779,26.617641 58.918909 0 0 -3.547816,-3.32014 53.91779,26.617641 58.918909 0 0 -3.588111,-2.95585 53.91779,26.617641 58.918909 0 0 -3.594717,-2.56094 53.91779,26.617641 58.918909 0 0 -3.563656,-2.14143 53.91779,26.617641 58.918909 0 0 -3.497669,-1.69947 53.91779,26.617641 58.918909 0 0 -3.397133,-1.24181 53.91779,26.617641 58.918909 0 0 -3.261799,-0.77077 53.91779,26.617641 58.918909 0 0 -2.052271,-0.19429 53.917784,26.617641 58.918909 0 0 10.775297,53.158013 53.917784,26.617641 58.918909 0 0 41.608952,34.3356311 z"
         style="opacity:1;fill:#6c5353;fill-opacity:1;fill-rule:nonzero;stroke:none;stroke-width:2.18932152;stroke-linecap:round;stroke-linejoin:miter;stroke-miterlimit:4;stroke-dasharray:none;stroke-opacity:1;paint-order:normal;enable-background:new" />
      <rect
         inkscape:export-ydpi="25"
         inkscape:export-xdpi="25"
         transform="rotate(-31.081091)"
         y="-28.437168"
         x="-65.814117"
         height="22.376709"
         width="32.125385"
         id="rect4651-7"
         style="opacity:1;fill:#28170b;fill-opacity:1;fill-rule:nonzero;stroke:none;stroke-width:3.1367662;stroke-linecap:round;stroke-linejoin:miter;stroke-miterlimit:4;stroke-dasharray:none;stroke-opacity:1;paint-order:normal;enable-background:new" />
    </g>
    <g
       id="g4541"
       transform="rotate(-67.41647,192.13011,-0.31148133)"
       inkscape:export-filename="J:\Autorun.inf\Games\the toekoms of orixás\Assest\Boss\2-Ogum\Inkscape\Parts\g4541.png"
       inkscape:export-xdpi="25"
       inkscape:export-ydpi="25">
      <rect
         inkscape:export-ydpi="25"
         inkscape:export-xdpi="25"
         transform="rotate(56.970229)"
         ry="42.332954"
         rx="48.347271"
         y="-156.92496"
         x="103.21893"
         height="149.02815"
         width="70.879234"
         id="rect4965-39-4"
         style="display:inline;opacity:1;fill:#c87137;fill-opacity:1;fill-rule:nonzero;stroke:none;stroke-width:8.5404253;stroke-linecap:round;stroke-linejoin:miter;stroke-miterlimit:4;stroke-dasharray:none;stroke-opacity:0.89803922;paint-order:normal;enable-background:new" />
      <rect
         inkscape:export-ydpi="25"
         inkscape:export-xdpi="25"
         transform="rotate(145.55002)"
         ry="4.4946642"
         rx="8.0609474"
         y="-169.09711"
         x="-116.81259"
         height="4.4946642"
         width="67.995506"
         id="rect4725-9-2-2-0-5"
         style="opacity:1;fill:#d38d5f;fill-opacity:1;fill-rule:nonzero;stroke:none;stroke-width:2.59225082;stroke-linecap:round;stroke-linejoin:miter;stroke-miterlimit:4;stroke-dasharray:none;stroke-opacity:0.89803922;paint-order:normal;enable-background:new" />
      <path
         inkscape:export-ydpi="25"
         inkscape:export-xdpi="25"
         inkscape:connector-curvature="0"
         id="path5078-3-7-5"
         d="M 209.26273,23.83261 A 48.031866,41.845793 53.395854 0 0 148.87364,9.0139591 l 57.15259,76.9443939 a 48.031866,41.845793 53.395854 0 0 3.2365,-62.125743 z"
         style="opacity:1;fill:#5d5047;fill-opacity:1;fill-rule:nonzero;stroke:none;stroke-width:6.72048187;stroke-linecap:round;stroke-linejoin:miter;stroke-miterlimit:4;stroke-dasharray:none;stroke-opacity:0.89803922;paint-order:normal;enable-background:new" />
    </g>
    <g
       id="g4562"
       transform="translate(6.879167)"
       inkscape:export-filename="J:\Autorun.inf\Games\the toekoms of orixás\Assest\Boss\2-Ogum\Inkscape\Parts\bitmap.png"
       inkscape:export-xdpi="25"
       inkscape:export-ydpi="25">
      <path
         inkscape:export-ydpi="25"
         inkscape:export-xdpi="25"
         inkscape:connector-curvature="0"
         id="path4777"
         d="m 183.61478,15.50729 c 0.26517,-0.330203 0.54256,-0.649037 0.80288,-0.983712 0.79689,-1.024361 1.57075,-2.069501 2.3212,-3.134535 0.75047,-1.064997 1.47777,-2.1493829 2.18023,-3.2533229 0.7024,-1.103965 1.37989,-2.227079 2.03266,-3.368245 0.65279,-1.141127 1.28041,-2.300583 1.88191,-3.47723 0.60152,-1.17666003 1.17723,-2.370563 1.72587,-3.581012 0.54864,-1.21045 1.07052,-2.437738 1.56468,-3.680234 0.49414,-1.242534 0.96082,-2.500705 1.39885,-3.77358 0.43801,-1.2728881 0.84752,-2.5602011 1.22782,-3.8617251 0.3803,-1.301511 0.73129,-2.616803 1.05226,-3.945257 0.32095,-1.328454 0.61145,-2.669919 0.87143,-4.023611 0.25999,-1.353692 0.48929,-2.719511 0.68671,-4.096698 0.19742,-1.377187 0.36351,-2.766235 0.49674,-4.165236 0.13325,-1.398977 0.2335,-2.808185 0.30092,-4.227246 0.0675,-1.41906 0.10181,-2.847911 0.10181,-4.285363 v -53.489489 c 0,-1.43744 -0.0344,-2.8656 -0.10181,-4.28468 -0.0675,-1.41908 -0.16767,-2.8289 -0.30092,-4.227924 -0.13323,-1.39897 -0.29932,-2.78738 -0.49674,-4.16456 -0.19742,-1.37719 -0.42672,-2.74301 -0.68671,-4.0967 -0.25998,-1.3537 -0.55048,-2.69516 -0.87143,-4.02362 -0.32097,-1.32845 -0.67196,-2.64371 -1.05226,-3.94526 -0.3803,-1.30152 -0.78981,-2.58948 -1.22782,-3.86235 -0.43803,-1.27288 -0.90471,-2.53109 -1.39885,-3.77358 -0.49416,-1.24254 -1.01604,-2.46915 -1.56468,-3.6796 -0.54864,-1.21045 -1.12435,-2.40436 -1.72587,-3.58102 -0.6015,-1.17664 -1.22912,-2.33606 -1.88191,-3.47723 -0.65277,-1.14116 -1.33026,-2.26428 -2.03266,-3.36822 -0.70246,-1.10396 -1.42976,-2.18898 -2.18023,-3.25401 -0.75045,-1.065 -1.52431,-2.11014 -2.3212,-3.13454 -0.79686,-1.02438 -1.61658,-2.02783 -2.45826,-3.00983 -0.84171,-0.98205 -1.70528,-1.94268 -2.59014,-2.88064 -0.8849,-0.93796 -1.79101,-1.8533 -2.71744,-2.74548 -0.92644,-0.89221 -1.87313,-1.76113 -2.8395,-2.60582 -0.96637,-0.84471 -1.95226,-1.6654 -2.957,-2.46089 -1.0047,-0.7955 -2.02846,-1.56552 -3.06989,-2.31011 -1.04144,-0.74459 -2.10043,-1.46344 -3.17699,-2.15539 -1.07652,-0.69195 -2.1707,-1.35721 -3.28075,-1.99485 -1.11002,-0.63761 -2.23611,-1.24743 -3.37801,-1.82899 -1.1419,-0.58158 -2.29918,-1.13485 -3.47136,-1.65867 -1.17217,-0.52381 -2.35933,-1.01811 -3.56015,-1.48242 -1.20079,-0.46429 -2.41585,-0.89847 -3.64367,-1.30159 -1.22783,-0.40313 -2.46878,-0.77534 -3.72202,-1.11556 -1.25324,-0.34024 -2.51874,-0.64871 -3.79576,-0.92431 -1.27706,-0.27558 -2.56511,-0.51855 -3.86433,-0.72781 -1.29923,-0.20928 -2.60918,-0.38491 -3.92895,-0.52614 -1.31977,-0.14121 -2.64963,-0.24772 -3.98834,-0.31918 -1.33872,-0.0715 -2.68646,-0.10774 -4.04252,-0.10774 -1.35606,0 -2.70381,0.0363 -4.04253,0.10774 -1.33871,0.0715 -2.66857,0.17797 -3.98834,0.31918 -1.31977,0.14123 -2.6297,0.31686 -3.92895,0.52614 -1.29922,0.20926 -2.58794,0.45223 -3.86496,0.72781 -1.27706,0.2756 -2.54254,0.58407 -3.79578,0.92431 -1.25326,0.34022 -2.49419,0.71243 -3.722,1.11556 -1.227865,0.40312 -2.442255,0.8373 -3.643045,1.30159 -1.20082,0.46431 -2.38797,0.95861 -3.56014,1.48242 -1.17215,0.52382 -2.32946,1.07709 -3.47136,1.65867 -1.1419,0.58156 -2.26863,1.19138 -3.37868,1.82899 -1.11001,0.63764 -2.20356,1.3029 -3.28009,1.99485 -1.07655,0.69195 -2.13554,1.4108 -3.17698,2.15539 -0.94137,0.67304 -1.86342,1.37348 -2.77486,2.08819 -11.62908,14.48055 -18.646647,33.26299 -18.646647,53.85697 v 53.489495 c 0,45.9981221 34.934387,83.029352 78.328192,83.029352 17.4986,0 33.61701,-6.028337 46.62837,-16.231447 z"
         style="opacity:1;fill:#c87137;fill-opacity:1;fill-rule:nonzero;stroke:none;stroke-width:3.23322892;stroke-linecap:round;stroke-linejoin:miter;stroke-miterlimit:4;stroke-dasharray:none;stroke-opacity:1;paint-order:normal;enable-background:new" />
      <path
         inkscape:export-ydpi="25"
         inkscape:export-xdpi="25"
         inkscape:connector-curvature="0"
         id="rect4657"
         d="m 136.31799,-187.14037 c -23.96581,0 -45.336285,11.30891 -59.681535,29.17171 0.91143,-0.71471 1.83348,-1.41515 2.77486,-2.08818 1.04143,-0.7446 2.10041,-1.46345 3.17698,-2.1554 1.07653,-0.69195 2.17007,-1.3572 3.28009,-1.99484 1.11004,-0.63761 2.23676,-1.24745 3.37866,-1.82901 1.14191,-0.58156 2.29922,-1.13485 3.47136,-1.65866 1.17219,-0.5238 2.35933,-1.01811 3.56016,-1.48242 1.20078,-0.46429 2.41517,-0.89846 3.64303,-1.30158 1.227825,-0.40313 2.468755,-0.77535 3.722015,-1.11558 1.25322,-0.34022 2.51872,-0.64869 3.79577,-0.92429 1.27702,-0.27559 2.56574,-0.51857 3.86496,-0.72781 1.29924,-0.20928 2.60919,-0.38491 3.92895,-0.52616 1.31976,-0.14119 2.64963,-0.24772 3.98834,-0.31916 1.33873,-0.0715 2.68647,-0.10775 4.04252,-0.10775 1.35607,0 2.70381,0.0363 4.04253,0.10775 1.33872,0.0715 2.66857,0.17797 3.98834,0.31916 1.31977,0.14125 2.62971,0.31688 3.92896,0.52616 1.29921,0.20924 2.58727,0.45222 3.86431,0.72781 1.27703,0.2756 2.54252,0.58407 3.79578,0.92429 1.25322,0.34023 2.49417,0.71245 3.722,1.11558 1.22784,0.40312 2.4429,0.83729 3.64368,1.30158 1.20083,0.46431 2.38797,0.95862 3.56015,1.48242 1.17219,0.52381 2.32946,1.0771 3.47135,1.65866 1.1419,0.58156 2.268,1.1914 3.37801,1.82901 1.11006,0.63764 2.20423,1.30289 3.28076,1.99484 1.07656,0.69195 2.13554,1.4108 3.17698,2.1554 1.04144,0.74458 2.06519,1.51461 3.0699,2.3101 1.00474,0.79548 1.99063,1.61618 2.95699,2.4609 0.96639,0.84469 1.91308,1.7136 2.8395,2.60581 0.92644,0.89217 1.83255,1.80751 2.71744,2.74548 0.88486,0.93796 1.74843,1.89859 2.59014,2.88063 0.84168,0.98202 1.6614,1.98545 2.45826,3.00985 0.79689,1.02438 1.57076,2.06954 2.3212,3.13453 0.75047,1.06504 1.47779,2.15006 2.18023,3.25402 0.70241,1.10393 1.37989,2.22706 2.03267,3.36822 0.65279,1.14117 1.2804,2.30057 1.88192,3.47723 0.6015,1.17666 1.17723,2.37056 1.72587,3.58101 0.54864,1.21045 1.0705,2.43707 1.56468,3.6796 0.49412,1.2425 0.96082,2.50071 1.39883,3.77359 0.43802,1.27287 0.84753,2.56082 1.22782,3.86234 0.3803,1.30156 0.7313,2.61681 1.05228,3.94527 0.32093,1.32845 0.61143,2.66992 0.87142,4.0236 0.25998,1.35369 0.48928,2.71951 0.6867,4.0967 0.19742,1.37719 0.36353,2.7656 0.49674,4.164584 0.13325,1.39901 0.23351,2.80884 0.30092,4.22791 0.0675,1.41909 0.10181,2.84725 0.10181,4.28469 v 53.489486 c 0,1.437453 -0.0345,2.866303 -0.10181,4.285363 -0.0674,1.419061 -0.16767,2.828269 -0.30092,4.227246 -0.13321,1.399002 -0.29932,2.78805 -0.49674,4.165237 -0.19742,1.377186 -0.42672,2.743005 -0.6867,4.096697 -0.25999,1.353692 -0.55049,2.695157 -0.87142,4.023611 -0.32098,1.328454 -0.67198,2.643746 -1.05228,3.945257 -0.38029,1.301524 -0.7898,2.588837 -1.22782,3.8617251 -0.43801,1.272875 -0.90471,2.531047 -1.39883,3.773581 -0.49418,1.242496 -1.01604,2.469783 -1.56468,3.680233 -0.54864,1.21044897 -1.12437,2.40435197 -1.72587,3.581012 -0.60152,1.176647 -1.22913,2.336103 -1.88192,3.47723 -0.65278,1.141166 -1.33026,2.26428 -2.03267,3.368245 -0.70244,1.10394 -1.42976,2.1883259 -2.18023,3.2533229 -0.75044,1.065035 -1.52431,2.110174 -2.3212,3.134535 -0.26032,0.334675 -0.53771,0.653509 -0.80287,0.983712 19.25472,-15.0989719 31.69981,-39.348613 31.69981,-66.797906 v -53.489491 c 0,-45.99809 -34.93438,-83.02869 -78.32818,-83.02869 z"
         style="opacity:1;fill:#a05a2c;fill-opacity:1;fill-rule:nonzero;stroke:none;stroke-width:3.23322892;stroke-linecap:round;stroke-linejoin:miter;stroke-miterlimit:4;stroke-dasharray:none;stroke-opacity:1;paint-order:normal;enable-background:new" />
      <path
         inkscape:export-ydpi="25"
         inkscape:export-xdpi="25"
         inkscape:connector-curvature="0"
         id="path5317-06-1-0"
         d="m 110.17813,-100.01156 a 18.381611,18.381611 0 0 0 -0.17767,2.406664 18.381611,18.381611 0 0 0 18.38243,18.38001 18.381611,18.381611 0 0 0 18.38007,-18.38001 18.381611,18.381611 0 0 0 -0.17998,-2.406664 z"
         style="opacity:1;fill:#ffffff;fill-opacity:1;fill-rule:nonzero;stroke:none;stroke-width:4.01527834;stroke-linecap:round;stroke-linejoin:miter;stroke-miterlimit:4;stroke-dasharray:none;stroke-opacity:0.89803922;paint-order:normal;enable-background:new" />
      <path
         inkscape:export-ydpi="25"
         inkscape:export-xdpi="25"
         inkscape:connector-curvature="0"
         id="path5312-1-2-7"
         d="m 112.1068,-100.01866 a 10.318194,10.318194 0 0 0 -0.47094,6.893414 10.318194,10.318194 0 0 0 12.17056,7.27676 10.318194,10.318194 0 0 0 7.94172,-11.74695 l -10.18036,1.67545 9.56037,-3.88095 a 10.318194,10.318194 0 0 0 -0.0947,-0.217714 z"
         style="opacity:1;fill:#803300;fill-opacity:1;fill-rule:nonzero;stroke:none;stroke-width:2.25390577;stroke-linecap:round;stroke-linejoin:miter;stroke-miterlimit:4;stroke-dasharray:none;stroke-opacity:0.89803922;paint-order:normal;enable-background:new" />
      <path
         inkscape:export-ydpi="25"
         inkscape:export-xdpi="25"
         inkscape:connector-curvature="0"
         id="path5317-0-1-0-8"
         d="m 64.080425,-100.01156 a 18.381611,18.381611 0 0 0 -0.17767,2.406664 18.381611,18.381611 0 0 0 18.38239,18.38002 18.381611,18.381611 0 0 0 18.380055,-18.38002 18.381611,18.381611 0 0 0 -0.17998,-2.406664 z"
         style="opacity:1;fill:#ffffff;fill-opacity:1;fill-rule:nonzero;stroke:none;stroke-width:4.01527834;stroke-linecap:round;stroke-linejoin:miter;stroke-miterlimit:4;stroke-dasharray:none;stroke-opacity:0.89803922;paint-order:normal;enable-background:new" />
      <path
         inkscape:export-ydpi="25"
         inkscape:export-xdpi="25"
         inkscape:connector-curvature="0"
         id="path5312-3-4-2-1"
         d="m 66.009105,-100.01865 a 10.318194,10.318194 0 0 0 -0.47093,6.893404 10.318194,10.318194 0 0 0 12.17055,7.27676 10.318194,10.318194 0 0 0 7.94172,-11.74695 l -10.18037,1.67546 9.56038,-3.88096 a 10.318194,10.318194 0 0 0 -0.0947,-0.217704 z"
         style="opacity:1;fill:#803300;fill-opacity:1;fill-rule:nonzero;stroke:none;stroke-width:2.25390577;stroke-linecap:round;stroke-linejoin:miter;stroke-miterlimit:4;stroke-dasharray:none;stroke-opacity:0.89803922;paint-order:normal;enable-background:new" />
      <rect
         inkscape:export-ydpi="25"
         inkscape:export-xdpi="25"
         ry="4.4946642"
         rx="4.2986007"
         y="-103.90039"
         x="65.348511"
         height="4.4946642"
         width="36.259457"
         id="rect4725-9-3-4-3-7"
         style="opacity:1;fill:#000000;fill-opacity:1;fill-rule:nonzero;stroke:none;stroke-width:1.89298654;stroke-linecap:round;stroke-linejoin:miter;stroke-miterlimit:4;stroke-dasharray:none;stroke-opacity:0.89803922;paint-order:normal;enable-background:new" />
      <rect
         transform="matrix(0.89958823,-0.43673908,0.29443495,0.95567152,0,0)"
         inkscape:export-ydpi="25"
         inkscape:export-xdpi="25"
         ry="7.2375417"
         rx="1.2152368"
         y="-47.029568"
         x="134.62695"
         height="7.2375417"
         width="49.411861"
         id="rect4725-9-3-4-6-1-6"
         style="opacity:1;fill:#000000;fill-opacity:1;fill-rule:nonzero;stroke:none;stroke-width:2.80413818;stroke-linecap:round;stroke-linejoin:miter;stroke-miterlimit:4;stroke-dasharray:none;stroke-opacity:0.89803922;paint-order:normal;enable-background:new" />
      <path
         inkscape:export-ydpi="25"
         inkscape:export-xdpi="25"
         inkscape:connector-curvature="0"
         id="path4621"
         d="m 110.72748,-0.10226393 -6.8755,0.11621 a 40.072213,34.911273 0.969528 0 0 1.71871,0.106359 40.072213,34.911273 0.969528 0 0 5.15679,-0.222582 z"
         style="opacity:1;fill:#916f6f;fill-opacity:1;fill-rule:nonzero;stroke:none;stroke-width:5.60678959;stroke-linecap:round;stroke-linejoin:miter;stroke-miterlimit:4;stroke-dasharray:none;stroke-opacity:0.89803922;paint-order:normal;enable-background:new" />
      <path
         inkscape:export-ydpi="25"
         inkscape:export-xdpi="25"
         inkscape:connector-curvature="0"
         id="path4619"
         d="m 126.99027,-4.9365599 a 18.022928,20.68726 89.030472 0 0 -0.26961,-0.713484 18.022928,20.68726 89.030472 0 0 -0.83814,-1.643651 18.022928,20.68726 89.030472 0 0 -1.02285,-1.561368 18.022928,20.68726 89.030472 0 0 -1.19718,-1.4641431 18.022928,20.68726 89.030472 0 0 -1.35903,-1.351848 18.022928,20.68726 89.030472 0 0 -1.5085,-1.22653 18.022928,20.68726 89.030472 0 0 -1.64171,-1.08815 18.022928,20.68726 89.030472 0 0 -1.75916,-0.939969 18.022928,20.68726 89.030472 0 0 -1.85906,-0.781354 18.022928,20.68726 89.030472 0 0 -1.93998,-0.615551 18.022928,20.68726 89.030472 0 0 -2.00137,-0.443875 18.022928,20.68726 89.030472 0 0 -2.04377,-0.266969 18.022928,20.68726 89.030472 0 0 -2.06469,-0.08754 18.022928,20.68726 89.030472 0 0 -0.36552,0.0038 18.022928,20.68726 89.030472 0 0 -2.06336,0.127302 18.022928,20.68726 89.030472 0 0 -2.03922,0.30614 18.022928,20.68726 89.030472 0 0 -1.99485,0.481731 18.022928,20.68726 89.030472 0 0 -1.930825,0.65212 18.022928,20.68726 89.030472 0 0 -1.84729,0.81724 18.022928,20.68726 89.030472 0 0 -1.74548,0.973253 18.022928,20.68726 89.030472 0 0 -1.62602,1.119477 18.022928,20.68726 89.030472 0 0 -1.49024,1.255229 18.022928,20.68726 89.030472 0 0 -1.33946,1.377995 18.022928,20.68726 89.030472 0 0 -1.17629,1.4869691 18.022928,20.68726 89.030472 0 0 -1.00002,1.580985 18.022928,20.68726 89.030472 0 0 -0.81398,1.659301 18.022928,20.68726 89.030472 0 0 -0.46475,1.288551 40.072213,34.911273 0.969528 0 0 16.264065,4.00532097 l 6.8755,-0.116211 a 40.072213,34.911273 0.969528 0 0 16.26279,-4.83430797 z"
         style="opacity:1;fill:#800000;fill-opacity:1;fill-rule:nonzero;stroke:none;stroke-width:5.60678959;stroke-linecap:round;stroke-linejoin:miter;stroke-miterlimit:4;stroke-dasharray:none;stroke-opacity:0.89803922;paint-order:normal;enable-background:new" />
      <path
         inkscape:export-ydpi="25"
         inkscape:export-xdpi="25"
         inkscape:connector-curvature="0"
         id="path5078-5-0"
         d="m 66.169645,-33.624571 a 40.072213,34.911273 0.969528 0 0 21.41827,29.6331971 18.022928,20.68726 89.030472 0 1 0.46475,-1.288564 18.022928,20.68726 89.030472 0 1 0.81398,-1.659288 18.022928,20.68726 89.030472 0 1 1.00002,-1.580986 18.022928,20.68726 89.030472 0 1 1.17629,-1.4869681 18.022928,20.68726 89.030472 0 1 1.33946,-1.377995 18.022928,20.68726 89.030472 0 1 1.49024,-1.255229 18.022928,20.68726 89.030472 0 1 1.62602,-1.119477 18.022928,20.68726 89.030472 0 1 1.74548,-0.973253 18.022928,20.68726 89.030472 0 1 1.84729,-0.817253 18.022928,20.68726 89.030472 0 1 1.930825,-0.652107 18.022928,20.68726 89.030472 0 1 1.99485,-0.481732 18.022928,20.68726 89.030472 0 1 2.03922,-0.30614 18.022928,20.68726 89.030472 0 1 2.06336,-0.127301 18.022928,20.68726 89.030472 0 1 0.36552,-0.0038 18.022928,20.68726 89.030472 0 1 2.06469,0.08754 18.022928,20.68726 89.030472 0 1 2.04377,0.266969 18.022928,20.68726 89.030472 0 1 2.00137,0.443862 18.022928,20.68726 89.030472 0 1 1.93998,0.615551 18.022928,20.68726 89.030472 0 1 1.85906,0.781354 18.022928,20.68726 89.030472 0 1 1.75916,0.939969 18.022928,20.68726 89.030472 0 1 1.64171,1.088163 18.022928,20.68726 89.030472 0 1 1.5085,1.226517 18.022928,20.68726 89.030472 0 1 1.35903,1.35186 18.022928,20.68726 89.030472 0 1 1.19718,1.4641431 18.022928,20.68726 89.030472 0 1 1.02285,1.561369 18.022928,20.68726 89.030472 0 1 0.83814,1.643651 18.022928,20.68726 89.030472 0 1 0.26961,0.713471 40.072213,34.911273 0.969528 0 0 19.1323,-27.3348501 z"
         style="opacity:1;fill:#241c1c;fill-opacity:1;fill-rule:nonzero;stroke:none;stroke-width:5.60678959;stroke-linecap:round;stroke-linejoin:miter;stroke-miterlimit:4;stroke-dasharray:none;stroke-opacity:0.89803922;paint-order:normal;enable-background:new" />
    </g>
  </g>
</svg>
