<?xml version="1.0" encoding="UTF-8" standalone="no"?>
<!-- Created with Inkscape (http://www.inkscape.org/) -->

<svg
   xmlns:dc="http://purl.org/dc/elements/1.1/"
   xmlns:cc="http://creativecommons.org/ns#"
   xmlns:rdf="http://www.w3.org/1999/02/22-rdf-syntax-ns#"
   xmlns:svg="http://www.w3.org/2000/svg"
   xmlns="http://www.w3.org/2000/svg"
   xmlns:sodipodi="http://sodipodi.sourceforge.net/DTD/sodipodi-0.dtd"
   xmlns:inkscape="http://www.inkscape.org/namespaces/inkscape"
   width="732.48456mm"
   height="753.17792mm"
   viewBox="0 0 732.48456 753.17792"
   version="1.1"
   id="svg8"
   inkscape:version="0.92.1 r15371"
   sodipodi:docname="BigMulher.svg"
   inkscape:export-filename="C:\Users\Ghuide\Desktop\learning\0.0 fatec\0.0 the toekoms of orixás\1.0 artwork and animations\2.0 NPC\1.0 wife\wife.png"
   inkscape:export-xdpi="25"
   inkscape:export-ydpi="25"
   style="enable-background:new">
  <defs
     id="defs2" />
  <sodipodi:namedview
     id="base"
     pagecolor="#ffffff"
     bordercolor="#666666"
     borderopacity="1.0"
     inkscape:pageopacity="0.0"
     inkscape:pageshadow="2"
     inkscape:zoom="0.25"
     inkscape:cx="1701.2901"
     inkscape:cy="843.4651"
     inkscape:document-units="px"
     inkscape:current-layer="layer1"
     showgrid="false"
     inkscape:measure-start="0,0"
     inkscape:measure-end="0,0"
     inkscape:window-width="1280"
     inkscape:window-height="657"
     inkscape:window-x="-4"
     inkscape:window-y="-4"
     inkscape:window-maximized="1"
     units="mm"
     inkscape:pagecheckerboard="false"
     fit-margin-top="0"
     fit-margin-left="0"
     fit-margin-right="0"
     fit-margin-bottom="0"
     objecttolerance="1"
     guidetolerance="1" />
  <metadata
     id="metadata5">
    <rdf:RDF>
      <cc:Work
         rdf:about="">
        <dc:format>image/svg+xml</dc:format>
        <dc:type
           rdf:resource="http://purl.org/dc/dcmitype/StillImage" />
        <dc:title />
      </cc:Work>
    </rdf:RDF>
  </metadata>
  <g
     inkscape:label="Camada 1"
     inkscape:groupmode="layer"
     id="layer1"
     transform="translate(271.81332,268.36891)">
    <g
       id="g4692"
       inkscape:export-filename="C:\Users\homework\Desktop\Folthers\FATEC\Smaug\the toekoms of orixás\0.1 Digital\Assest\NPCs\Walking\BigMulher\Inkscape\Parts\hear.png"
       inkscape:export-xdpi="25"
       inkscape:export-ydpi="25"
       transform="matrix(1.9650871,0,0,1.4401753,-249.26453,-196.31721)">
      <rect
         ry="21.39694"
         y="8.3735132"
         x="181.71574"
         height="198.07674"
         width="115.25009"
         id="rect4616"
         style="opacity:1;fill:#747474;fill-opacity:1;fill-rule:nonzero;stroke:none;stroke-width:1.81925476;stroke-linecap:round;stroke-linejoin:miter;stroke-miterlimit:4;stroke-dasharray:none;stroke-opacity:0.89803922;paint-order:normal" />
      <rect
         ry="10.513753"
         y="71.517632"
         x="286.39603"
         height="97.328392"
         width="5.2225628"
         id="rect4616-6-2-2"
         style="opacity:1;fill:#313131;fill-opacity:1;fill-rule:nonzero;stroke:none;stroke-width:0.27146742;stroke-linecap:round;stroke-linejoin:miter;stroke-miterlimit:4;stroke-dasharray:none;stroke-opacity:0.89803922;paint-order:normal;enable-background:new" />
      <rect
         ry="3.9986424"
         y="30.657429"
         x="286.34079"
         height="37.016418"
         width="5.2225633"
         id="rect4616-6-2-3-8"
         style="opacity:1;fill:#313131;fill-opacity:1;fill-rule:nonzero;stroke:none;stroke-width:0.16741528;stroke-linecap:round;stroke-linejoin:miter;stroke-miterlimit:4;stroke-dasharray:none;stroke-opacity:0.89803922;paint-order:normal;enable-background:new" />
    </g>
    <rect
       style="opacity:1;fill:#a05a2c;fill-opacity:1;fill-rule:nonzero;stroke:none;stroke-width:7.63480806;stroke-linecap:round;stroke-linejoin:miter;stroke-miterlimit:4;stroke-dasharray:none;stroke-opacity:0.89803922;paint-order:normal;enable-background:new"
       id="rect4965-0-6-3"
       width="63.658783"
       height="132.6069"
       x="151.45984"
       y="225.35056"
       rx="43.422142"
       ry="37.668331"
       transform="matrix(0.99948836,-0.03198462,0.03258611,0.99946893,0,0)"
       inkscape:export-xdpi="25"
       inkscape:export-ydpi="25"
       inkscape:export-filename="C:\Users\homework\Desktop\Folthers\FATEC\Smaug\the toekoms of orixás\0.1 Digital\Assest\NPCs\Walking\BigMulher\Inkscape\Parts\back upper leg.png" />
    <rect
       style="opacity:1;fill:#a0602c;fill-opacity:1;fill-rule:nonzero;stroke:none;stroke-width:7.11663198;stroke-linecap:round;stroke-linejoin:miter;stroke-miterlimit:4;stroke-dasharray:none;stroke-opacity:0.89803922;paint-order:normal;enable-background:new"
       id="rect4965-0-9-7-5"
       width="55.492725"
       height="132.17256"
       x="164.16615"
       y="303.92181"
       transform="matrix(0.99988003,-0.01548963,0.00415526,0.99999137,0,0)"
       inkscape:export-xdpi="25"
       inkscape:export-ydpi="25"
       ry="27.660427"
       inkscape:export-filename="C:\Users\homework\Desktop\Folthers\FATEC\Smaug\the toekoms of orixás\0.1 Digital\Assest\NPCs\Walking\BigMulher\Inkscape\Parts\back lower leg.png" />
    <path
       style="opacity:1;fill:#d38d5f;fill-opacity:1;fill-rule:nonzero;stroke:none;stroke-width:5.83474159;stroke-linecap:round;stroke-linejoin:miter;stroke-miterlimit:4;stroke-dasharray:none;stroke-opacity:0.89803922;paint-order:normal;enable-background:new"
       d="m 177.35576,398.96587 a 41.701403,36.330638 0 0 0 -41.59129,34.41787 h 83.21549 a 41.701403,36.330638 0 0 0 -41.6242,-34.41787 z"
       id="path5078"
       inkscape:connector-curvature="0"
       inkscape:export-xdpi="25"
       inkscape:export-ydpi="25"
       inkscape:export-filename="C:\Users\homework\Desktop\Folthers\FATEC\Smaug\the toekoms of orixás\0.1 Digital\Assest\NPCs\Walking\Mulher\Inkscape\Parts\path5078.png" />
    <rect
       style="opacity:1;fill:#c87c37;fill-opacity:1;fill-rule:nonzero;stroke:none;stroke-width:7.63480806;stroke-linecap:round;stroke-linejoin:miter;stroke-miterlimit:4;stroke-dasharray:none;stroke-opacity:0.89803922;paint-order:normal;enable-background:new"
       id="rect4965-0-6"
       width="63.658783"
       height="132.6069"
       x="215.83566"
       y="248.02435"
       rx="43.422142"
       ry="37.668331"
       transform="matrix(0.99948836,-0.03198462,0.03258611,0.99946893,0,0)"
       inkscape:export-xdpi="25"
       inkscape:export-ydpi="25"
       inkscape:export-filename="C:\Users\homework\Desktop\Folthers\FATEC\Smaug\the toekoms of orixás\0.1 Digital\Assest\NPCs\Walking\BigMulher\Inkscape\Parts\front upper leg.png" />
    <rect
       style="opacity:1;fill:#a0602c;fill-opacity:1;fill-rule:nonzero;stroke:none;stroke-width:8.35331249;stroke-linecap:round;stroke-linejoin:miter;stroke-miterlimit:4;stroke-dasharray:none;stroke-opacity:0.89803922;paint-order:normal;enable-background:new"
       id="rect4965-26"
       width="65.612022"
       height="154.01472"
       x="132.90883"
       y="26.484734"
       rx="44.754467"
       ry="43.749447"
       transform="matrix(0.99837559,0.05697528,-0.18962736,0.98185613,0,0)"
       inkscape:export-filename="C:\Users\homework\Desktop\Folthers\FATEC\Smaug\the toekoms of orixás\0.1 Digital\Assest\NPCs\Walking\BigMulher\Inkscape\Parts\back upper arm.png"
       inkscape:export-xdpi="25"
       inkscape:export-ydpi="25" />
    <rect
       style="opacity:1;fill:#a0602c;fill-opacity:1;fill-rule:nonzero;stroke:none;stroke-width:7.10996246;stroke-linecap:round;stroke-linejoin:miter;stroke-miterlimit:4;stroke-dasharray:none;stroke-opacity:0.89803922;paint-order:normal;enable-background:new"
       id="rect4965-2-3"
       width="54.88068"
       height="133.39616"
       x="146.27576"
       y="98.849716"
       rx="37.434532"
       ry="37.89254"
       transform="matrix(0.97556901,0.21969321,-0.31290016,0.94978602,0,0)"
       inkscape:export-xdpi="25"
       inkscape:export-ydpi="25"
       inkscape:export-filename="C:\Users\homework\Desktop\Folthers\FATEC\Smaug\the toekoms of orixás\0.1 Digital\Assest\NPCs\Walking\BigMulher\Inkscape\Parts\back lower arm.png" />
    <g
       id="g4591"
       inkscape:export-filename="C:\Users\homework\Desktop\Folthers\FATEC\Smaug\the toekoms of orixás\0.1 Digital\Assest\NPCs\Walking\BigMulher\Inkscape\Parts\body.png"
       inkscape:export-xdpi="25"
       inkscape:export-ydpi="25"
       transform="matrix(1.3145169,0,0,1.3145169,-68.041094,-176.36184)">
      <path
         inkscape:export-ydpi="25"
         inkscape:export-xdpi="25"
         inkscape:export-filename="C:\Users\Ghuide\Desktop\learning\0.0 fatec\0.0 the toekoms of orixás\1.0 artwork and animations\2.0 NPC\0.0 elder\0.0 parts\body.png"
         inkscape:connector-curvature="0"
         id="path4963"
         d="m 254.19846,215.35779 h 6.78739 c 2.65053,0 5.23739,0.23321 7.73346,0.67818 2.49608,0.44497 4.90279,1.1008 7.1939,1.94647 0.29691,0.10959 0.55003,0.28314 0.84306,0.39904 v -29.38641 c 0,-8.70496 -3.85088,-16.53853 -10.02278,-22.48473 0.091,0.54696 0.24797,1.02735 0.31105,1.59988 0.1867,1.69635 0.25086,3.50221 0.18924,5.38982 -0.0617,1.88762 -0.24906,3.85695 -0.56388,5.88627 -0.31503,2.02935 -0.75801,4.117 -1.33199,6.23849 -0.574,2.12149 -1.27858,4.27672 -2.11696,6.4408 z"
         style="opacity:1;fill:#c87137;fill-opacity:1;fill-rule:nonzero;stroke:none;stroke-width:6.76115179;stroke-linecap:round;stroke-linejoin:miter;stroke-miterlimit:4;stroke-dasharray:none;stroke-opacity:0.89803922;paint-order:normal;enable-background:new" />
      <path
         inkscape:export-ydpi="25"
         inkscape:export-xdpi="25"
         inkscape:export-filename="C:\Users\Ghuide\Desktop\learning\0.0 fatec\0.0 the toekoms of orixás\1.0 artwork and animations\2.0 NPC\0.0 elder\0.0 parts\body.png"
         inkscape:connector-curvature="0"
         id="path4961"
         d="m 247.6471,156.5475 c -2.94935,-0.63364 -5.98791,-1.06597 -9.16659,-1.06597 h -31.78254 c -21.20426,0 -38.2739,14.94707 -38.2739,33.51354 v 31.16054 c 1.49182,-0.77655 2.96917,-1.577 4.58424,-2.17317 2.29111,-0.84567 4.69785,-1.5015 7.19392,-1.94647 2.49609,-0.44497 5.08294,-0.67818 7.73346,-0.67818 h 29.22344 c 0.50238,-1.71342 1.02596,-3.4329 1.69919,-5.17062 l 11.89432,-30.69969 c 0.83837,-2.16408 1.76946,-4.23154 2.77454,-6.18602 1.0051,-1.95448 2.08413,-3.79593 3.21852,-5.50784 1.13438,-1.71191 2.32388,-3.29398 3.55013,-4.73037 1.22625,-1.4364 2.48861,-2.72759 3.76931,-3.8555 1.1834,-1.04223 2.38283,-1.90848 3.58196,-2.66025 z"
         style="opacity:1;fill:#8a5326;fill-opacity:1;fill-rule:nonzero;stroke:none;stroke-width:6.76115179;stroke-linecap:round;stroke-linejoin:miter;stroke-miterlimit:4;stroke-dasharray:none;stroke-opacity:0.89803922;paint-order:normal;enable-background:new" />
      <path
         inkscape:export-ydpi="25"
         inkscape:export-xdpi="25"
         inkscape:export-filename="C:\Users\Ghuide\Desktop\learning\0.0 fatec\0.0 the toekoms of orixás\1.0 artwork and animations\2.0 NPC\0.0 elder\0.0 parts\body.png"
         inkscape:connector-curvature="0"
         id="path4958"
         d="m 276.75627,185.12654 c -0.29292,-0.14014 -0.54611,-0.34987 -0.84306,-0.48238 -2.29111,-1.02228 -4.69782,-1.81506 -7.1939,-2.35296 -2.49607,-0.53789 -5.08293,-0.81979 -7.73346,-0.81979 h -73.05016 c -2.65052,0 -5.23738,0.28191 -7.73346,0.81979 -2.49607,0.5379 -4.90279,1.33068 -7.19393,2.35296 -1.61506,0.72068 -3.09241,1.68829 -4.58425,2.62701 v 127.62901 c 0,22.44377 17.06968,40.51244 38.27392,40.51244 h 31.78254 c 21.20423,0 38.27576,-18.06867 38.27576,-40.51244 z"
         style="opacity:1;fill:#782176;fill-opacity:1;fill-rule:nonzero;stroke:none;stroke-width:7.43368626;stroke-linecap:round;stroke-linejoin:miter;stroke-miterlimit:4;stroke-dasharray:none;stroke-opacity:0.89803922;paint-order:normal;enable-background:new" />
      <path
         inkscape:export-ydpi="25"
         inkscape:export-xdpi="25"
         inkscape:export-filename="C:\Users\Ghuide\Desktop\learning\0.0 fatec\0.0 the toekoms of orixás\1.0 artwork and animations\2.0 NPC\0.0 elder\0.0 parts\body.png"
         inkscape:connector-curvature="0"
         id="rect4877"
         d="m 247.6471,156.5475 c -1.3233,0.75177 -2.64703,1.61802 -3.95304,2.66025 -1.41332,1.12791 -2.80648,2.4191 -4.15976,3.8555 -1.35321,1.43639 -2.66595,3.01846 -3.91784,4.73037 -1.25188,1.71191 -2.44271,3.55336 -3.55195,5.50784 -1.10914,1.95448 -2.13666,4.02194 -3.06191,6.18602 l -13.12643,30.69969 c -0.74292,1.73772 -1.32076,3.4572 -1.87521,5.17062 h 40.87611 l 9.95699,-23.29219 c 0.92524,-2.16408 1.70276,-4.31931 2.33624,-6.4408 0.63345,-2.12149 1.12227,-4.20914 1.46994,-6.23849 0.34766,-2.02932 0.55446,-3.99865 0.62235,-5.88627 0.0682,-1.88761 -0.003,-3.69347 -0.20917,-5.38982 -0.0693,-0.57253 -0.24253,-1.05292 -0.34332,-1.59988 -5.53837,-4.83503 -12.78586,-8.35142 -21.06343,-9.96284 z"
         style="opacity:1;fill:#782176;fill-opacity:1;fill-rule:nonzero;stroke:none;stroke-width:7.10270643;stroke-linecap:round;stroke-linejoin:miter;stroke-miterlimit:4;stroke-dasharray:none;stroke-opacity:0.89803922;paint-order:normal;enable-background:new" />
      <path
         style="opacity:1;fill:#782176;fill-opacity:1;fill-rule:nonzero;stroke:none;stroke-width:7.10270643;stroke-linecap:round;stroke-linejoin:miter;stroke-miterlimit:4;stroke-dasharray:none;stroke-opacity:0.89803922;paint-order:normal;enable-background:new"
         d="m 186.68172,156.5475 c 1.3233,0.75177 2.64703,1.61802 3.95304,2.66025 1.41332,1.12791 2.80648,2.4191 4.15976,3.8555 1.35321,1.43639 2.66595,3.01846 3.91784,4.73037 1.25188,1.71191 2.44271,3.55336 3.55195,5.50784 1.10914,1.95448 2.13666,4.02194 3.06191,6.18602 l 13.12643,30.69969 c 0.74292,1.73772 1.32076,3.4572 1.87521,5.17062 h -40.87611 l -9.95699,-23.29219 c -0.92524,-2.16408 -1.70276,-4.31931 -2.33624,-6.4408 -0.63345,-2.12149 -1.12227,-4.20914 -1.46994,-6.23849 -0.34766,-2.02932 -0.55446,-3.99865 -0.62235,-5.88627 -0.0682,-1.88761 0.003,-3.69347 0.20917,-5.38982 0.0693,-0.57253 0.24253,-1.05292 0.34332,-1.59988 5.53837,-4.83503 12.78586,-8.35142 21.06343,-9.96284 z"
         id="path4584"
         inkscape:connector-curvature="0"
         inkscape:export-filename="C:\Users\Ghuide\Desktop\learning\0.0 fatec\0.0 the toekoms of orixás\1.0 artwork and animations\2.0 NPC\0.0 elder\0.0 parts\body.png"
         inkscape:export-xdpi="25"
         inkscape:export-ydpi="25" />
    </g>
    <g
       id="g4687"
       inkscape:export-filename="C:\Users\homework\Desktop\Folthers\FATEC\Smaug\the toekoms of orixás\0.1 Digital\Assest\NPCs\Walking\BigMulher\Inkscape\Parts\head.png"
       inkscape:export-xdpi="25"
       inkscape:export-ydpi="25"
       transform="matrix(1.3145169,0,0,1.3145169,-68.041094,-176.36184)">
      <g
         id="g4664">
        <path
           style="opacity:1;fill:#c87c37;fill-opacity:1;fill-rule:nonzero;stroke:none;stroke-width:1.95728445;stroke-linecap:round;stroke-linejoin:miter;stroke-miterlimit:4;stroke-dasharray:none;stroke-opacity:0.89803922;paint-order:normal"
           d="m 150.98736,51.907069 v 95.178811 c 0,12.11778 9.75583,21.87308 21.87361,21.87308 h 71.43853 c 12.11779,0 21.87361,-9.7553 21.87361,-21.87308 V 50.587772 c -0.18463,0.1709 -0.37256,0.338878 -0.5819,0.480073 -0.2621,0.176787 -0.54213,0.328838 -0.83714,0.453202 -0.29501,0.124365 -0.60516,0.220851 -0.92657,0.286287 -0.32139,0.06544 -0.654,0.09974 -0.99529,0.09974 z"
           id="path4634"
           inkscape:connector-curvature="0" />
        <path
           style="opacity:1;fill:#656565;fill-opacity:1;fill-rule:nonzero;stroke:none;stroke-width:1.95728445;stroke-linecap:round;stroke-linejoin:miter;stroke-miterlimit:4;stroke-dasharray:none;stroke-opacity:0.89803922;paint-order:normal"
           d="m 150.98736,51.907069 h 113.45508 c 0.34129,0 0.6739,-0.0343 0.99529,-0.09974 0.32141,-0.06544 0.63156,-0.161922 0.92657,-0.286287 0.29501,-0.124364 0.57504,-0.276415 0.83714,-0.453202 0.20934,-0.141195 0.39727,-0.309173 0.5819,-0.480073 V 30.273764 c 0,-12.117786 -9.75582,-21.8736087 -21.87361,-21.8736087 h -73.04876 c -12.11778,0 -21.87361,9.7558227 -21.87361,21.8736087 z"
           id="rect4596"
           inkscape:connector-curvature="0"
           sodipodi:nodetypes="csccccssssc" />
        <ellipse
           style="opacity:1;fill:#c87c37;fill-opacity:1;fill-rule:nonzero;stroke:none;stroke-width:4.42395926;stroke-linecap:round;stroke-linejoin:miter;stroke-miterlimit:4;stroke-dasharray:none;stroke-opacity:0.89803922;paint-order:normal;enable-background:new"
           id="path4827-9"
           cx="263.80341"
           cy="90.228065"
           rx="20.252518"
           ry="21.307337"
           inkscape:export-filename="C:\Users\Ghuide\Desktop\learning\0.0 fatec\0.0 the toekoms of orixás\1.0 artwork and animations\2.0 NPC\0.0 elder\0.0 parts\head.png"
           inkscape:export-xdpi="25"
           inkscape:export-ydpi="25" />
        <ellipse
           style="opacity:1;fill:#d38d5f;fill-opacity:1;fill-rule:nonzero;stroke:none;stroke-width:4.78617334;stroke-linecap:round;stroke-linejoin:miter;stroke-miterlimit:4;stroke-dasharray:none;stroke-opacity:0.89803922;paint-order:normal;enable-background:new"
           id="path4829-3"
           cx="265.16901"
           cy="90.430916"
           rx="7.6824551"
           ry="6.7874117"
           inkscape:export-filename="C:\Users\Ghuide\Desktop\learning\0.0 fatec\0.0 the toekoms of orixás\1.0 artwork and animations\2.0 NPC\0.0 elder\0.0 parts\head.png"
           inkscape:export-xdpi="25"
           inkscape:export-ydpi="25" />
        <rect
           style="opacity:1;fill:#656565;fill-opacity:1;fill-rule:nonzero;stroke:none;stroke-width:0.63051981;stroke-linecap:round;stroke-linejoin:miter;stroke-miterlimit:4;stroke-dasharray:none;stroke-opacity:0.89803922;paint-order:normal;enable-background:new"
           id="rect4616-6"
           width="26.926334"
           height="101.83757"
           x="242.41722"
           y="42.73201"
           ry="11.000851" />
        <rect
           style="opacity:1;fill:#313131;fill-opacity:1;fill-rule:nonzero;stroke:none;stroke-width:0.21063229;stroke-linecap:round;stroke-linejoin:miter;stroke-miterlimit:4;stroke-dasharray:none;stroke-opacity:0.89803922;paint-order:normal;enable-background:new"
           id="rect4616-6-2"
           width="5.2225623"
           height="58.59412"
           x="253.17371"
           y="79.514748"
           ry="6.3295417" />
        <rect
           style="opacity:1;fill:#313131;fill-opacity:1;fill-rule:nonzero;stroke:none;stroke-width:0.12989797;stroke-linecap:round;stroke-linejoin:miter;stroke-miterlimit:4;stroke-dasharray:none;stroke-opacity:0.89803922;paint-order:normal;enable-background:new"
           id="rect4616-6-2-3"
           width="5.2225628"
           height="22.284809"
           x="253.11847"
           y="54.915878"
           ry="2.4072828" />
        <circle
           style="opacity:1;fill:#ffffff;fill-opacity:1;fill-rule:nonzero;stroke:none;stroke-width:3.17875338;stroke-linecap:round;stroke-linejoin:miter;stroke-miterlimit:4;stroke-dasharray:none;stroke-opacity:0.89803922;paint-order:normal"
           id="path4727-2"
           cx="169.46535"
           cy="83.466026"
           r="14.552069"
           inkscape:export-filename="C:\Users\Ghuide\Desktop\learning\0.0 fatec\0.0 the toekoms of orixás\1.0 artwork and animations\2.0 NPC\0.0 elder\0.0 parts\eyes idle.png"
           inkscape:export-xdpi="25"
           inkscape:export-ydpi="25" />
        <circle
           style="opacity:1;fill:#5ae3f7;fill-opacity:1;fill-rule:nonzero;stroke:none;stroke-width:1.78433704;stroke-linecap:round;stroke-linejoin:miter;stroke-miterlimit:4;stroke-dasharray:none;stroke-opacity:0.89803922;paint-order:normal"
           id="path4727-2-8"
           inkscape:export-filename="C:\Users\Ghuide\Desktop\learning\0.0 fatec\0.0 the toekoms of orixás\1.0 artwork and animations\2.0 NPC\0.0 elder\0.0 parts\eyes idle.png"
           inkscape:export-xdpi="25"
           inkscape:export-ydpi="25"
           cx="165.12865"
           cy="84.800133"
           r="8.1685476" />
        <circle
           style="opacity:1;fill:#e6e6e6;fill-opacity:1;fill-rule:nonzero;stroke:none;stroke-width:0.78283834;stroke-linecap:round;stroke-linejoin:miter;stroke-miterlimit:4;stroke-dasharray:none;stroke-opacity:0.89803922;paint-order:normal;enable-background:new"
           id="path4727-2-8-4"
           inkscape:export-filename="C:\Users\Ghuide\Desktop\learning\0.0 fatec\0.0 the toekoms of orixás\1.0 artwork and animations\2.0 NPC\0.0 elder\0.0 parts\eyes idle.png"
           inkscape:export-xdpi="25"
           inkscape:export-ydpi="25"
           cx="170.64128"
           cy="80.394081"
           r="3.5837688" />
        <circle
           style="opacity:1;fill:#ffffff;fill-opacity:1;fill-rule:nonzero;stroke:none;stroke-width:3.17875338;stroke-linecap:round;stroke-linejoin:miter;stroke-miterlimit:4;stroke-dasharray:none;stroke-opacity:0.89803922;paint-order:normal;enable-background:new"
           id="path4727-2-6"
           cx="208.61372"
           cy="83.424904"
           r="14.552069"
           inkscape:export-filename="C:\Users\Ghuide\Desktop\learning\0.0 fatec\0.0 the toekoms of orixás\1.0 artwork and animations\2.0 NPC\0.0 elder\0.0 parts\eyes idle.png"
           inkscape:export-xdpi="25"
           inkscape:export-ydpi="25" />
        <circle
           style="opacity:1;fill:#5ae3f7;fill-opacity:1;fill-rule:nonzero;stroke:none;stroke-width:1.78433716;stroke-linecap:round;stroke-linejoin:miter;stroke-miterlimit:4;stroke-dasharray:none;stroke-opacity:0.89803922;paint-order:normal;enable-background:new"
           id="path4727-2-8-8"
           inkscape:export-filename="C:\Users\Ghuide\Desktop\learning\0.0 fatec\0.0 the toekoms of orixás\1.0 artwork and animations\2.0 NPC\0.0 elder\0.0 parts\eyes idle.png"
           inkscape:export-xdpi="25"
           inkscape:export-ydpi="25"
           cx="204.27702"
           cy="84.758995"
           r="8.1685476" />
        <circle
           style="opacity:1;fill:#e6e6e6;fill-opacity:1;fill-rule:nonzero;stroke:none;stroke-width:0.78283834;stroke-linecap:round;stroke-linejoin:miter;stroke-miterlimit:4;stroke-dasharray:none;stroke-opacity:0.89803922;paint-order:normal;enable-background:new"
           id="path4727-2-8-4-7"
           inkscape:export-filename="C:\Users\Ghuide\Desktop\learning\0.0 fatec\0.0 the toekoms of orixás\1.0 artwork and animations\2.0 NPC\0.0 elder\0.0 parts\eyes idle.png"
           inkscape:export-xdpi="25"
           inkscape:export-ydpi="25"
           cx="209.78966"
           cy="80.352943"
           r="3.5837688" />
        <path
           style="fill:none;stroke:#000000;stroke-width:4.37141323;stroke-linecap:butt;stroke-linejoin:miter;stroke-miterlimit:4;stroke-dasharray:none;stroke-opacity:1"
           d="m 151.36729,63.201075 c -0.0347,0.31212 20.08308,-1.865041 33.87237,-0.42302"
           id="path4802"
           inkscape:connector-curvature="0"
           sodipodi:nodetypes="cc" />
        <path
           style="fill:none;stroke:#000000;stroke-width:4.37141323;stroke-linecap:butt;stroke-linejoin:miter;stroke-miterlimit:4;stroke-dasharray:none;stroke-opacity:1;enable-background:new"
           d="m 229.36781,63.485725 c -9e-4,0.666068 -20.73287,0.472775 -33.87237,-0.42302"
           id="path4802-6"
           inkscape:connector-curvature="0"
           sodipodi:nodetypes="cc" />
        <rect
           style="opacity:1;fill:#000000;fill-opacity:1;fill-rule:nonzero;stroke:none;stroke-width:3.42917037;stroke-linecap:round;stroke-linejoin:miter;stroke-miterlimit:4;stroke-dasharray:none;stroke-opacity:0.89803922;paint-order:normal;enable-background:new"
           id="rect4725-9-2-1-9"
           width="71.776634"
           height="7.451067"
           x="152.08052"
           y="129.16412"
           rx="8.5092068"
           ry="7.451067"
           inkscape:export-filename="C:\Users\Ghuide\Desktop\learning\0.0 fatec\0.0 the toekoms of orixás\1.0 artwork and animations\2.0 NPC\0.0 elder\0.0 parts\mouth idle.png"
           inkscape:export-xdpi="25"
           inkscape:export-ydpi="25" />
      </g>
    </g>
    <g
       id="g4579"
       inkscape:export-filename="C:\Users\homework\Desktop\Folthers\FATEC\Smaug\the toekoms of orixás\0.1 Digital\Assest\NPCs\Walking\BigMulher\Inkscape\Parts\front upper arm.png"
       inkscape:export-xdpi="25"
       inkscape:export-ydpi="25"
       transform="matrix(1.4612925,0,0,1.3145169,-102.88689,-184.01343)">
      <rect
         inkscape:export-ydpi="25"
         inkscape:export-xdpi="25"
         inkscape:export-filename="C:\Users\Ghuide\Desktop\learning\0.0 fatec\0.0 the toekoms of orixás\1.0 artwork and animations\2.0 NPC\0.0 elder\0.0 parts\rect4725-9-2-2.png"
         transform="matrix(0.95685124,-0.29057824,0.18509669,0.98272031,0,0)"
         ry="33.167404"
         rx="30.638351"
         y="246.74115"
         x="212.1216"
         height="116.76191"
         width="44.917175"
         id="rect4965"
         style="opacity:1;fill:#c87c37;fill-opacity:1;fill-rule:nonzero;stroke:none;stroke-width:6.01786804;stroke-linecap:round;stroke-linejoin:miter;stroke-miterlimit:4;stroke-dasharray:none;stroke-opacity:0.89803922;paint-order:normal;enable-background:new" />
      <rect
         inkscape:export-ydpi="25"
         inkscape:export-xdpi="25"
         inkscape:export-filename="C:\Users\Ghuide\Desktop\learning\0.0 fatec\0.0 the toekoms of orixás\1.0 artwork and animations\2.0 NPC\0.0 elder\0.0 parts\rect4725-9-2-2.png"
         transform="matrix(0.20468881,0.9788271,-0.9475894,0.31949073,0,0)"
         ry="2.8582397"
         rx="6.3012509"
         y="-247.27061"
         x="281.90561"
         height="2.8582397"
         width="53.152149"
         id="rect4725-9-2-2"
         style="opacity:1;fill:#d38d5f;fill-opacity:1;fill-rule:nonzero;stroke:none;stroke-width:1.82767117;stroke-linecap:round;stroke-linejoin:miter;stroke-miterlimit:4;stroke-dasharray:none;stroke-opacity:0.89803922;paint-order:normal;enable-background:new" />
    </g>
    <g
       id="g4595"
       inkscape:export-filename="C:\Users\homework\Desktop\Folthers\FATEC\Smaug\the toekoms of orixás\0.1 Digital\Assest\NPCs\Walking\BigMulher\Inkscape\Parts\front lower leg.png"
       inkscape:export-xdpi="25"
       inkscape:export-ydpi="25"
       transform="matrix(1.3145169,0,0,1.3145169,-68.041094,-176.36184)">
      <rect
         ry="21.042276"
         inkscape:export-ydpi="25"
         inkscape:export-xdpi="25"
         transform="matrix(0.99988003,-0.01548963,0.00415526,0.99999137,0,0)"
         y="382.6026"
         x="225.54137"
         height="100.54839"
         width="42.215302"
         id="rect4965-0-9-7"
         style="opacity:1;fill:#c87c37;fill-opacity:1;fill-rule:nonzero;stroke:none;stroke-width:5.41387653;stroke-linecap:round;stroke-linejoin:miter;stroke-miterlimit:4;stroke-dasharray:none;stroke-opacity:0.89803922;paint-order:normal;enable-background:new" />
      <rect
         inkscape:export-ydpi="25"
         inkscape:export-xdpi="25"
         transform="matrix(0.00555616,0.99998456,-0.99987361,0.0158983,0,0)"
         ry="2.3692746"
         rx="7.187336"
         y="-260.33008"
         x="399.0867"
         height="2.3692746"
         width="60.62645"
         id="rect4725-9-2-2-5-8"
         style="opacity:1;fill:#d38d5f;fill-opacity:1;fill-rule:nonzero;stroke:none;stroke-width:1.77716219;stroke-linecap:round;stroke-linejoin:miter;stroke-miterlimit:4;stroke-dasharray:none;stroke-opacity:0.89803922;paint-order:normal;enable-background:new" />
    </g>
    <path
       style="opacity:1;fill:#deaa87;fill-opacity:1;fill-rule:nonzero;stroke:none;stroke-width:5.83474159;stroke-linecap:round;stroke-linejoin:miter;stroke-miterlimit:4;stroke-dasharray:none;stroke-opacity:0.89803922;paint-order:normal;enable-background:new"
       d="m 246.06361,419.97805 a 41.701403,36.330638 0 0 0 -41.59129,34.41788 h 83.2156 a 41.701403,36.330638 0 0 0 -41.62431,-34.41788 z"
       id="path5078-3"
       inkscape:connector-curvature="0"
       inkscape:export-xdpi="25"
       inkscape:export-ydpi="25"
       inkscape:export-filename="C:\Users\homework\Desktop\Folthers\FATEC\Smaug\the toekoms of orixás\0.1 Digital\Assest\NPCs\Walking\Mulher\Inkscape\Parts\path5078-3.png" />
    <g
       id="g4585"
       inkscape:export-filename="C:\Users\homework\Desktop\Folthers\FATEC\Smaug\the toekoms of orixás\0.1 Digital\Assest\NPCs\Walking\BigMulher\Inkscape\Parts\front lower arm.png"
       inkscape:export-xdpi="25"
       inkscape:export-ydpi="25"
       transform="matrix(1.4612925,0,0,1.3145169,-102.88689,-184.01343)">
      <path
         inkscape:connector-curvature="0"
         id="path5006"
         d="m 311.84937,325.58195 c -0.0608,0.0458 -0.11745,0.0971 -0.18862,0.12713 -0.11205,0.0472 -0.23521,0.0734 -0.36483,0.0734 h -37.25974 l 0.51522,7.34272 c 1.10773,15.78102 10.36857,27.53661 20.76411,26.35808 10.3955,-1.17854 17.8726,-14.83159 16.76487,-30.61261 z"
         style="opacity:1;fill:#c87c37;fill-opacity:1;fill-rule:nonzero;stroke:none;stroke-width:5.11797142;stroke-linecap:round;stroke-linejoin:miter;stroke-miterlimit:4;stroke-dasharray:none;stroke-opacity:0.89803922;paint-order:normal;enable-background:new" />
      <path
         inkscape:connector-curvature="0"
         id="rect4965-2"
         d="m 290.2104,259.13174 c -0.63916,-0.0251 -1.28403,-0.003 -1.93374,0.0713 -10.39553,1.17853 -17.87313,14.83209 -16.7654,30.61311 l 1.92392,27.40504 c 0.0159,-0.008 0.027,-0.0225 0.0434,-0.0295 0.11205,-0.0472 0.23521,-0.0734 0.36483,-0.0734 h 37.41219 l -2.21538,-31.55674 c -1.03849,-14.79471 -9.24274,-26.05167 -18.82984,-26.42992 z"
         style="opacity:1;fill:#c87c37;fill-opacity:1;fill-rule:nonzero;stroke:none;stroke-width:5.11797142;stroke-linecap:round;stroke-linejoin:miter;stroke-miterlimit:4;stroke-dasharray:none;stroke-opacity:0.89803922;paint-order:normal;enable-background:new" />
      <rect
         inkscape:export-ydpi="25"
         inkscape:export-xdpi="25"
         transform="matrix(0.04057098,0.99917666,-0.99785653,0.0654396,0,0)"
         ry="2.8021619"
         rx="6.3783383"
         y="-293.13828"
         x="304.39609"
         height="2.8021619"
         width="53.802399"
         id="rect4725-9-2-2-5"
         style="opacity:1;fill:#d38d5f;fill-opacity:1;fill-rule:nonzero;stroke:none;stroke-width:1.82068884;stroke-linecap:round;stroke-linejoin:miter;stroke-miterlimit:4;stroke-dasharray:none;stroke-opacity:0.89803922;paint-order:normal;enable-background:new" />
      <path
         inkscape:connector-curvature="0"
         id="path5004"
         d="m 311.25562,316.41534 h -37.41219 c -0.12962,0 -0.25279,0.0283 -0.36484,0.0793 -0.0164,0.007 -0.0275,0.0235 -0.0434,0.0318 l 0.60101,9.25595 h 37.25973 c 0.12962,0 0.25278,-0.0283 0.36484,-0.0793 0.0712,-0.0324 0.12782,-0.0879 0.18862,-0.13745 z"
         style="opacity:1;fill:#782176;fill-opacity:1;fill-rule:nonzero;stroke:none;stroke-width:5.32157755;stroke-linecap:round;stroke-linejoin:miter;stroke-miterlimit:4;stroke-dasharray:none;stroke-opacity:0.89803922;paint-order:normal;enable-background:new" />
    </g>
  </g>
</svg>
