<?xml version="1.0" encoding="UTF-8" standalone="no"?>
<!-- Created with Inkscape (http://www.inkscape.org/) -->

<svg
   xmlns:dc="http://purl.org/dc/elements/1.1/"
   xmlns:cc="http://creativecommons.org/ns#"
   xmlns:rdf="http://www.w3.org/1999/02/22-rdf-syntax-ns#"
   xmlns:svg="http://www.w3.org/2000/svg"
   xmlns="http://www.w3.org/2000/svg"
   xmlns:sodipodi="http://sodipodi.sourceforge.net/DTD/sodipodi-0.dtd"
   xmlns:inkscape="http://www.inkscape.org/namespaces/inkscape"
   width="210mm"
   height="297mm"
   viewBox="0 0 210 297"
   version="1.1"
   id="svg8"
   inkscape:version="0.92.1 r15371"
   sodipodi:docname="docs #1.svg">
  <defs
     id="defs2" />
  <sodipodi:namedview
     id="base"
     pagecolor="#ffffff"
     bordercolor="#666666"
     borderopacity="1.0"
     inkscape:pageopacity="0.0"
     inkscape:pageshadow="2"
     inkscape:zoom="0.70710678"
     inkscape:cx="230.5257"
     inkscape:cy="510.69849"
     inkscape:document-units="mm"
     inkscape:current-layer="layer1"
     showgrid="false"
     inkscape:window-width="1280"
     inkscape:window-height="701"
     inkscape:window-x="-4"
     inkscape:window-y="-4"
     inkscape:window-maximized="1"
     objecttolerance="1"
     guidetolerance="1" />
  <metadata
     id="metadata5">
    <rdf:RDF>
      <cc:Work
         rdf:about="">
        <dc:format>image/svg+xml</dc:format>
        <dc:type
           rdf:resource="http://purl.org/dc/dcmitype/StillImage" />
        <dc:title />
      </cc:Work>
    </rdf:RDF>
  </metadata>
  <g
     inkscape:label="Camada 1"
     inkscape:groupmode="layer"
     id="layer1">
    <g
       id="g4285"
       transform="translate(-135.41148,97.366664)"
       inkscape:export-xdpi="90"
       inkscape:export-ydpi="90">
      <g
         id="g4280">
        <path
           transform="scale(-1)"
           style="fill:#d89a71;fill-opacity:1;stroke:none;stroke-width:2.23844123;stroke-miterlimit:4;stroke-dasharray:none;stroke-opacity:0.98728811"
           d="m -298.97559,-45.739918 h 169.28103 c 0.27914,0 0.50387,0.224729 0.50387,0.503876 v 2.921111 c 0,0.279147 -0.22473,0.503875 -0.50387,0.503875 h -169.28103 c -0.27915,0 -0.50388,-0.224728 -0.50388,-0.503875 v -2.921111 c 0,-0.279147 0.22473,-0.503876 0.50388,-0.503876 z"
           id="rect4871-4-9"
           inkscape:connector-curvature="0"
           sodipodi:nodetypes="sssssssss" />
        <path
           transform="rotate(90)"
           style="fill:#e3b79a;fill-opacity:1;stroke:none;stroke-width:1.53809988;stroke-miterlimit:4;stroke-dasharray:none;stroke-opacity:0.98728811"
           d="m 36.14101,-300.60199 h 52.312519 c 0.279148,0 0.503876,0.22472 0.503876,0.50387 v 2.92111 c 0,0.27915 -0.224728,0.50388 -0.503876,0.50388 H 36.14101 c -0.279147,0 -0.503875,-0.22473 -0.503875,-0.50388 v -2.92111 c 0,-0.27915 0.224728,-0.50387 0.503875,-0.50387 z"
           id="rect4871-4-5"
           inkscape:connector-curvature="0"
           sodipodi:nodetypes="sssssssss" />
        <rect
           style="fill:#e3b79a;fill-opacity:1;stroke:none;stroke-width:1.53809988;stroke-miterlimit:4;stroke-dasharray:none;stroke-opacity:0.98728811"
           id="rect4871-4"
           width="53.320271"
           height="3.9288619"
           x="35.637135"
           y="-130.43015"
           ry="0.50387561"
           transform="rotate(90)" />
      </g>
      <path
         inkscape:connector-curvature="0"
         id="path5110"
         d="m 302.06947,87.670487 c 0,-0.21229 -0.0344,-0.41394 -0.0961,-0.59743 -0.0618,-0.1835 -0.15089,-0.34888 -0.26148,-0.4874 -0.11059,-0.13852 -0.24262,-0.25016 -0.38912,-0.32751 -0.1465,-0.0774 -0.3075,-0.1204 -0.47698,-0.1204 H 126.38598 c -0.16948,0 -0.33047,0.043 -0.47697,0.1204 -0.1465,0.0773 -0.27854,0.18899 -0.38913,0.32751 -0.11059,0.13852 -0.19972,0.3039 -0.26148,0.4874 -0.0618,0.18349 -0.0961,0.38514 -0.0961,0.59743 v 3.49589 c 0,0.84913 0.54577,1.53273 1.2237,1.53273 h 174.45979 c 0.67793,0 1.2237,-0.6836 1.2237,-1.53273 z"
         style="fill:#b76733;fill-opacity:1;stroke:none;stroke-width:4.01683331;stroke-miterlimit:4;stroke-dasharray:none;stroke-opacity:0.98728811"
         sodipodi:nodetypes="ccscsscscsssscc" />
      <path
         inkscape:connector-curvature="0"
         id="rect4871"
         d="m 126.38598,83.15757 c -0.67793,0 -1.2237,0.545769 -1.2237,1.223698 v 4.303098 c 0,-0.169484 0.0344,-0.330475 0.0961,-0.476975 0.0618,-0.1465 0.15089,-0.278532 0.26148,-0.389122 0.11059,-0.110594 0.24263,-0.199726 0.38913,-0.261483 0.1465,-0.06176 0.30749,-0.09612 0.47697,-0.09612 h 174.45979 c 0.16948,0 0.33048,0.03436 0.47698,0.09612 0.1465,0.06176 0.27853,0.150889 0.38912,0.261483 0.11059,0.11059 0.19972,0.242622 0.26148,0.389122 0.0618,0.1465 0.0961,0.307491 0.0961,0.476975 v -4.303098 c 0,-0.677929 -0.54577,-1.223698 -1.2237,-1.223698 z"
         style="fill:#d28a5b;fill-opacity:1;stroke:none;stroke-width:3.58911991;stroke-miterlimit:4;stroke-dasharray:none;stroke-opacity:0.98728811"
         sodipodi:nodetypes="ssccccssscccsss" />
    </g>
    <g
       id="g4293"
       inkscape:export-xdpi="90"
       inkscape:export-ydpi="90"
       transform="translate(-95.066523,97.366664)">
      <path
         inkscape:connector-curvature="0"
         id="path4699-4"
         d="m 136.58053,63.145627 v -21.75797 l 1.04143,-2.6397 1.11938,-1.10875 1.286,1.32615 0.94647,2.4223 v 21.75797 z"
         style="fill:#803300;stroke:none;stroke-width:8.82574463;stroke-miterlimit:4;stroke-dasharray:none;stroke-opacity:0.98728811" />
      <path
         inkscape:connector-curvature="0"
         id="rect4567-5-7"
         d="m 136.58053,62.993737 h 4.39328 v 3.40437 h -4.39328 z"
         style="fill:#552200;stroke:none;stroke-width:8.79942513;stroke-miterlimit:4;stroke-dasharray:none;stroke-opacity:0.98728811" />
      <path
         sodipodi:nodetypes="cccccccc"
         inkscape:connector-curvature="0"
         id="rect4567-5-9-7"
         d="m 140.97392,84.308497 v 2.60596 l -1.04146,0.97747 -1.11928,0.14281 -1.28596,-0.1708 -0.94663,-0.94948 v -2.60596 z"
         style="fill:#803300;stroke:none;stroke-width:3.16740942;stroke-miterlimit:4;stroke-dasharray:none;stroke-opacity:0.98728811" />
      <path
         inkscape:connector-curvature="0"
         id="path4694-9"
         d="m 139.65679,84.894977 c -0.37986,0 -0.75057,-0.045 -1.10829,-0.13036 -0.35773,-0.0854 -0.70237,-0.21104 -1.03072,-0.3733 -0.32834,-0.16226 -0.64035,-0.36092 -0.93207,-0.59158 -0.29173,-0.23066 -0.56341,-0.49329 -0.81127,-0.78385 -0.24787,-0.29057 -0.47191,-0.60904 -0.66867,-0.95103 -0.19677,-0.34198 -0.36623,-0.70772 -0.50465,-1.09263 -0.13842,-0.38491 -0.24599,-0.78892 -0.31882,-1.20827 -0.0729,-0.41935 -0.11083,-0.85392 -0.11083,-1.29921 v -5.98677 c 0,-0.44529 0.038,-0.87986 0.11083,-1.29921 0.0728,-0.41935 0.1804,-0.82336 0.31882,-1.20826 0.13842,-0.38492 0.30788,-0.75066 0.50465,-1.09264 0.19676,-0.34198 0.4208,-0.66046 0.66867,-0.95102 0.24786,-0.29057 0.51954,-0.5532 0.81127,-0.78386 0.29172,-0.23066 0.60373,-0.42931 0.93207,-0.59158 0.32835,-0.16226 0.67299,-0.28793 1.03072,-0.3733 0.35772,-0.0854 0.72843,-0.13036 1.10829,-0.13036 h 7.47213 c 3.03887,0 5.48532,2.86789 5.48532,6.43023 v 5.98677 c 0,3.56235 -2.44645,6.43023 -5.48532,6.43023 z"
         style="fill:#ac9393;stroke:none;stroke-width:2.22254634;stroke-miterlimit:4;stroke-dasharray:none;stroke-opacity:0.98728811" />
      <path
         inkscape:connector-curvature="0"
         id="rect4653-6"
         d="m 138.61837,84.894977 c -3.14471,0 -5.67637,-2.86788 -5.67637,-6.43023 v -5.98677 c 0,-3.56234 2.53166,-6.43023 5.67637,-6.43023 h 1.27228 c -0.39309,0 -0.77671,0.045 -1.14689,0.13036 -0.37019,0.0854 -0.72683,0.21104 -1.06662,0.3733 -0.33977,0.16227 -0.66265,0.36092 -0.96453,0.59158 -0.30189,0.23066 -0.58303,0.49329 -0.83952,0.78386 -0.25651,0.29056 -0.48835,0.60904 -0.69196,0.95102 -0.20362,0.34198 -0.37899,0.70772 -0.52223,1.09264 -0.14324,0.3849 -0.25455,0.78891 -0.32992,1.20826 -0.0754,0.41935 -0.11469,0.85392 -0.11469,1.29921 v 5.98677 c 0,0.44529 0.0393,0.87986 0.11469,1.29921 0.0753,0.41935 0.18668,0.82336 0.32992,1.20827 0.14324,0.38491 0.31861,0.75065 0.52223,1.09263 0.20361,0.34199 0.43545,0.66046 0.69196,0.95103 0.25649,0.29056 0.53763,0.55319 0.83952,0.78385 0.30188,0.23066 0.62476,0.42932 0.96453,0.59158 0.33979,0.16226 0.69643,0.28793 1.06662,0.3733 0.37018,0.0854 0.7538,0.13036 1.14689,0.13036 z"
         style="fill:#916f6f;stroke:none;stroke-width:2.26091814;stroke-miterlimit:4;stroke-dasharray:none;stroke-opacity:0.98728811" />
      <path
         inkscape:connector-curvature="0"
         id="path4655-2"
         d="m 149.18074,63.935237 a 5.1543117,12.167544 0 0 1 0.249,0.13208 5.1543117,12.167544 0 0 1 0.48876,0.3837 5.1543117,12.167544 0 0 1 0.47029,0.49674 5.1543117,12.167544 0 0 1 0.44701,0.60499 5.1543117,12.167544 0 0 1 0.41893,0.70764 5.1543117,12.167544 0 0 1 0.38717,0.80248 5.1543117,12.167544 0 0 1 0.35133,0.88996 5.1543117,12.167544 0 0 1 0.3118,0.96834 5.1543117,12.167544 0 0 1 0.26931,1.03678 5.1543117,12.167544 0 0 1 0.22388,1.09523 5.1543117,12.167544 0 0 1 0.17658,1.14244 5.1543117,12.167544 0 0 1 0.12783,1.17882 5.1543117,12.167544 0 0 1 0.0769,1.2022 5.1543117,12.167544 0 0 1 0.0259,1.21477 5.1543117,12.167544 0 0 1 -0.0129,0.86094 5.1543117,12.167544 0 0 1 -0.0621,1.2074 5.1543117,12.167544 0 0 1 -0.11305,1.18661 5.1543117,12.167544 0 0 1 -0.16255,1.15414 5.1543117,12.167544 0 0 1 -0.2102,1.11039 5.1543117,12.167544 0 0 1 -0.25639,1.05496 5.1543117,12.167544 0 0 1 -0.29961,0.98913 5.1543117,12.167544 0 0 1 -0.34025,0.91378 5.1543117,12.167544 0 0 1 -0.37682,0.82889 5.1543117,12.167544 0 0 1 -0.41007,0.73622 5.1543117,12.167544 0 0 1 -0.43925,0.63575 5.1543117,12.167544 0 0 1 -0.46401,0.52878 5.1543117,12.167544 0 0 1 -0.48395,0.41705 5.1543117,12.167544 0 0 1 -0.35946,0.21653 5.1543117,12.167544 0 0 1 -4.02459,-11.85573 5.1543117,12.167544 0 0 1 3.9906,-11.84101 z"
         style="fill:#ac9393;stroke:none;stroke-width:2.37238002;stroke-miterlimit:4;stroke-dasharray:none;stroke-opacity:0.98728811" />
      <path
         inkscape:connector-curvature="0"
         id="path4676-5"
         d="m 149.11573,63.935237 a 5.2073556,12.167544 0 0 1 1.17568,-0.32654 5.2073556,12.167544 0 0 1 5.20736,12.16755 5.2073556,12.167544 0 0 1 -5.20736,12.16754 5.2073556,12.167544 0 0 1 -1.14134,-0.31181 5.2073556,12.167544 0 0 0 0.36314,-0.21653 5.2073556,12.167544 0 0 0 0.48894,-0.41705 5.2073556,12.167544 0 0 0 0.46879,-0.52878 5.2073556,12.167544 0 0 0 0.44377,-0.63575 5.2073556,12.167544 0 0 0 0.41429,-0.73622 5.2073556,12.167544 0 0 0 0.3807,-0.82889 5.2073556,12.167544 0 0 0 0.34375,-0.91378 5.2073556,12.167544 0 0 0 0.30269,-0.98913 5.2073556,12.167544 0 0 0 0.25902,-1.05496 5.2073556,12.167544 0 0 0 0.21237,-1.11039 5.2073556,12.167544 0 0 0 0.16423,-1.15414 5.2073556,12.167544 0 0 0 0.11421,-1.18661 5.2073556,12.167544 0 0 0 0.0627,-1.2074 5.2073556,12.167544 0 0 0 0.0131,-0.86094 5.2073556,12.167544 0 0 0 -0.0262,-1.21477 5.2073556,12.167544 0 0 0 -0.0776,-1.2022 5.2073556,12.167544 0 0 0 -0.12913,-1.17882 5.2073556,12.167544 0 0 0 -0.17842,-1.14244 5.2073556,12.167544 0 0 0 -0.22618,-1.09523 5.2073556,12.167544 0 0 0 -0.27209,-1.03678 5.2073556,12.167544 0 0 0 -0.31501,-0.96834 5.2073556,12.167544 0 0 0 -0.35494,-0.88996 5.2073556,12.167544 0 0 0 -0.39115,-0.80248 5.2073556,12.167544 0 0 0 -0.42325,-0.70764 5.2073556,12.167544 0 0 0 -0.45161,-0.60499 5.2073556,12.167544 0 0 0 -0.47512,-0.49674 5.2073556,12.167544 0 0 0 -0.49379,-0.3837 5.2073556,12.167544 0 0 0 -0.25156,-0.13208 z"
         style="fill:#916f6f;stroke:none;stroke-width:2.38455629;stroke-miterlimit:4;stroke-dasharray:none;stroke-opacity:0.98728811" />
    </g>
    <g
       id="g4308"
       inkscape:export-xdpi="90"
       inkscape:export-ydpi="90"
       transform="translate(-170.27617,97.366664)">
      <g
         id="g4582"
         transform="translate(-13.844562)">
        <path
           sodipodi:type="star"
           style="fill:#916f6f;stroke:none;stroke-width:3.06500006;stroke-miterlimit:4;stroke-dasharray:none;stroke-opacity:0.98728811"
           id="path4610-8-8"
           sodipodi:sides="3"
           sodipodi:cx="-195.41162"
           sodipodi:cy="-84.981506"
           sodipodi:r1="3.8756039"
           sodipodi:r2="1.937802"
           sodipodi:arg1="0.52359878"
           sodipodi:arg2="1.5707963"
           inkscape:flatsided="true"
           inkscape:rounded="0"
           inkscape:randomized="0"
           d="m -192.05525,-83.043704 -6.71274,0 3.35637,-5.813406 z"
           inkscape:transform-center-x="-9.7420712e-006"
           inkscape:transform-center-y="0.96890683"
           transform="scale(-1)" />
        <path
           sodipodi:type="star"
           style="fill:#916f6f;stroke:none;stroke-width:3.06500006;stroke-miterlimit:4;stroke-dasharray:none;stroke-opacity:0.98728811"
           id="path4610-5-2"
           sodipodi:sides="3"
           sodipodi:cx="-146.57916"
           sodipodi:cy="55.50156"
           sodipodi:r1="3.8756039"
           sodipodi:r2="1.937802"
           sodipodi:arg1="0.52359878"
           sodipodi:arg2="1.5707963"
           inkscape:flatsided="true"
           inkscape:rounded="0"
           inkscape:randomized="0"
           d="m -143.22279,57.439362 -6.71274,0 3.35637,-5.813406 z"
           inkscape:transform-center-x="-0.96889702"
           inkscape:transform-center-y="-3.8367655e-006"
           transform="rotate(90,21.173167,235.37242)" />
        <path
           sodipodi:type="star"
           style="fill:#916f6f;stroke:none;stroke-width:3.06500006;stroke-miterlimit:4;stroke-dasharray:none;stroke-opacity:0.98728811"
           id="path4610-6-7-1"
           sodipodi:sides="3"
           sodipodi:cx="-146.57916"
           sodipodi:cy="55.50156"
           sodipodi:r1="3.8756039"
           sodipodi:r2="1.937802"
           sodipodi:arg1="0.52359878"
           sodipodi:arg2="1.5707963"
           inkscape:flatsided="true"
           inkscape:rounded="0"
           inkscape:randomized="0"
           d="m -143.22279,57.439362 -6.71274,0 3.35637,-5.813406 z"
           inkscape:transform-center-x="0.96889974"
           inkscape:transform-center-y="2.4632345e-006"
           transform="matrix(0,1,1,0,133.82077,214.05896)" />
        <path
           sodipodi:type="star"
           style="fill:#916f6f;stroke:none;stroke-width:3.06500006;stroke-miterlimit:4;stroke-dasharray:none;stroke-opacity:0.98728811"
           id="path4610-6-3"
           sodipodi:sides="3"
           sodipodi:cx="-146.57916"
           sodipodi:cy="55.50156"
           sodipodi:r1="3.8756039"
           sodipodi:r2="1.937802"
           sodipodi:arg1="0.52359878"
           sodipodi:arg2="1.5707963"
           inkscape:flatsided="true"
           inkscape:rounded="0"
           inkscape:randomized="0"
           d="m -143.22279,57.439362 -6.71274,0 3.35637,-5.813406 z"
           inkscape:transform-center-x="0.96889974"
           inkscape:transform-center-y="-2.5367655e-006"
           transform="matrix(0,1,1,0,134.61589,224.76978)" />
        <path
           sodipodi:type="star"
           style="fill:#916f6f;stroke:none;stroke-width:3.06500006;stroke-miterlimit:4;stroke-dasharray:none;stroke-opacity:0.98728811"
           id="path4610-1"
           sodipodi:sides="3"
           sodipodi:cx="-146.57916"
           sodipodi:cy="55.50156"
           sodipodi:r1="3.8756039"
           sodipodi:r2="1.937802"
           sodipodi:arg1="0.52359878"
           sodipodi:arg2="1.5707963"
           inkscape:flatsided="true"
           inkscape:rounded="0"
           inkscape:randomized="0"
           d="m -143.22279,57.439362 -6.71274,0 3.35637,-5.813406 z"
           inkscape:transform-center-x="-0.96890202"
           inkscape:transform-center-y="1.1632344e-006"
           transform="rotate(90,15.700822,240.47059)" />
        <path
           inkscape:connector-curvature="0"
           style="fill:#803300;stroke:none;stroke-width:8.82574463;stroke-miterlimit:4;stroke-dasharray:none;stroke-opacity:0.98728811"
           d="m 197.56926,51.633097 h -4.39301 v -16.69665 l 1.04128,-2.63963 1.11931,-1.10847 1.28623,1.32602 0.94619,2.42208 z"
           id="path4702-7" />
        <path
           inkscape:connector-curvature="0"
           style="fill:#d45500;stroke:none;stroke-width:8.82574463;stroke-miterlimit:4;stroke-dasharray:none;stroke-opacity:0.98728811"
           d="m 197.56926,54.080497 h -4.39301 v -2.4474 h 4.39301 z"
           id="path4700-1" />
        <path
           inkscape:connector-curvature="0"
           style="fill:#803300;stroke:none;stroke-width:8.82574463;stroke-miterlimit:4;stroke-dasharray:none;stroke-opacity:0.98728811"
           d="m 193.17625,56.694807 v -2.61431 h 4.39301 v 2.61431 z"
           id="path4699-3-4" />
        <path
           style="fill:#552200;stroke:none;stroke-width:8.79942513;stroke-miterlimit:4;stroke-dasharray:none;stroke-opacity:0.98728811"
           d="m 193.17616,56.542687 h 4.39328 v 3.40437 h -4.39328 z"
           id="rect4567-5-2-3"
           inkscape:connector-curvature="0" />
        <rect
           style="fill:#803300;stroke:#803300;stroke-width:1.870152;stroke-miterlimit:4;stroke-dasharray:none;stroke-opacity:0.98728811"
           id="rect4814-5"
           width="10.748347"
           height="25.071236"
           x="189.90509"
           y="-84.111328"
           ry="7.7405729"
           transform="scale(1,-1)" />
        <path
           sodipodi:type="star"
           style="fill:#ac9393;stroke:none;stroke-width:2.06381965;stroke-miterlimit:4;stroke-dasharray:none;stroke-opacity:0.98728811"
           id="path4838-85"
           sodipodi:sides="7"
           sodipodi:cx="195.35416"
           sodipodi:cy="-78.78421"
           sodipodi:r1="3.8608179"
           sodipodi:r2="3.478477"
           sodipodi:arg1="0.88344344"
           sodipodi:arg2="1.3322424"
           inkscape:flatsided="true"
           inkscape:rounded="0"
           inkscape:randomized="0"
           d="m 197.80382,-75.800075 -3.25541,0.791667 -2.64867,-2.05159 -0.0474,-3.349956 2.58953,-2.125738 3.27652,0.699204 1.49622,2.997632 z"
           inkscape:transform-center-x="-0.17929765"
           inkscape:transform-center-y="-0.01215283"
           transform="scale(1,-1)" />
        <path
           sodipodi:type="star"
           style="fill:#6c5353;stroke:none;stroke-width:1.48761284;stroke-miterlimit:4;stroke-dasharray:none;stroke-opacity:0.98728811"
           id="path4838-8-1"
           sodipodi:sides="7"
           sodipodi:cx="195.30067"
           sodipodi:cy="-78.769958"
           sodipodi:r1="2.7828999"
           sodipodi:r2="2.5073056"
           sodipodi:arg1="0.88344344"
           sodipodi:arg2="1.3322424"
           inkscape:flatsided="true"
           inkscape:rounded="0"
           inkscape:randomized="0"
           d="m 197.06641,-76.618976 -2.34653,0.570637 -1.90917,-1.478797 -0.0342,-2.414668 1.86655,-1.532245 2.36173,0.503991 1.07849,2.16071 z"
           inkscape:transform-center-x="-0.12926161"
           inkscape:transform-center-y="-0.0087713161"
           transform="scale(1,-1)" />
        <path
           sodipodi:type="star"
           style="fill:#c8b7b7;stroke:none;stroke-width:0.32336766;stroke-miterlimit:4;stroke-dasharray:none;stroke-opacity:0.98728811"
           id="path4838-8-6-6"
           sodipodi:sides="7"
           sodipodi:cx="195.2411"
           sodipodi:cy="-78.91925"
           sodipodi:r1="0.60492861"
           sodipodi:r2="0.54502183"
           sodipodi:arg1="0.88344344"
           sodipodi:arg2="1.3322424"
           inkscape:flatsided="true"
           inkscape:rounded="0"
           inkscape:randomized="0"
           d="m 195.62493,-78.451684 -0.51007,0.124041 -0.41501,-0.321451 -0.007,-0.524885 0.40574,-0.333069 0.51338,0.109554 0.23443,0.469681 z"
           inkscape:transform-center-x="-0.028090247"
           inkscape:transform-center-y="-0.0018991991"
           transform="scale(1,-1)" />
        <path
           sodipodi:type="star"
           style="fill:#ac9393;stroke:none;stroke-width:2.06381965;stroke-miterlimit:4;stroke-dasharray:none;stroke-opacity:0.98728811"
           id="path4838-4-9"
           sodipodi:sides="7"
           sodipodi:cx="195.21735"
           sodipodi:cy="-67.914139"
           sodipodi:r1="3.8608179"
           sodipodi:r2="3.4784772"
           sodipodi:arg1="0.88344344"
           sodipodi:arg2="1.3322424"
           inkscape:flatsided="true"
           inkscape:rounded="0"
           inkscape:randomized="0"
           d="m 197.66701,-64.930003 -3.25541,0.791666 -2.64867,-2.051589 -0.0474,-3.349957 2.58953,-2.125738 3.27652,0.699204 1.49622,2.997632 z"
           inkscape:transform-center-x="-0.17929765"
           inkscape:transform-center-y="-0.012168089"
           transform="scale(1,-1)" />
        <path
           sodipodi:type="star"
           style="fill:#6c5353;stroke:none;stroke-width:1.48761284;stroke-miterlimit:4;stroke-dasharray:none;stroke-opacity:0.98728811"
           id="path4838-8-3-1"
           sodipodi:sides="7"
           sodipodi:cx="195.16388"
           sodipodi:cy="-67.899933"
           sodipodi:r1="2.7829001"
           sodipodi:r2="2.5073056"
           sodipodi:arg1="0.88344344"
           sodipodi:arg2="1.3322424"
           inkscape:flatsided="true"
           inkscape:rounded="0"
           inkscape:randomized="0"
           d="m 196.92961,-65.748951 -2.34652,0.570638 -1.90918,-1.478797 -0.0342,-2.414669 1.86656,-1.532244 2.36173,0.50399 1.07848,2.160711 z"
           inkscape:transform-center-x="-0.12926161"
           inkscape:transform-center-y="-0.0087560573"
           transform="scale(1,-1)" />
        <path
           sodipodi:type="star"
           style="fill:#c8b7b7;stroke:none;stroke-width:0.32336769;stroke-miterlimit:4;stroke-dasharray:none;stroke-opacity:0.98728811"
           id="path4838-8-6-1-1"
           sodipodi:sides="7"
           sodipodi:cx="195.10431"
           sodipodi:cy="-68.049179"
           sodipodi:r1="0.60492861"
           sodipodi:r2="0.54502183"
           sodipodi:arg1="0.88344344"
           sodipodi:arg2="1.3322424"
           inkscape:flatsided="true"
           inkscape:rounded="0"
           inkscape:randomized="0"
           d="m 195.48813,-67.581613 -0.51007,0.124042 -0.415,-0.321451 -0.007,-0.524885 0.40574,-0.33307 0.51337,0.109555 0.23444,0.469681 z"
           inkscape:transform-center-x="-0.028090247"
           inkscape:transform-center-y="-0.0019144579"
           transform="scale(1,-1)" />
        <path
           inkscape:connector-curvature="0"
           style="fill:#ff0000;stroke:none;stroke-width:8.82574558;stroke-miterlimit:4;stroke-dasharray:none;stroke-opacity:0.98728811"
           d="m 197.56926,51.633097 h -4.39301 v -2.44739 h 4.39301 z"
           id="path4700-7-9" />
      </g>
    </g>
    <g
       id="g4302"
       inkscape:export-xdpi="90"
       inkscape:export-ydpi="90"
       transform="translate(-126.12324,97.366664)">
      <g
         id="g4563"
         transform="translate(35.546847)">
        <path
           style="fill:#ac9393;stroke:none;stroke-width:0.31893289px;stroke-linecap:butt;stroke-linejoin:miter;stroke-opacity:1"
           d="m 166.61754,26.281497 c 0.0546,0.24541 0.0539,0.43441 0.13368,0.68988 0.1238,0.39643 0.28081,0.79786 0.47981,1.18184 0.19899,0.38398 0.44016,0.75054 0.7321,1.07746 0.29193,0.32691 0.63437,0.61399 1.03696,0.83922 0.20128,0.11262 0.41722,0.20953 0.6495,0.28836 0.23227,0.0788 0.48089,0.13933 0.74636,0.1788 0.26548,0.0395 0.51507,0.0482 0.74937,0.0295 0.23432,-0.0187 0.45345,-0.0644 0.65853,-0.13384 0.41014,-0.13891 0.76356,-0.3719 1.06848,-0.66922 0.30491,-0.29731 0.56117,-0.65892 0.77639,-1.05523 0.21524,-0.39631 0.38979,-0.8276 0.53088,-1.26349 0.13993,-0.43227 0.17082,-0.79519 0.25304,-1.20819 l -3.89778,-9.25008 z"
           id="path4585-2"
           inkscape:connector-curvature="0" />
        <g
           id="g4556">
          <path
             sodipodi:nodetypes="cccccccc"
             inkscape:connector-curvature="0"
             id="path4621-1"
             d="m 169.6736,32.988067 h -0.76889 v 54.68956 l 1.78444,0.49519 1.84002,-0.47765 v -3.22652 h -2.85557 z"
             style="fill:#552200;stroke:none;stroke-width:9.49162006;stroke-miterlimit:4;stroke-dasharray:none;stroke-opacity:0.98728811" />
          <path
             inkscape:connector-curvature="0"
             id="rect4567-3"
             d="m 169.61765,32.988067 v 51.57567 h 2.90363 v -51.57567 z"
             style="fill:#803300;stroke:none;stroke-width:9.57998753;stroke-miterlimit:4;stroke-dasharray:none;stroke-opacity:0.98728811" />
        </g>
        <path
           style="fill:#916f6f;stroke:none;stroke-width:0.31893289px;stroke-linecap:butt;stroke-linejoin:miter;stroke-opacity:1"
           d="m 166.61755,26.256697 -0.32588,0.77256 c 0,0 -0.14334,6.02657 4.10427,6.65799 4.24757,0.63143 4.38134,-6.65799 4.38134,-6.65799 l -0.34465,-0.81752 c -0.0822,0.413 -0.11314,0.77592 -0.25305,1.20819 -0.14109,0.43589 -0.31563,0.86718 -0.53087,1.26349 -0.21522,0.39631 -0.47148,0.75792 -0.77639,1.05524 -0.30493,0.29731 -0.65833,0.5303 -1.06849,0.66921 -0.20508,0.0695 -0.42421,0.11513 -0.65852,0.13384 -0.2343,0.0187 -0.4839,0.01 -0.74937,-0.0295 -0.26547,-0.0395 -0.51409,-0.1 -0.74637,-0.1788 -0.23227,-0.0788 -0.44821,-0.17574 -0.6495,-0.28836 -0.40259,-0.22523 -0.74503,-0.51231 -1.03696,-0.83922 -0.29193,-0.32692 -0.53311,-0.69348 -0.7321,-1.07746 -0.19899,-0.38398 -0.35604,-0.78541 -0.4798,-1.18183 -0.0798,-0.25548 -0.0791,-0.44448 -0.13367,-0.68989 z"
           id="path4603-6"
           inkscape:connector-curvature="0" />
      </g>
    </g>
    <g
       transform="matrix(0,0.15321913,-0.15321913,0,149.16376,180.84151)"
       style="enable-background:new"
       id="g4692"
       inkscape:export-filename="F:\MyGames\The Toekoms of orixas\Assest\NPCs\GuardMelee\Inkscape\Parts\g4692.png"
       inkscape:export-xdpi="96.787834"
       inkscape:export-ydpi="96.787834">
      <path
         inkscape:connector-curvature="0"
         id="path5094"
         d="m -153.79097,51.340689 v -37.38022 c -0.17355,-0.0136 -0.34036,-0.03 -0.51504,-0.043 v 37.52496 c 0.0435,-0.01 0.085,-0.0202 0.12854,-0.0298 0.12505,-0.026 0.26092,-0.0462 0.3865,-0.0719 z"
         style="opacity:1;fill:#666666;fill-opacity:1;fill-rule:nonzero;stroke:none;stroke-width:0;stroke-linecap:round;stroke-linejoin:miter;stroke-miterlimit:4;stroke-dasharray:none;stroke-opacity:0.89803922;paint-order:normal" />
      <path
         inkscape:connector-curvature="0"
         id="path5150"
         d="m -103.77448,48.486599 c 1.8482,0.13104 3.68887,0.2738 5.496491,0.45519 0.38611,0.0388 0.75446,0.0937 1.13827,0.13473 v -32.80324 c -0.90741,0.0955 -1.79548,0.20992 -2.71493,0.29275 -1.291131,0.11628 -2.609901,0.1945 -3.919831,0.28538 z"
         style="opacity:1;fill:#999999;fill-opacity:1;fill-rule:nonzero;stroke:none;stroke-width:0;stroke-linecap:round;stroke-linejoin:miter;stroke-miterlimit:4;stroke-dasharray:none;stroke-opacity:0.89803922;paint-order:normal" />
      <path
         inkscape:connector-curvature="0"
         id="path5159"
         d="m -144.79417,15.486419 c -1.69832,-0.24386 -3.3846,-0.49704 -5.01477,-0.78597 -1.19936,-0.22229 -2.37721,-0.45657 -3.53185,-0.70254 -0.13895,-0.0171 -0.2985,-0.0256 -0.45018,-0.0374 v 37.38022 c 1.75849,-0.36103 3.55749,-0.70106 5.41217,-1.00737 1.16739,-0.19276 2.38474,-0.35021 3.58463,-0.52035 z"
         style="opacity:1;fill:#999999;fill-opacity:1;fill-rule:nonzero;stroke:none;stroke-width:0;stroke-linecap:round;stroke-linejoin:miter;stroke-miterlimit:4;stroke-dasharray:none;stroke-opacity:0.89803922;paint-order:normal" />
      <path
         inkscape:connector-curvature="0"
         id="path5197"
         d="m -53.030089,64.603449 c 0.33849,0.45713 0.64812,0.91656 0.89445,1.38001 0.27446,0.5162 0.47054,1.03605 0.62913,1.5572 0.13432,-0.0148 0.27607,-0.0239 0.41009,-0.0389 2.708861,-0.30324 5.362521,-0.64607 7.95612,-1.02654 2.5936,-0.38045 5.127108,-0.79851 7.596148,-1.25206 2.46904,-0.45355 4.873612,-0.94271 7.208765,-1.46522 2.335167,-0.52251 4.600825,-1.07838 6.792792,-1.6657 1.095976,-0.29366 2.173597,-0.5951 3.232033,-0.90419 1.058436,-0.30909 2.097914,-0.62587 3.117648,-0.94989 1.019734,-0.324 2.019573,-0.6554 2.999428,-0.99382 0.979854,-0.3384 1.939724,-0.68367 2.8785509,-1.03596 0.938813,-0.35228 1.856645,-0.71159 2.753254,-1.07725 0.896623,-0.36565 1.772055,-0.73765 2.625312,-1.11616 0.853258,-0.37851 1.684508,-0.76336 2.493237,-1.1542 0.80872905,-0.39082 1.59487605,-0.78779 2.35791505,-1.19045 0.76302295,-0.40264 1.50287595,-0.81099 2.21906095,-1.22494 0.716155,-0.41395 1.408506,-0.83353 2.076661,-1.25827 0.668139,-0.42473 1.312052,-0.8548 1.931014,-1.28981 0.618977,-0.435 1.212943,-0.87482 1.781565,-1.31958 0.568607,-0.44474 1.1120361,-0.89419 1.6291261,-1.34817 0.517105,-0.45398 1.008171,-0.91261 1.472597,-1.3753 0.464425,-0.46271 0.902223,-0.92976 1.312807,-1.40066 0.410568,-0.47092 0.793891,-0.94566 1.14947,-1.42425 0.35558,-0.47858 0.683204,-0.96088 0.982617,-1.44665 0.299398,-0.48575 0.570434,-0.97487 0.812503,-1.46728 0.242069,-0.49241 0.455293,-0.98819 0.638856,-1.48674 0.183564,-0.49854 0.337481,-0.99998 0.461376,-1.50413 0.12391,-0.50417 0.217586,-1.01109 0.280666,-1.52036 0.06308,-0.50927 0.09561,-1.02094 0.0967,-1.5348 0,-0.51721 -0.03295,-1.03197 -0.09639,-1.54452 -0.06346,-0.51253 -0.157978,-1.02274 -0.28302,-1.53008 -0.125058,-0.50733 -0.280651,-1.01194 -0.466101,-1.51356 -0.18545,-0.50163 -0.400984,-1.00022 -0.645649,-1.49558 -0.24465,-0.49539 -0.518373,-0.98753 -0.821046,-1.47613 -0.302689,-0.48863 -0.634313,-0.97388 -0.993817,-1.45521 -0.359519,-0.48132 -0.747008,-0.95871 -1.16215,-1.43219 -0.415157,-0.47351 -0.857967,-0.94318 -1.327539,-1.40833 -0.469603,-0.46516 -0.965953,-0.92578 -1.488809,-1.38209 -0.5228551,-0.45629 -1.0722021,-0.90805 -1.6471181,-1.35495 -0.574932,-0.44691 -1.175524,-0.88907 -1.801308,-1.32607 -0.6258,-0.43699 -1.276777,-0.86885 -1.952253,-1.29541 -0.67549,-0.42655 -1.375388,-0.84768 -2.099362,-1.26328 -0.723974,-0.41558 -1.471963,-0.82556 -2.24324295,-1.22967 -0.771264,-0.40409 -1.56588,-0.80248 -2.38325805,-1.19457 -0.817394,-0.39209 -1.657474,-0.77787 -2.519773,-1.15744 -0.862299,-0.37955 -1.746983,-0.75291 -2.653026,-1.1194 -0.906028,-0.36649 -1.83358,-0.7261 -2.782144,-1.0790096 -0.9485629,-0.35292 -1.9181229,-0.69895 -2.9080309,-1.03774 -0.989922,-0.33881 -2.000026,-0.67054 -3.030085,-0.99471 -1.030073,-0.32417 -2.080162,-0.64088 -3.149194,-0.94988 -1.069033,-0.30903 -2.157069,-0.61028 -3.263883,-0.90361 -2.213612,-0.58666 -4.501549,-1.14135 -6.859117,-1.66215 -2.357553,-0.52081 -4.784887,-1.00771 -7.276871,-1.45844 -2.491968,-0.45074 -5.048556,-0.86527 -7.665431,-1.24176 -2.61686,-0.37647 -5.294054,-0.71494998 -8.026274,-1.01296998 -0.2529,-0.0276 -0.51975,-0.0445 -0.77359,-0.0713 -0.37586,0.53497998 -0.7938,1.06680998 -1.29364,1.59111998 -0.0342,0.0359 -0.0761,0.0709 -0.11085,0.10671 0.0772,0.0139 0.15998,0.0244 0.23702,0.0383 2.492,0.45073 4.91932,0.93763 7.276874,1.45844 2.357568,0.5208 4.645505,1.07551 6.859117,1.66215 1.106814,0.29333 2.19485,0.59458 3.263883,0.9036 1.069032,0.30901 2.119121,0.62572 3.149194,0.94989 1.030044,0.32417 2.040163,0.6559 3.030085,0.99471 0.989907,0.33879 1.959468,0.68482 2.908031,1.03774 0.948564,0.35291 1.876116,0.71252 2.782144,1.0790096 0.906043,0.36649 1.790727,0.73985 2.653026,1.1194 0.862299,0.37957 1.702379,0.76535 2.519773,1.15744 0.817378,0.39209 1.612009,0.79048 2.383258,1.19457 0.77128,0.40411 1.519269,0.81409 2.243243,1.22967 0.723974,0.4156 1.423872,0.83673 2.099362,1.26328 0.675476,0.42654 1.326438,0.85842 1.952253,1.29541 0.6257839,0.437 1.2263759,0.87914 1.8013079,1.32607 0.574916,0.44689 1.124263,0.89866 1.647118,1.35495 0.522856,0.45631 1.019191,0.91693 1.488794,1.38209 0.469587,0.46515 0.912397,0.9348 1.327554,1.40831 0.415142,0.4735 0.802631,0.95091 1.16215,1.43221 0.359504,0.48134 0.691128,0.96658 0.993817,1.45521 0.302673,0.4886 0.576395,0.98073 0.821046,1.47612 0.244665,0.49537 0.46019905,0.99396 0.64564905,1.49559 0.18545,0.50162 0.341028,1.00622 0.4661,1.51356 0.125043,0.50734 0.219564,1.01755 0.283021,1.53008 0.06341,0.51255 0.09639,1.02731 0.09639,1.54452 -0.0015,0.51386 -0.03361,1.02553 -0.09669,1.5348 -0.06308,0.50927 -0.156756,1.01619 -0.280666,1.52036 -0.123895,0.50415 -0.277813,1.00559 -0.461376,1.50413 -0.183563,0.49855 -0.39678705,0.99433 -0.63885605,1.48674 -0.242069,0.49241 -0.51312,0.98153 -0.812503,1.46728 -0.299428,0.48577 -0.627037,0.96807 -0.982617,1.44665 -0.355579,0.47858 -0.738902,0.95332 -1.14947,1.42425 -0.410584,0.4709 -0.848382,0.93795 -1.312807,1.40066 -0.464426,0.46269 -0.955493,0.92132 -1.472597,1.3753 -0.51709,0.45398 -1.060534,0.90344 -1.629126,1.34817 -0.568622,0.44476 -1.162588,0.88458 -1.7815649,1.31958 -0.618962,0.43501 -1.26289,0.8651 -1.931014,1.28981 -0.66817,0.42474 -1.360506,0.84432 -2.076676,1.25827 -0.716185,0.41395 -1.456023,0.8223 -2.219046,1.22494 -0.763039,0.40266 -1.549186,0.79963 -2.357915,1.19045 -0.808729,0.39084 -1.639979,0.77569 -2.493237,1.1542 -0.853257,0.37851 -1.728689,0.75052 -2.625313,1.11615 -0.896608,0.36568 -1.81444,0.72498 -2.753253,1.07726 -0.938827,0.35229 -1.898697,0.69756 -2.878551,1.03596 -0.979855,0.33844 -1.979694,0.66982 -2.999428,0.99382 -1.019734,0.32402 -2.059212,0.6408 -3.117648,0.94989 -1.058436,0.30909 -2.136057,0.61053 -3.232033,0.90419 -2.191967,0.58732 -4.457625,1.14319 -6.792792,1.6657 -2.28759,0.51187 -4.645761,0.98971 -7.061941,1.43545 z"
         style="opacity:1;fill:#808080;fill-opacity:1;fill-rule:nonzero;stroke:none;stroke-width:0;stroke-linecap:round;stroke-linejoin:miter;stroke-miterlimit:4;stroke-dasharray:none;stroke-opacity:0.89803922;paint-order:normal" />
      <path
         inkscape:connector-curvature="0"
         id="path5179"
         d="m -53.030089,64.603449 c 2.41618,-0.44574 4.774351,-0.92358 7.061941,-1.43545 2.335167,-0.52251 4.600825,-1.07838 6.792792,-1.6657 1.095976,-0.29366 2.173597,-0.5951 3.232033,-0.90419 1.058436,-0.30909 2.097914,-0.62587 3.117648,-0.94989 1.019734,-0.324 2.019573,-0.65538 2.999428,-0.99382 0.979854,-0.3384 1.939724,-0.68367 2.878551,-1.03596 0.938813,-0.35228 1.856645,-0.71158 2.753253,-1.07726 0.896624,-0.36563 1.772056,-0.73764 2.625313,-1.11615 0.853258,-0.37851 1.684508,-0.76336 2.493237,-1.1542 0.808729,-0.39082 1.594876,-0.78779 2.357915,-1.19045 0.763023,-0.40264 1.502861,-0.81099 2.219046,-1.22494 0.71617,-0.41395 1.408506,-0.83353 2.076676,-1.25827 0.668124,-0.42471 1.312052,-0.8548 1.931014,-1.28981 0.6189769,-0.435 1.2129429,-0.87482 1.7815649,-1.31958 0.568592,-0.44473 1.112036,-0.89419 1.629126,-1.34817 0.517104,-0.45398 1.008171,-0.91261 1.472597,-1.3753 0.464425,-0.46271 0.902223,-0.92976 1.312807,-1.40066 0.410568,-0.47093 0.793891,-0.94567 1.14947,-1.42425 0.35558,-0.47858 0.683189,-0.96088 0.982617,-1.44665 0.299383,-0.48575 0.570434,-0.97487 0.812503,-1.46728 0.242069,-0.49241 0.45529305,-0.98819 0.63885605,-1.48674 0.183563,-0.49854 0.337481,-0.99998 0.461376,-1.50413 0.12391,-0.50417 0.217586,-1.01109 0.280666,-1.52036 0.06308,-0.50927 0.09561,-1.02094 0.09669,-1.5348 0,-0.51721 -0.03298,-1.03197 -0.09639,-1.54452 -0.06346,-0.51253 -0.157978,-1.02274 -0.283021,-1.53008 -0.125072,-0.50734 -0.28065,-1.01194 -0.4661,-1.51356 -0.18545,-0.50163 -0.40098405,-1.00022 -0.64564905,-1.49559 -0.244651,-0.49539 -0.518373,-0.98752 -0.821046,-1.47612 -0.302689,-0.48863 -0.634313,-0.97387 -0.993817,-1.45521 -0.359519,-0.4813 -0.747008,-0.95871 -1.16215,-1.43221 -0.415157,-0.47351 -0.857967,-0.94316 -1.327554,-1.40831 -0.469603,-0.46516 -0.965938,-0.92578 -1.488794,-1.38209 -0.522855,-0.45629 -1.072202,-0.90806 -1.647118,-1.35495 -0.574932,-0.44693 -1.175524,-0.88907 -1.8013079,-1.32607 -0.625815,-0.43699 -1.276777,-0.86887 -1.952253,-1.29541 -0.67549,-0.42655 -1.375388,-0.84768 -2.099362,-1.26328 -0.723974,-0.41558 -1.471963,-0.82556 -2.243243,-1.22967 -0.771249,-0.40409 -1.56588,-0.80248 -2.383258,-1.19457 -0.817394,-0.39209 -1.657474,-0.77787 -2.519773,-1.15744 -0.862299,-0.37955 -1.746983,-0.75291 -2.653026,-1.1194 -0.906028,-0.3664896 -1.83358,-0.7260996 -2.782144,-1.0790096 -0.948563,-0.35292 -1.918124,-0.69895 -2.908031,-1.03774 -0.989922,-0.33881 -2.000041,-0.67054 -3.030085,-0.99471 -1.030073,-0.32417 -2.080162,-0.64088 -3.149194,-0.94989 -1.069033,-0.30902 -2.157069,-0.61027 -3.263883,-0.9036 -2.213612,-0.58664 -4.501549,-1.14135 -6.859117,-1.66215 -2.357554,-0.52081 -4.784874,-1.00771 -7.276874,-1.45844 -0.077,-0.0139 -0.15985,-0.0245 -0.23702,-0.0383 -0.63512,0.65414 -1.35814,1.299 -2.18132,1.93073 -0.86838,0.66638 -1.83893,1.31823 -2.90804,1.95315 -1.06897,0.63487 -2.23514,1.25199 -3.49412,1.84906 -1.25901,0.59709 -2.60926,1.17338 -4.04571,1.72671 -1.43649,0.5533196 -2.95736,1.0829696 -4.55693,1.5869896 -1.59956,0.50397 -3.27579,0.98166 -5.02243,1.43131 -1.74664,0.44975 -3.56151,0.87087 -5.43783,1.2618 -1.87634,0.39081 -3.81175,0.75094 -5.79897,1.07901 -1.9872,0.32823 -4.02376,0.62399 -6.10204,0.88621 -1.18885,0.14996 -2.41618,0.26358 -3.62915,0.39122 v 32.80324 c 1.73368,0.18527 3.46005,0.37841 5.14154,0.60909 2.05382,0.28171 4.06292,0.59658 6.01979,0.94341 1.95684,0.34688 3.85899,0.7253 5.69932,1.13384 1.84031,0.40844 3.61652,0.8465 5.32196,1.31251 1.70546,0.46607 3.33801,0.95951 4.89154,1.47848 1.55352,0.51895 3.02609,1.06277 4.41218,1.62943 1.38604,0.56675 2.68386,1.15565 3.88858,1.76446 1.20474,0.60869 2.31492,1.23654 3.32637,1.88121 1.01146,0.6448 1.92288,1.30562 2.73085,1.97996 0.80793,0.67419 1.51145,1.36108 2.10791,2.05808 0.20874,0.24399 0.38734,0.49033 0.56959,0.73646 z"
         style="opacity:1;fill:#666666;fill-opacity:1;fill-rule:nonzero;stroke:none;stroke-width:0;stroke-linecap:round;stroke-linejoin:miter;stroke-miterlimit:4;stroke-dasharray:none;stroke-opacity:0.89803922;paint-order:normal" />
      <path
         inkscape:connector-curvature="0"
         id="path5087"
         d="m -52.079039,-0.28784058 c -0.0382,0.0856 -0.078,0.17107 -0.11939,0.25648 -0.10695,0.17122 -0.24062,0.34034 -0.36026,0.51062 0.25384,0.0269 0.5207,0.0438 0.77359,0.0713 2.73222,0.29802 5.409416,0.63649998 8.026276,1.01296998 2.616875,0.37649 5.173463,0.79102 7.665431,1.24176 2.491984,0.45073 4.919318,0.93763 7.276871,1.45844 2.357568,0.5208 4.645505,1.07549 6.859117,1.66215 1.106814,0.29333 2.19485,0.59458 3.263883,0.90361 1.069032,0.30902 2.119121,0.62571 3.149194,0.94988 1.030059,0.32417 2.040163,0.6559 3.030085,0.99471 0.989908,0.33879 1.959468,0.68482 2.9080309,1.03774 0.948564,0.3529096 1.876116,0.7125196 2.782144,1.0790096 0.906043,0.36649 1.790727,0.73985 2.653026,1.1194 0.862299,0.37957 1.702379,0.76535 2.519773,1.15744 0.81737805,0.39209 1.61199405,0.79048 2.38325805,1.19457 0.77127995,0.40411 1.51926895,0.81409 2.24324295,1.22967 0.723974,0.4156 1.423872,0.83673 2.099362,1.26328 0.675476,0.42656 1.326453,0.85842 1.952253,1.29541 0.625784,0.437 1.226376,0.87916 1.801308,1.32607 0.574916,0.4469 1.124263,0.89866 1.6471181,1.35495 0.522856,0.45631 1.019206,0.91693 1.488809,1.38209 0.469587,0.46515 0.912382,0.93482 1.327539,1.40833 0.415142,0.4735 0.802631,0.95087 1.16215,1.43219 0.359504,0.48133 0.691128,0.96658 0.993817,1.45521 0.302673,0.4886 0.576396,0.98074 0.821046,1.47613 0.244665,0.49536 0.460199,0.99395 0.645649,1.49558 0.18545,0.50162 0.341043,1.00623 0.466101,1.51356 0.125042,0.50734 0.219563,1.01755 0.28302,1.53008 0.06344,0.51255 0.09573,1.02731 0.09639,1.54452 -0.0015,0.51386 -0.03362,1.02553 -0.0967,1.5348 -0.06308,0.50927 -0.156756,1.01619 -0.280666,1.52036 -0.123895,0.50415 -0.277812,1.00559 -0.461376,1.50413 -0.183563,0.49855 -0.396787,0.99433 -0.638856,1.48674 -0.242069,0.49241 -0.513105,0.98153 -0.812503,1.46728 -0.299413,0.48577 -0.627037,0.96807 -0.982617,1.44665 -0.355579,0.47859 -0.738902,0.95333 -1.14947,1.42425 -0.410584,0.4709 -0.848382,0.93795 -1.312807,1.40066 -0.464426,0.46269 -0.955492,0.92132 -1.472597,1.3753 -0.51709,0.45398 -1.0605191,0.90343 -1.6291261,1.34817 -0.568622,0.44476 -1.162588,0.88458 -1.781565,1.31958 -0.618962,0.43501 -1.262875,0.86508 -1.931014,1.28981 -0.668155,0.42474 -1.360491,0.84432 -2.076661,1.25827 -0.716185,0.41395 -1.456038,0.8223 -2.21906095,1.22494 -0.763039,0.40266 -1.549186,0.79963 -2.35791505,1.19045 -0.808729,0.39084 -1.639979,0.77569 -2.493237,1.1542 -0.853257,0.37851 -1.728689,0.75051 -2.625312,1.11616 -0.896609,0.36566 -1.814441,0.72497 -2.753254,1.07725 -0.9388269,0.35229 -1.8986969,0.69756 -2.8785509,1.03596 -0.979855,0.33842 -1.979694,0.66982 -2.999428,0.99382 -1.019734,0.32402 -2.059212,0.6408 -3.117648,0.94989 -1.058436,0.30909 -2.136057,0.61053 -3.232033,0.90419 -2.191967,0.58732 -4.457625,1.14319 -6.792792,1.6657 -2.335153,0.52251 -4.739725,1.01167 -7.208765,1.46522 -2.46904,0.45355 -5.002548,0.87161 -7.596148,1.25206 -2.593599,0.38047 -5.247259,0.7233 -7.956122,1.02654 -0.13402,0.0149 -0.27577,0.0241 -0.41008,0.0389 0.0604,0.19856 0.13305,0.39675 0.17659,0.59582 0.003,0.0289 0.007,0.0578 0.009,0.0867 45.0366539,-3.55037 77.1093,-17.77777 77.144002,-34.221 C 25.801803,17.451299 -6.6705011,3.1581294 -52.079479,-0.28788058 Z"
         style="opacity:1;fill:#b3b3b3;fill-opacity:1;fill-rule:nonzero;stroke:none;stroke-width:0;stroke-linecap:round;stroke-linejoin:miter;stroke-miterlimit:4;stroke-dasharray:none;stroke-opacity:0.89803922;paint-order:normal" />
      <path
         inkscape:connector-curvature="0"
         id="path5217"
         d="m -153.82311,14.238779 c -1.49569,0.14096 -3.07312,0.32178 -4.73481,0.54865 -1.7331,0.2366 -3.54576,0.51724 -5.41537,0.83638 -1.86963,0.31912 -3.7961,0.67675 -5.75729,1.06722 -1.96118,0.39048 -3.95706,0.81378 -5.96485,1.26444 -2.00779,0.45066 -4.02749,0.92871 -6.03692,1.42838 -2.00942,0.49968 -4.00854,1.02115 -5.97463,1.55868 -1.9661,0.53753 -3.89934,1.09116 -5.77715,1.65537 -1.87781,0.56422 -3.70018,1.13903 -5.44473,1.71876 -1.74455,0.57973 -3.41135,1.16445 -4.97768,1.74854 -1.56632,0.58409 -3.03227,1.16741 -4.37542,1.7447 -1.34313,0.57729 -2.56323,1.14855 -3.63821,1.70784 -0.53749,0.27966 -1.03876,0.55625 -1.50078,0.82932 -0.46202,0.27306 -0.88499,0.54241 -1.26592,0.80749 -0.38094,0.26509 -0.71994,0.52585 -1.01416,0.78155 -0.29422,0.25571 -0.5436,0.50655 -0.7455,0.75147 -0.20189,0.24494 -0.35628,0.48394 -0.46022,0.7167 -0.10394,0.23276 -0.15739,0.45917 -0.15776,0.67836 5.7e-4,0.0993 0.0156,0.20092 0.0445,0.30485 0.0288,0.10392 0.0716,0.21005 0.1278,0.31838 0.1124,0.21668 0.27858,0.44217 0.49552,0.67513 0.21694,0.23295 0.4845,0.47342 0.79947,0.72082 0.31496,0.24738 0.67738,0.50153 1.08384,0.7615 0.40646,0.25997 0.85693,0.52589 1.34836,0.79659 0.49142,0.27069 1.02373,0.54618 1.59359,0.82577 1.13972,0.55916 2.42972,1.13427 3.84402,1.71787 1.4143,0.5836 2.95286,1.17566 4.58951,1.76889 1.63665,0.59321 3.37166,1.1876 5.17844,1.77564 1.80678,0.58807 3.68552,1.16982 5.61019,1.73793 1.92469,0.56811 3.89533,1.12262 5.88568,1.65596 1.99036,0.53335 4.00049,1.0454 6.0043,1.52921 2.0038,0.48378 4.00101,0.93932 5.96604,1.35878 1.96503,0.41946 3.89779,0.80298 5.77181,1.14328 1.87402,0.34032 3.68932,0.63748 5.42011,0.88385 1.6258,0.23143 3.1597,0.40864 4.61443,0.54452 0.92187,-0.12493 1.70726,-0.31075 2.31062,-0.57399 0.83617,-0.20166 1.68876,-0.39618 2.55319,-0.58522 z"
         style="opacity:1;fill:#502d16;fill-opacity:1;fill-rule:nonzero;stroke:none;stroke-width:0;stroke-linecap:round;stroke-linejoin:miter;stroke-miterlimit:4;stroke-dasharray:none;stroke-opacity:0.89803922;paint-order:normal" />
      <path
         inkscape:connector-curvature="0"
         id="path5079"
         d="m -155.50118,13.845489 c -18.41528,-0.28696 -69.24613,13.36158 -69.25746,20.15666 0.0394,5.97669 51.56877,20.58029 66.10001,18.59945 -1.44627,-0.13588 -2.97125,-0.31309 -4.58759,-0.54452 -1.72072,-0.24637 -3.52547,-0.54353 -5.38859,-0.88385 -1.86312,-0.3403 -3.78464,-0.72382 -5.73824,-1.14328 -1.95359,-0.41946 -3.93919,-0.87499 -5.93134,-1.35879 -1.99215,-0.4838 -3.99059,-0.99585 -5.96937,-1.5292 -1.97878,-0.53334 -3.93796,-1.08785 -5.85145,-1.65596 -1.91349,-0.56811 -3.78129,-1.14986 -5.57757,-1.73793 -1.79627,-0.58805 -3.52118,-1.18243 -5.14831,-1.77565 -1.62714,-0.59322 -3.15675,-1.18528 -4.56282,-1.76888 -1.40608,-0.5836 -2.68857,-1.15871 -3.82166,-1.71787 -0.56655,-0.27959 -1.09576,-0.55508 -1.58433,-0.82577 -0.48857,-0.2707 -0.93642,-0.53662 -1.34051,-0.79659 -0.4041,-0.25997 -0.76441,-0.51412 -1.07755,-0.7615 -0.31313,-0.2474 -0.57913,-0.48787 -0.79481,-0.72082 -0.21568,-0.23297 -0.38089,-0.45845 -0.49263,-0.67513 -0.0559,-0.10833 -0.0984,-0.21446 -0.12707,-0.31838 -0.0287,-0.10393 -0.0436,-0.20557 -0.0442,-0.30485 3.6e-4,-0.21919 0.0535,-0.4456 0.15684,-0.67836 0.10334,-0.23275 0.25683,-0.47176 0.45755,-0.7167 0.20072,-0.24492 0.44865,-0.49576 0.74116,-0.75147 0.29251,-0.2557 0.62954,-0.51646 1.00826,-0.78155 0.37872,-0.26508 0.79922,-0.53443 1.25856,-0.80749 0.45933,-0.27307 0.95768,-0.54966 1.49205,-0.82932 1.06873,-0.55929 2.28173,-1.13055 3.61706,-1.70784 1.33532,-0.57729 2.79275,-1.16061 4.34996,-1.7447 1.55722,-0.5841 3.21433,-1.16881 4.94873,-1.74854 1.7344,-0.57973 3.54618,-1.15454 5.41306,-1.71876 1.86689,-0.56421 3.78888,-1.11785 5.74355,-1.65537 1.95466,-0.53753 3.94215,-1.059 5.93989,-1.55868 1.99774,-0.49967 4.00569,-0.97771 6.0018,-1.42837 1.99611,-0.45066 3.98039,-0.87397 5.93016,-1.26445 1.94978,-0.39048 3.86505,-0.74809 5.7238,-1.06722 1.85874,-0.31914 3.66087,-0.59978 5.38387,-0.83638 1.65203,-0.22687 3.22029,-0.40769 4.70728,-0.54865 v -0.32135 c -0.52378,-0.039 -1.08403,-0.0627 -1.67807,-0.0719 z"
         style="opacity:1;fill:#28170b;fill-opacity:1;fill-rule:nonzero;stroke:none;stroke-width:0;stroke-linecap:round;stroke-linejoin:miter;stroke-miterlimit:4;stroke-dasharray:none;stroke-opacity:0.89803922;paint-order:normal" />
      <path
         inkscape:connector-curvature="0"
         id="path5154"
         d="m -145.26708,15.486419 v 34.32655 c 0.88152,-0.11949 1.73657,-0.25744 2.6335,-0.36557 2.17417,-0.26216 4.38926,-0.49044 6.63696,-0.68396 0.47998,-0.0414 0.97461,-0.0633 1.45722,-0.10142 v -32.02848 c -1.03485,-0.0834 -2.08514,-0.14811 -3.1069,-0.24617 -2.2284,-0.21372 -4.42095,-0.46186 -6.56941,-0.74351 -0.3587,-0.047 -0.69532,-0.10856 -1.05137,-0.15744 z"
         style="opacity:1;fill:#ff8080;fill-opacity:1;fill-rule:nonzero;stroke:none;stroke-width:0;stroke-linecap:round;stroke-linejoin:miter;stroke-miterlimit:4;stroke-dasharray:none;stroke-opacity:0.89803922;paint-order:normal" />
      <path
         inkscape:connector-curvature="0"
         id="path5092"
         d="m -114.43826,17.313969 v 30.72394 c 0.92325,0.0173 1.84983,0.0145 2.77041,0.0434 2.30702,0.0722 4.60103,0.18035 6.87343,0.32398 0.34411,0.0218 0.67698,0.058 1.01994,0.0814 v -31.63519 c -0.90461,0.0603 -1.79507,0.14049 -2.70695,0.18955 -2.28495,0.12291 -4.58817,0.21008 -6.90103,0.26121 -0.35138,0.008 -0.70412,0.006 -1.0558,0.0118 z"
         style="opacity:1;fill:#aa0000;fill-opacity:1;fill-rule:nonzero;stroke:none;stroke-width:0;stroke-linecap:round;stroke-linejoin:miter;stroke-miterlimit:4;stroke-dasharray:none;stroke-opacity:0.89803922;paint-order:normal" />
      <path
         inkscape:connector-curvature="0"
         id="path5156"
         d="m -124.54705,48.086539 c 0.51837,-0.0154 1.03047,-0.0479 1.54992,-0.0596 1.61483,-0.0362 3.2332,-0.0542 4.85207,-0.0542 1.37442,1e-5 2.74399,0.039 4.11551,0.0652 v -30.72394 c -1.26933,0.0224 -2.53928,0.0427 -3.81072,0.0427 -2.2398,-3e-5 -4.47779,-0.0369 -6.70678,-0.10613 z"
         style="opacity:1;fill:#d40000;fill-opacity:1;fill-rule:nonzero;stroke:none;stroke-width:0;stroke-linecap:round;stroke-linejoin:miter;stroke-miterlimit:4;stroke-dasharray:none;stroke-opacity:0.89803922;paint-order:normal" />
      <path
         inkscape:connector-curvature="0"
         id="path5148"
         d="m -134.88094,16.633539 v 32.02848 c 1.75551,-0.1404 3.515,-0.27683 5.30059,-0.37353 1.75352,-0.095 3.52478,-0.14972 5.29602,-0.20195 v -30.83596 c -0.0472,-0.002 -0.0948,-0.002 -0.14195,-0.002 -2.2926,-0.0722 -4.57226,-0.18032 -6.83046,-0.324 -1.22274,-0.0779 -2.41705,-0.19218 -3.6242,-0.29069 z"
         style="opacity:1;fill:#ff2a2a;fill-opacity:1;fill-rule:nonzero;stroke:none;stroke-width:0;stroke-linecap:round;stroke-linejoin:miter;stroke-miterlimit:4;stroke-dasharray:none;stroke-opacity:0.89803922;paint-order:normal" />
      <ellipse
         ry="23.4354"
         rx="45.873981"
         cy="33.509537"
         cx="-49.030468"
         id="path5199"
         style="opacity:1;fill:#808080;fill-opacity:1;fill-rule:nonzero;stroke:none;stroke-width:0;stroke-linecap:round;stroke-linejoin:miter;stroke-miterlimit:4;stroke-dasharray:none;stroke-opacity:0.89803922;paint-order:normal" />
    </g>
    <g
       id="g4606"
       transform="matrix(0.20358805,0,0,0.20358805,87.320254,120.56476)"
       inkscape:export-xdpi="110.64468"
       inkscape:export-ydpi="110.64468">
      <rect
         inkscape:export-ydpi="25"
         inkscape:export-xdpi="25"
         inkscape:export-filename="C:\Users\Ghuide\Desktop\learning\0.0 fatec\0.0 the toekoms of orixás\1.0 artwork and animations\2.0 NPC\0.0 elder\0.0 parts\rect5180-2-4.png"
         ry="11.249297"
         y="-17.676888"
         x="103.97073"
         height="337.49545"
         width="22.498594"
         id="rect5178"
         style="opacity:1;fill:#552200;fill-opacity:1;fill-rule:nonzero;stroke:none;stroke-width:6.76115179;stroke-linecap:round;stroke-linejoin:miter;stroke-miterlimit:4;stroke-dasharray:none;stroke-opacity:0.89803922;paint-order:normal;enable-background:new" />
      <rect
         inkscape:export-ydpi="25"
         inkscape:export-xdpi="25"
         inkscape:export-filename="C:\Users\Ghuide\Desktop\learning\0.0 fatec\0.0 the toekoms of orixás\1.0 artwork and animations\2.0 NPC\0.0 elder\0.0 parts\rect5180-2-4.png"
         y="107.62969"
         x="103.97073"
         height="6.2305956"
         width="22.551786"
         id="rect5180"
         style="opacity:1;fill:#ff5555;fill-opacity:1;fill-rule:nonzero;stroke:none;stroke-width:4.50907326;stroke-linecap:round;stroke-linejoin:miter;stroke-miterlimit:4;stroke-dasharray:none;stroke-opacity:0.89803922;paint-order:normal;enable-background:new" />
      <rect
         inkscape:export-ydpi="25"
         inkscape:export-xdpi="25"
         inkscape:export-filename="C:\Users\Ghuide\Desktop\learning\0.0 fatec\0.0 the toekoms of orixás\1.0 artwork and animations\2.0 NPC\0.0 elder\0.0 parts\rect5180-2-4.png"
         y="113.86025"
         x="103.97073"
         height="6.2305956"
         width="22.551786"
         id="rect5180-2"
         style="opacity:1;fill:#ffd5d5;fill-opacity:1;fill-rule:nonzero;stroke:none;stroke-width:4.50907326;stroke-linecap:round;stroke-linejoin:miter;stroke-miterlimit:4;stroke-dasharray:none;stroke-opacity:0.89803922;paint-order:normal;enable-background:new" />
      <rect
         inkscape:export-ydpi="25"
         inkscape:export-xdpi="25"
         inkscape:export-filename="C:\Users\Ghuide\Desktop\learning\0.0 fatec\0.0 the toekoms of orixás\1.0 artwork and animations\2.0 NPC\0.0 elder\0.0 parts\rect5180-2-4.png"
         y="120.09084"
         x="103.97073"
         height="6.2305956"
         width="22.551786"
         id="rect5180-2-4"
         style="opacity:1;fill:#cccccc;fill-opacity:1;fill-rule:nonzero;stroke:none;stroke-width:4.50907326;stroke-linecap:round;stroke-linejoin:miter;stroke-miterlimit:4;stroke-dasharray:none;stroke-opacity:0.89803922;paint-order:normal;enable-background:new" />
    </g>
  </g>
</svg>
